<svg width="32" height="32" viewBox="0 0 32 32" fill="none" xmlns="http://www.w3.org/2000/svg">
<rect width="32" height="32" rx="8" fill="url(#paint0_linear_176_4626)"/>
<path d="M22.7104 11.7095C22.6175 11.6154 22.5069 11.5408 22.385 11.4898C22.263 11.4388 22.1322 11.4126 22 11.4126C21.8678 11.4126 21.737 11.4388 21.615 11.4898C21.4931 11.5408 21.3825 11.6154 21.2896 11.7095L13.84 19.1706L10.7104 16.0304C10.5896 15.9134 10.4419 15.8281 10.2802 15.7819C10.1185 15.7357 9.94793 15.7302 9.78361 15.7658C9.61929 15.8015 9.46631 15.8771 9.33826 15.9861C9.2102 16.095 9.11104 16.2339 9.04958 16.3904C8.97543 16.5784 8.95866 16.7842 9.00137 16.9817C9.04409 17.1792 9.14438 17.3596 9.28958 17.5002L13.1296 21.3402C13.2226 21.4341 13.3332 21.5086 13.4551 21.5594C13.5771 21.6103 13.7079 21.6365 13.84 21.6365C13.9721 21.6365 14.1029 21.6103 14.2248 21.5594C14.3468 21.5086 14.4574 21.4341 14.5504 21.3402L22.7104 13.1802C22.8119 13.0866 22.8929 12.9729 22.9483 12.8465C23.0037 12.72 23.0323 12.5834 23.0323 12.4453C23.0323 12.3072 23.0037 12.1707 22.9483 12.0442C22.8929 11.9177 22.8119 11.8041 22.7104 11.7104V11.7095Z" fill="white"/>
<defs>
<linearGradient id="paint0_linear_176_4626" x1="-6.4" y1="-4.68966" x2="40.1891" y2="26.3219" gradientUnits="userSpaceOnUse">
<stop stop-color="#6896FF"/>
<stop offset="1" stop-color="#004EFF"/>
</linearGradient>
</defs>
</svg>
