<svg width="100" height="16" viewBox="0 0 100 16" fill="none" xmlns="http://www.w3.org/2000/svg">
<g clip-path="url(#clip0_176_2758)">
<path fill-rule="evenodd" clip-rule="evenodd" d="M8.82349 0.457593L10.8299 4.72595L15.5095 5.30937C15.9427 5.3652 16.2598 5.76503 16.2041 6.19856C16.176 6.40985 16.0705 6.59302 15.9205 6.72121L12.5141 9.91121L13.4032 14.5462C13.4863 14.9797 13.2031 15.3965 12.7694 15.4798C12.5806 15.513 12.3917 15.4798 12.236 15.3909L8.10093 13.1179L3.97192 15.3909C3.58304 15.6075 3.09947 15.4632 2.8884 15.0795C2.7937 14.9073 2.77159 14.7183 2.80509 14.5462L3.68848 9.91121L0.248746 6.68214C-0.068407 6.38194 -0.0851558 5.87647 0.215034 5.55953C0.348381 5.41502 0.521022 5.33729 0.698602 5.31496V5.30937L5.37795 4.72595L7.38416 0.457593C7.56776 0.0575552 8.04037 -0.109074 8.4402 0.074304C8.61799 0.157618 8.74597 0.296547 8.82349 0.457593Z" fill="url(#paint0_linear_176_2758)"/>
</g>
<g clip-path="url(#clip1_176_2758)">
<path fill-rule="evenodd" clip-rule="evenodd" d="M29.395 0.457593L31.4014 4.72595L36.081 5.30937C36.5143 5.3652 36.8313 5.76503 36.7756 6.19856C36.7475 6.40985 36.642 6.59302 36.492 6.72121L33.0856 9.91121L33.9747 14.5462C34.0578 14.9797 33.7746 15.3965 33.3409 15.4798C33.1521 15.513 32.9632 15.4798 32.8075 15.3909L28.6725 13.1179L24.5435 15.3909C24.1546 15.6075 23.671 15.4632 23.4599 15.0795C23.3652 14.9073 23.3431 14.7183 23.3766 14.5462L24.26 9.91121L20.8203 6.68214C20.5031 6.38194 20.4864 5.87647 20.7866 5.55953C20.9199 5.41502 21.0926 5.33729 21.2701 5.31496V5.30937L25.9495 4.72595L27.9557 0.457593C28.1393 0.0575552 28.6119 -0.109074 29.0117 0.074304C29.1895 0.157618 29.3175 0.296547 29.395 0.457593Z" fill="url(#paint1_linear_176_2758)"/>
</g>
<g clip-path="url(#clip2_176_2758)">
<path fill-rule="evenodd" clip-rule="evenodd" d="M49.9663 0.457593L51.9727 4.72595L56.6523 5.30937C57.0856 5.3652 57.4026 5.76503 57.3469 6.19856C57.3188 6.40985 57.2133 6.59302 57.0633 6.72121L53.6569 9.91121L54.546 14.5462C54.6291 14.9797 54.3459 15.3965 53.9122 15.4798C53.7234 15.513 53.5345 15.4798 53.3788 15.3909L49.2437 13.1179L45.1147 15.3909C44.7259 15.6075 44.2423 15.4632 44.0312 15.0795C43.9365 14.9073 43.9144 14.7183 43.9479 14.5462L44.8313 9.91121L41.3916 6.68214C41.0744 6.38194 41.0577 5.87647 41.3579 5.55953C41.4912 5.41502 41.6638 5.33729 41.8414 5.31496V5.30937L46.5208 4.72595L48.527 0.457593C48.7106 0.0575552 49.1832 -0.109074 49.583 0.074304C49.7608 0.157618 49.8888 0.296547 49.9663 0.457593Z" fill="url(#paint2_linear_176_2758)"/>
</g>
<g clip-path="url(#clip3_176_2758)">
<path fill-rule="evenodd" clip-rule="evenodd" d="M70.5378 0.457593L72.5443 4.72595L77.2238 5.30937C77.6571 5.3652 77.9741 5.76503 77.9185 6.19856C77.8904 6.40985 77.7849 6.59302 77.6348 6.72121L74.2284 9.91121L75.1176 14.5462C75.2006 14.9797 74.9174 15.3965 74.4837 15.4798C74.2949 15.513 74.106 15.4798 73.9504 15.3909L69.8153 13.1179L65.6863 15.3909C65.2974 15.6075 64.8138 15.4632 64.6028 15.0795C64.5081 14.9073 64.4859 14.7183 64.5194 14.5462L65.4028 9.91121L61.9631 6.68214C61.6459 6.38194 61.6292 5.87647 61.9294 5.55953C62.0627 5.41502 62.2354 5.33729 62.413 5.31496V5.30937L67.0923 4.72595L69.0985 0.457593C69.2821 0.0575552 69.7547 -0.109074 70.1546 0.074304C70.3323 0.157618 70.4603 0.296547 70.5378 0.457593Z" fill="url(#paint3_linear_176_2758)"/>
</g>
<g clip-path="url(#clip4_176_2758)">
<path fill-rule="evenodd" clip-rule="evenodd" d="M91.1091 0.457593L93.1156 4.72595L97.7951 5.30937C98.2284 5.3652 98.5454 5.76503 98.4898 6.19856C98.4616 6.40985 98.3562 6.59302 98.2061 6.72121L94.7997 9.91121L95.6888 14.5462C95.7719 14.9797 95.4887 15.3965 95.055 15.4798C94.8662 15.513 94.6773 15.4798 94.5216 15.3909L90.3866 13.1179L86.2576 15.3909C85.8687 15.6075 85.3851 15.4632 85.174 15.0795C85.0793 14.9073 85.0572 14.7183 85.0907 14.5462L85.9741 9.91121L82.5344 6.68214C82.2172 6.38194 82.2005 5.87647 82.5007 5.55953C82.634 5.41502 82.8067 5.33729 82.9842 5.31496V5.30937L87.6636 4.72595L89.6698 0.457593C89.8534 0.0575552 90.326 -0.109074 90.7258 0.074304C90.9036 0.157618 91.0316 0.296547 91.1091 0.457593Z" fill="url(#paint4_linear_176_2758)"/>
</g>
<defs>
<linearGradient id="paint0_linear_176_2758" x1="0" y1="-2.1213e-10" x2="0" y2="15.4925" gradientUnits="userSpaceOnUse">
<stop stop-color="#FBD249"/>
<stop offset="1" stop-color="#F5A623"/>
</linearGradient>
<linearGradient id="paint1_linear_176_2758" x1="20.5715" y1="-2.1213e-10" x2="20.5715" y2="15.4925" gradientUnits="userSpaceOnUse">
<stop stop-color="#FBD249"/>
<stop offset="1" stop-color="#F5A623"/>
</linearGradient>
<linearGradient id="paint2_linear_176_2758" x1="41.1428" y1="-2.1213e-10" x2="41.1428" y2="15.4925" gradientUnits="userSpaceOnUse">
<stop stop-color="#FBD249"/>
<stop offset="1" stop-color="#F5A623"/>
</linearGradient>
<linearGradient id="paint3_linear_176_2758" x1="61.7144" y1="-2.1213e-10" x2="61.7144" y2="15.4925" gradientUnits="userSpaceOnUse">
<stop stop-color="#FBD249"/>
<stop offset="1" stop-color="#F5A623"/>
</linearGradient>
<linearGradient id="paint4_linear_176_2758" x1="82.2856" y1="-2.1213e-10" x2="82.2856" y2="15.4925" gradientUnits="userSpaceOnUse">
<stop stop-color="#FBD249"/>
<stop offset="1" stop-color="#F5A623"/>
</linearGradient>
<clipPath id="clip0_176_2758">
<rect width="17.1429" height="16" fill="white"/>
</clipPath>
<clipPath id="clip1_176_2758">
<rect width="17.1429" height="16" fill="white" transform="translate(20.5715)"/>
</clipPath>
<clipPath id="clip2_176_2758">
<rect width="17.1429" height="16" fill="white" transform="translate(41.1428)"/>
</clipPath>
<clipPath id="clip3_176_2758">
<rect width="17.1429" height="16" fill="white" transform="translate(61.7144)"/>
</clipPath>
<clipPath id="clip4_176_2758">
<rect width="17.1429" height="16" fill="white" transform="translate(82.2856)"/>
</clipPath>
</defs>
</svg>
