<svg width="68" height="68" viewBox="0 0 68 68" fill="none" xmlns="http://www.w3.org/2000/svg">
<path d="M34.0372 30.8462C32.7853 30.8462 31.7705 31.861 31.7705 33.1129C31.7704 34.018 32.3023 34.797 33.0693 35.1603V37.9158C33.0693 38.1725 33.1712 38.4186 33.3527 38.6001C33.5342 38.7816 33.7804 38.8836 34.0371 38.8836C34.2938 38.8836 34.5399 38.7816 34.7214 38.6001C34.9029 38.4186 35.0049 38.1725 35.0049 37.9158V35.1603C35.772 34.797 36.3039 34.018 36.3039 33.1129C36.3039 31.861 35.2891 30.8462 34.0372 30.8462Z" fill="#00FF37"/>
<path d="M58.1902 14.7621C54.024 13.1135 50.7172 10.0771 48.8789 6.21257C48.379 5.16163 47.2985 4.48242 46.1259 4.48242H21.874C20.7016 4.48242 19.621 5.16149 19.1211 6.21257C17.283 10.0771 13.9761 13.1135 9.80989 14.7621C8.64127 15.2244 7.88623 16.3385 7.88623 17.6V23.4985C7.88623 31.2307 10.141 38.8689 14.4068 45.5876C18.714 52.3721 24.9554 58.042 32.4557 61.9841L32.5779 62.0484C33.0164 62.279 33.5044 62.3995 33.9999 62.3995C34.4953 62.3995 34.9833 62.2791 35.4218 62.0485L35.5444 61.9841C43.0449 58.0419 49.2861 52.3721 53.5935 45.5876C57.8592 38.8688 60.1139 31.2306 60.1139 23.4985V17.6C60.1139 16.3383 59.3586 15.2244 58.1902 14.7621ZM58.1785 23.4986C58.1785 30.8627 56.028 38.1422 51.9595 44.5504C47.8332 51.0497 41.8455 56.4858 34.6442 60.271L34.5216 60.3353C34.3608 60.4199 34.1818 60.4641 34 60.4641C33.8183 60.4641 33.6392 60.4199 33.4784 60.3353L33.3562 60.2711C26.1547 56.486 20.167 51.0498 16.0405 44.5504C11.9721 38.1423 9.82157 30.8627 9.82157 23.4985V17.6C9.82157 17.1377 10.0965 16.7301 10.5219 16.5619C15.1451 14.7325 18.8196 11.3523 20.8688 7.04398C21.0495 6.66373 21.4441 6.41803 21.8739 6.41803H46.126C46.5558 6.41803 46.9502 6.66373 47.1311 7.04398C49.1804 11.3523 52.8551 14.7325 57.4782 16.562C57.9036 16.7303 58.1785 17.1379 58.1785 17.6002V23.4986Z" fill="#00FF37"/>
<path d="M63.0424 32.6825C62.9185 32.6544 62.7902 32.6511 62.665 32.6726C62.5397 32.6942 62.4199 32.7402 62.3125 32.808C62.205 32.8759 62.112 32.9642 62.0387 33.0681C61.9654 33.1719 61.9132 33.2891 61.8853 33.4131C58.9379 46.4522 49.9613 57.7603 37.257 64.4377L34.3047 65.9895C34.2109 66.0388 34.1064 66.0646 34.0003 66.0646C33.8943 66.0646 33.7898 66.0388 33.6959 65.9895L30.7436 64.4377C18.0194 57.7498 9.03836 46.4222 6.10334 33.3596C6.04709 33.1092 5.89366 32.8914 5.67682 32.7541C5.45998 32.6168 5.19748 32.5713 4.94707 32.6275C4.69667 32.6838 4.47886 32.8372 4.34157 33.054C4.20428 33.2709 4.15876 33.5334 4.21501 33.7838C7.27448 47.4012 16.6156 59.1985 29.8432 66.1508L32.7955 67.7026C33.1671 67.8979 33.5806 67.9999 34.0004 67.9999C34.4201 67.9999 34.8336 67.8978 35.2052 67.7025L38.1575 66.1507C51.3642 59.2093 60.7007 47.4324 63.7732 33.8397C63.8297 33.5893 63.7844 33.3268 63.6474 33.1098C63.5104 32.8928 63.2928 32.7391 63.0424 32.6825ZM62.5714 11.0735C57.4038 10.5283 53.3405 6.90107 52.6901 2.2529C52.5104 0.968469 51.4066 0 50.1226 0H17.8778C16.5939 0 15.4901 0.968469 15.3104 2.2529C14.6599 6.9012 10.5967 10.5283 5.42918 11.0735C4.11978 11.2116 3.13232 12.3178 3.13232 13.6465V24.0383C3.13232 25.5483 3.21055 27.075 3.36488 28.5761C3.39559 28.8277 3.52381 29.0573 3.72198 29.2154C3.92015 29.3736 4.17245 29.4476 4.42465 29.4217C4.67685 29.3958 4.90882 29.2719 5.07068 29.0768C5.23254 28.8817 5.31139 28.6308 5.29026 28.3782C5.14235 26.9363 5.0681 25.4877 5.0678 24.0383V13.6465C5.0678 13.3164 5.31576 13.0316 5.63225 12.9982C11.6853 12.3597 16.4533 8.05123 17.2273 2.52105C17.2749 2.18171 17.5483 1.93548 17.8778 1.93548H50.1224C50.452 1.93548 50.7257 2.18171 50.7731 2.52105C51.5469 8.05123 56.315 12.3595 62.368 12.9982C62.6845 13.0316 62.9325 13.3164 62.9325 13.6465V24.0383C62.9325 25.4672 62.8592 26.9122 62.7147 28.3334C62.6903 28.5879 62.7677 28.8417 62.9299 29.0394C63.0921 29.237 63.3259 29.3625 63.5802 29.3883C63.8346 29.4142 64.0888 29.3383 64.2874 29.1774C64.4861 29.0164 64.6129 28.7834 64.6403 28.5292C64.7917 27.037 64.8677 25.5381 64.868 24.0383V13.6465C64.8681 12.3178 63.8808 11.2116 62.5714 11.0735Z" fill="#00FF37"/>
<path d="M45.0845 24.1541H43.4932V19.5346C43.4932 14.3205 39.2513 10.0786 34.0371 10.0786C28.823 10.0786 24.581 14.3205 24.581 19.5346V24.1541H22.9899C21.2928 24.1541 19.9121 25.5348 19.9121 27.2319V41.0881C19.9121 42.7852 21.2928 44.1659 22.9899 44.1659H45.0845C46.7815 44.1659 48.1623 42.7852 48.1623 41.0881V27.2319C48.1623 25.5348 46.7815 24.1541 45.0845 24.1541ZM26.5166 19.5347C26.5166 15.3879 29.8903 12.0142 34.0373 12.0142C38.1842 12.0142 41.5579 15.3879 41.5579 19.5347V24.1542H26.5166V19.5347ZM46.2268 41.0881C46.2268 41.7179 45.7143 42.2304 45.0845 42.2304H22.9899C22.36 42.2304 21.8476 41.7179 21.8476 41.0881V27.2319C21.8476 26.6021 22.3601 26.0896 22.9899 26.0896H45.0845C45.7143 26.0896 46.2268 26.6019 46.2268 27.2319V41.0881Z" fill="#00FF37"/>
</svg>
