<svg width="12" height="12" viewBox="0 0 12 12" fill="none" xmlns="http://www.w3.org/2000/svg">
<path d="M9.823 1.11963C10.1153 0.827375 10.5883 0.827318 10.8806 1.11963C11.1728 1.41193 11.1729 1.88496 10.8806 2.17725L7.05737 6.00049L10.8806 9.82373C11.1728 10.1161 11.1729 10.5891 10.8806 10.8813C10.7348 11.027 10.5425 11.1001 10.3513 11.1001C10.2533 11.1001 10.1558 11.081 10.0652 11.0435C10.0199 11.0247 9.97681 11.0012 9.93628 10.9741L9.823 10.8813L5.99976 7.05811L2.17651 10.8813C2.03083 11.0268 1.83925 11.1 1.64819 11.1001C1.5501 11.1002 1.4527 11.081 1.36206 11.0435C1.31662 11.0246 1.27285 11.0014 1.23218 10.9741L1.1189 10.8813C0.826689 10.5891 0.826854 10.1161 1.1189 9.82373L4.94214 6.00049L1.1189 2.17725C0.826672 1.88501 0.82683 1.41196 1.1189 1.11963C1.41122 0.827303 1.88406 0.827405 2.17651 1.11963L5.99976 4.94287L9.823 1.11963Z" fill="#F14336"/>
</svg>
