<svg width="28" height="28" viewBox="0 0 28 28" fill="none" xmlns="http://www.w3.org/2000/svg">
<rect width="27.9999" height="27.9999" rx="13.8563" fill="#004EFF" fill-opacity="0.15"/>
<path d="M21.8287 8.41081C21.7203 8.30109 21.5913 8.21398 21.449 8.15452C21.3067 8.09507 21.1541 8.06445 20.9999 8.06445C20.8457 8.06445 20.693 8.09507 20.5507 8.15452C20.4085 8.21398 20.2794 8.30109 20.1711 8.41081L11.4799 17.1154L7.82869 13.4519C7.68782 13.3154 7.51542 13.2158 7.32679 13.1619C7.13817 13.1081 6.93916 13.1017 6.74746 13.1432C6.55575 13.1848 6.37727 13.273 6.22788 13.4002C6.07848 13.5273 5.9628 13.6893 5.89109 13.8719C5.80458 14.0912 5.78501 14.3313 5.83485 14.5617C5.88468 14.7922 6.00169 15.0027 6.17109 15.1666L10.6511 19.6466C10.7595 19.7561 10.8886 19.8431 11.0309 19.9024C11.1731 19.9617 11.3257 19.9923 11.4799 19.9923C11.634 19.9923 11.7866 19.9617 11.9289 19.9024C12.0711 19.8431 12.2002 19.7561 12.3087 19.6466L21.8287 10.1266C21.9471 10.0174 22.0415 9.88484 22.1062 9.73728C22.1708 9.58972 22.2042 9.43038 22.2042 9.26929C22.2042 9.10819 22.1708 8.94885 22.1062 8.80129C22.0415 8.65373 21.9471 8.52116 21.8287 8.41193V8.41081Z" fill="#004EFF"/>
</svg>
