<svg width="24" height="24" viewBox="0 0 24 24" fill="none" xmlns="http://www.w3.org/2000/svg">
<rect width="24" height="24" rx="12" fill="#004EFF" fill-opacity="0.15"/>
<path d="M18.7104 7.2096C18.6175 7.11555 18.5069 7.04089 18.385 6.98992C18.263 6.93896 18.1322 6.91272 18 6.91272C17.8678 6.91272 17.737 6.93896 17.615 6.98992C17.4931 7.04089 17.3825 7.11555 17.2896 7.2096L9.83998 14.6707L6.71038 11.5306C6.58964 11.4135 6.44186 11.3282 6.28019 11.282C6.11851 11.2359 5.94793 11.2303 5.78361 11.266C5.61929 11.3016 5.46631 11.3772 5.33826 11.4862C5.2102 11.5952 5.11104 11.7341 5.04958 11.8906C4.97543 12.0785 4.95866 12.2843 5.00137 12.4818C5.04409 12.6793 5.14438 12.8598 5.28958 13.0003L9.12958 16.8403C9.22255 16.9342 9.3332 17.0087 9.45513 17.0596C9.57707 17.1104 9.70787 17.1366 9.83998 17.1366C9.9721 17.1366 10.1029 17.1104 10.2248 17.0596C10.3468 17.0087 10.4574 16.9342 10.5504 16.8403L18.7104 8.68032C18.8119 8.58669 18.8929 8.47306 18.9483 8.34658C19.0037 8.2201 19.0323 8.08352 19.0323 7.94544C19.0323 7.80736 19.0037 7.67078 18.9483 7.5443C18.8929 7.41782 18.8119 7.30418 18.7104 7.21056V7.2096Z" fill="#004EFF"/>
</svg>
