<svg width="395" height="826" viewBox="0 0 395 826" fill="none" xmlns="http://www.w3.org/2000/svg">
<mask id="path-1-inside-1_176_4084" fill="white">
<path d="M376.439 0C386.69 0.000114386 395 8.30989 395 18.5605V807.439C395 817.69 386.69 826 376.439 826H18.5605C8.30989 826 0.000109056 817.69 0 807.439V89.092C0 78.8412 8.30993 70.5312 18.5607 70.5312H57.0479C66.9465 70.5312 75.1033 62.7634 75.5865 52.8766L77.308 17.6547C77.7912 7.76786 85.948 0 95.8466 0H376.439Z"/>
</mask>
<path d="M376.439 0C386.69 0.000114386 395 8.30989 395 18.5605V807.439C395 817.69 386.69 826 376.439 826H18.5605C8.30989 826 0.000109056 817.69 0 807.439V89.092C0 78.8412 8.30993 70.5312 18.5607 70.5312H57.0479C66.9465 70.5312 75.1033 62.7634 75.5865 52.8766L77.308 17.6547C77.7912 7.76786 85.948 0 95.8466 0H376.439Z" fill="white"/>
<path d="M376.439 0L376.439 -1.85608H376.439V0ZM395 18.5605H396.856V18.5605L395 18.5605ZM395 807.439H396.856H395ZM376.439 826V827.856H376.439L376.439 826ZM18.5605 826L18.5605 827.856H18.5605V826ZM0 807.439H-1.85608H0ZM376.439 0L376.439 1.85608C385.665 1.85618 393.144 9.33498 393.144 18.5606L395 18.5605L396.856 18.5605C396.856 7.2848 387.715 -1.85595 376.439 -1.85608L376.439 0ZM395 18.5605H393.144V807.439H395H396.856V18.5605H395ZM395 807.439H393.144C393.144 816.665 385.665 824.144 376.439 824.144L376.439 826L376.439 827.856C387.715 827.856 396.856 818.715 396.856 807.439H395ZM376.439 826V824.144H18.5605V826V827.856H376.439V826ZM18.5605 826L18.5606 824.144C9.33498 824.144 1.85617 816.665 1.85608 807.439H0H-1.85608C-1.85596 818.715 7.28481 827.856 18.5605 827.856L18.5605 826ZM0 807.439H1.85608V89.092H0H-1.85608V807.439H0ZM18.5607 70.5312V72.3873H57.0479V70.5312V68.6752H18.5607V70.5312ZM75.5865 52.8766L77.4404 52.9672L79.1619 17.7453L77.308 17.6547L75.4542 17.564L73.7327 52.786L75.5865 52.8766ZM95.8466 0V1.85608H376.439V0V-1.85608H95.8466V0ZM77.308 17.6547L79.1619 17.7453C79.5968 8.84715 86.9379 1.85608 95.8466 1.85608V0V-1.85608C84.9582 -1.85608 75.9857 6.68857 75.4542 17.564L77.308 17.6547ZM57.0479 70.5312V72.3873C67.9363 72.3873 76.9088 63.8427 77.4404 52.9672L75.5865 52.8766L73.7327 52.786C73.2978 61.6841 65.9566 68.6752 57.0479 68.6752V70.5312ZM0 89.092H1.85608C1.85608 79.8663 9.33501 72.3873 18.5607 72.3873V70.5312V68.6752C7.28485 68.6752 -1.85608 77.8161 -1.85608 89.092H0Z" fill="#D7E3FF" mask="url(#path-1-inside-1_176_4084)"/>
</svg>
