<svg width="390" height="412" viewBox="0 0 390 412" fill="none" xmlns="http://www.w3.org/2000/svg">
<mask id="path-1-inside-1_176_3243" fill="white">
<path d="M365.616 0C379.083 0 390 10.9171 390 24.3838V387.616C390 401.083 379.083 412 365.616 412H24.3838C10.9171 412 0 401.083 0 387.616V24.3838C2.64158e-05 10.9171 10.9171 9.93752e-05 24.3838 0H118.344C131.348 0 142.063 10.2046 142.698 23.193L142.945 28.2396C143.58 41.228 154.296 51.4326 167.3 51.4326H219.647C232.65 51.4326 243.366 41.228 244.001 28.2396L244.248 23.193C244.883 10.2046 255.599 0 268.603 0H365.616Z"/>
</mask>
<path d="M365.616 0C379.083 0 390 10.9171 390 24.3838V387.616C390 401.083 379.083 412 365.616 412H24.3838C10.9171 412 0 401.083 0 387.616V24.3838C2.64158e-05 10.9171 10.9171 9.93752e-05 24.3838 0H118.344C131.348 0 142.063 10.2046 142.698 23.193L142.945 28.2396C143.58 41.228 154.296 51.4326 167.3 51.4326H219.647C232.65 51.4326 243.366 41.228 244.001 28.2396L244.248 23.193C244.883 10.2046 255.599 0 268.603 0H365.616Z" fill="white"/>
<path d="M390 24.3838H392.438V24.3838L390 24.3838ZM24.3838 412L24.3838 414.438H24.3838V412ZM0 24.3838L-2.43837 24.3838V24.3838H0ZM24.3838 0V-2.43837H24.3838L24.3838 0ZM244.001 28.2396L241.566 28.1206L244.001 28.2396ZM142.698 23.193L140.263 23.312L142.698 23.193ZM365.616 0V2.43837C377.736 2.43837 387.562 12.2637 387.562 24.3838L390 24.3838L392.438 24.3838C392.438 9.57038 380.43 -2.43837 365.616 -2.43837V0ZM390 24.3838H387.562V387.616H390H392.438V24.3838H390ZM390 387.616H387.562C387.562 399.736 377.736 409.562 365.616 409.562V412V414.438C380.43 414.438 392.438 402.43 392.438 387.616H390ZM365.616 412V409.562H24.3838V412V414.438H365.616V412ZM24.3838 412L24.3838 409.562C12.2638 409.562 2.43837 399.736 2.43837 387.616H0H-2.43837C-2.43837 402.43 9.57045 414.438 24.3838 414.438L24.3838 412ZM0 387.616H2.43837V24.3838H0H-2.43837V387.616H0ZM0 24.3838L2.43837 24.3838C2.4384 12.2638 12.2638 2.43846 24.3838 2.43837L24.3838 0L24.3838 -2.43837C9.57046 -2.43826 -2.43834 9.57042 -2.43837 24.3838L0 24.3838ZM24.3838 0V2.43837H118.344V0V-2.43837H24.3838V0ZM142.698 23.193L140.263 23.312L140.51 28.3587L142.945 28.2396L145.381 28.1206L145.134 23.0739L142.698 23.193ZM167.3 51.4326V53.871H219.647V51.4326V48.9942H167.3V51.4326ZM244.001 28.2396L246.437 28.3587L246.683 23.3121L244.248 23.193L241.812 23.0739L241.566 28.1206L244.001 28.2396ZM268.603 0V2.43837H365.616V0V-2.43837H268.603V0ZM244.248 23.193L246.683 23.3121C247.255 11.6225 256.899 2.43837 268.603 2.43837V0V-2.43837C254.298 -2.43837 242.511 8.78671 241.812 23.0739L244.248 23.193ZM219.647 51.4326V53.871C233.951 53.871 245.738 42.6459 246.437 28.3587L244.001 28.2396L241.566 28.1206C240.994 39.8101 231.35 48.9942 219.647 48.9942V51.4326ZM142.945 28.2396L140.51 28.3587C141.208 42.6459 152.996 53.871 167.3 53.871V51.4326V48.9942C155.596 48.9942 145.952 39.8101 145.381 28.1206L142.945 28.2396ZM118.344 0V2.43837C130.047 2.43837 139.691 11.6225 140.263 23.312L142.698 23.193L145.134 23.0739C144.435 8.7867 132.648 -2.43837 118.344 -2.43837V0Z" fill="#D7E3FF" mask="url(#path-1-inside-1_176_3243)"/>
</svg>
