<svg width="395" height="826" viewBox="0 0 395 826" fill="none" xmlns="http://www.w3.org/2000/svg">
<mask id="path-1-inside-1_176_4381" fill="white">
<path d="M376.439 0C386.69 0.000114386 395 8.30989 395 18.5605V807.439C395 817.69 386.69 826 376.439 826H18.5605C8.30989 826 0.000109056 817.69 0 807.439V89.092C0 78.8412 8.30993 70.5312 18.5607 70.5312H49.9053C59.8039 70.5312 67.9607 62.7634 68.4439 52.8766L70.1654 17.6547C70.6487 7.76786 78.8055 0 88.7041 0H376.439Z"/>
</mask>
<path d="M376.439 0C386.69 0.000114386 395 8.30989 395 18.5605V807.439C395 817.69 386.69 826 376.439 826H18.5605C8.30989 826 0.000109056 817.69 0 807.439V89.092C0 78.8412 8.30993 70.5312 18.5607 70.5312H49.9053C59.8039 70.5312 67.9607 62.7634 68.4439 52.8766L70.1654 17.6547C70.6487 7.76786 78.8055 0 88.7041 0H376.439Z" fill="white"/>
<path d="M376.439 0L376.439 -1.85608H376.439V0ZM395 18.5605H396.856V18.5605L395 18.5605ZM395 807.439H396.856H395ZM376.439 826V827.856H376.439L376.439 826ZM18.5605 826L18.5605 827.856H18.5605V826ZM0 807.439H-1.85608H0ZM376.439 0L376.439 1.85608C385.665 1.85618 393.144 9.33498 393.144 18.5606L395 18.5605L396.856 18.5605C396.856 7.2848 387.715 -1.85595 376.439 -1.85608L376.439 0ZM395 18.5605H393.144V807.439H395H396.856V18.5605H395ZM395 807.439H393.144C393.144 816.665 385.665 824.144 376.439 824.144L376.439 826L376.439 827.856C387.715 827.856 396.856 818.715 396.856 807.439H395ZM376.439 826V824.144H18.5605V826V827.856H376.439V826ZM18.5605 826L18.5606 824.144C9.33498 824.144 1.85617 816.665 1.85608 807.439H0H-1.85608C-1.85596 818.715 7.28481 827.856 18.5605 827.856L18.5605 826ZM0 807.439H1.85608V89.092H0H-1.85608V807.439H0ZM18.5607 70.5312V72.3873H49.9053V70.5312V68.6752H18.5607V70.5312ZM68.4439 52.8766L70.2978 52.9672L72.0193 17.7453L70.1654 17.6547L68.3116 17.564L66.5901 52.786L68.4439 52.8766ZM88.7041 0V1.85608H376.439V0V-1.85608H88.7041V0ZM70.1654 17.6547L72.0193 17.7453C72.4542 8.84715 79.7953 1.85608 88.7041 1.85608V0V-1.85608C77.8156 -1.85608 68.8431 6.68857 68.3116 17.564L70.1654 17.6547ZM49.9053 70.5312V72.3873C60.7938 72.3873 69.7663 63.8427 70.2978 52.9672L68.4439 52.8766L66.5901 52.786C66.1552 61.6841 58.814 68.6752 49.9053 68.6752V70.5312ZM0 89.092H1.85608C1.85608 79.8663 9.33501 72.3873 18.5607 72.3873V70.5312V68.6752C7.28485 68.6752 -1.85608 77.8161 -1.85608 89.092H0Z" fill="#D7E3FF" mask="url(#path-1-inside-1_176_4381)"/>
</svg>
