<svg width="395" height="826" viewBox="0 0 395 826" fill="none" xmlns="http://www.w3.org/2000/svg">
<mask id="path-1-inside-1_176_4317" fill="white">
<path d="M376.439 0C386.69 0.000246325 395 8.30997 395 18.5605V807.439C395 817.69 386.69 826 376.439 826H18.5605C8.3098 826 0.000109058 817.69 0 807.439V89.092C0 78.8412 8.30993 70.5312 18.5607 70.5312H55.712C65.6105 70.5312 73.7674 62.7634 74.2506 52.8766L75.9721 17.6547C76.4553 7.76786 84.6121 0 94.5107 0H376.439Z"/>
</mask>
<path d="M376.439 0C386.69 0.000246325 395 8.30997 395 18.5605V807.439C395 817.69 386.69 826 376.439 826H18.5605C8.3098 826 0.000109058 817.69 0 807.439V89.092C0 78.8412 8.30993 70.5312 18.5607 70.5312H55.712C65.6105 70.5312 73.7674 62.7634 74.2506 52.8766L75.9721 17.6547C76.4553 7.76786 84.6121 0 94.5107 0H376.439Z" fill="white"/>
<path d="M376.439 0L376.439 -1.85608H376.439V0ZM395 18.5605H396.856V18.5605L395 18.5605ZM395 807.439H396.856H395ZM376.439 826V827.856H376.439L376.439 826ZM0 807.439H-1.85608H0ZM376.439 0L376.439 1.85608C385.665 1.8563 393.144 9.33508 393.144 18.5606L395 18.5605L396.856 18.5605C396.856 7.28486 387.715 -1.8558 376.439 -1.85608L376.439 0ZM395 18.5605H393.144V807.439H395H396.856V18.5605H395ZM395 807.439H393.144C393.144 816.665 385.665 824.144 376.439 824.144L376.439 826L376.439 827.856C387.715 827.856 396.856 818.715 396.856 807.439H395ZM376.439 826V824.144H18.5605V826V827.856H376.439V826ZM18.5605 826V824.144C9.3349 824.144 1.85617 816.665 1.85608 807.439H0H-1.85608C-1.85596 818.715 7.28469 827.856 18.5605 827.856V826ZM0 807.439H1.85608V89.092H0H-1.85608V807.439H0ZM18.5607 70.5312V72.3873H55.712V70.5312V68.6752H18.5607V70.5312ZM74.2506 52.8766L76.1044 52.9672L77.8259 17.7453L75.9721 17.6547L74.1182 17.564L72.3967 52.786L74.2506 52.8766ZM94.5107 0V1.85608H376.439V0V-1.85608H94.5107V0ZM75.9721 17.6547L77.8259 17.7453C78.2608 8.84715 85.602 1.85608 94.5107 1.85608V0V-1.85608C83.6222 -1.85608 74.6498 6.68857 74.1182 17.564L75.9721 17.6547ZM55.712 70.5312V72.3873C66.6004 72.3873 75.5729 63.8427 76.1044 52.9672L74.2506 52.8766L72.3967 52.786C71.9618 61.6841 64.6207 68.6752 55.712 68.6752V70.5312ZM0 89.092H1.85608C1.85608 79.8662 9.33501 72.3873 18.5607 72.3873V70.5312V68.6752C7.28485 68.6752 -1.85608 77.8161 -1.85608 89.092H0Z" fill="#D7E3FF" mask="url(#path-1-inside-1_176_4317)"/>
</svg>
