<svg width="20" height="20" viewBox="0 0 20 20" fill="none" xmlns="http://www.w3.org/2000/svg">
<g clip-path="url(#clip0_176_2735)">
<path d="M18.1676 8.33334C18.5482 10.2011 18.2769 12.1429 17.3991 13.8348C16.5213 15.5268 15.09 16.8667 13.3438 17.6311C11.5977 18.3955 9.64227 18.5382 7.80367 18.0353C5.96506 17.5325 4.35441 16.4145 3.24031 14.8679C2.12622 13.3212 1.57602 11.4394 1.68147 9.53616C1.78692 7.63295 2.54165 5.82341 3.81979 4.40932C5.09793 2.99522 6.82223 2.06203 8.70514 1.76538C10.588 1.46874 12.5157 1.82656 14.1667 2.77917" stroke="#28B446" stroke-width="1.66667" stroke-linecap="round" stroke-linejoin="round"/>
<path d="M7.5 9.16666L10 11.6667L18.3333 3.33333" stroke="#28B446" stroke-width="1.66667" stroke-linecap="round" stroke-linejoin="round"/>
</g>
<defs>
<clipPath id="clip0_176_2735">
<rect width="20" height="20" fill="white"/>
</clipPath>
</defs>
</svg>
