<svg width="11" height="11" viewBox="0 0 11 11" fill="none" xmlns="http://www.w3.org/2000/svg">
<path d="M9.62299 0.236435C9.93824 -0.0787428 10.4483 -0.0788045 10.7636 0.236435C11.0787 0.551659 11.0787 1.06179 10.7636 1.37701L6.64044 5.50013L10.7636 9.62326C11.0787 9.93851 11.0788 10.4486 10.7636 10.7638C10.6064 10.9209 10.3989 10.9997 10.1928 10.9997C10.087 10.9998 9.98185 10.9791 9.88418 10.9387C9.83537 10.9184 9.78887 10.8931 9.74516 10.8639L9.62299 10.7638L5.49987 6.6407L1.37674 10.7638C1.21963 10.9207 1.01303 10.9997 0.806984 10.9997C0.701194 10.9998 0.596156 10.9791 0.498408 10.9387C0.449402 10.9183 0.402203 10.8933 0.358338 10.8639L0.236171 10.7638C-0.0789559 10.4487 -0.0787784 9.93851 0.236171 9.62326L4.3593 5.50013L0.236171 1.37701C-0.0789739 1.06185 -0.0788043 0.551698 0.236171 0.236435C0.551419 -0.0788207 1.06135 -0.0787105 1.37674 0.236435L5.49987 4.35956L9.62299 0.236435Z" fill="#F14336"/>
</svg>
