<svg width="1392" height="976" viewBox="0 0 1392 976" fill="none" xmlns="http://www.w3.org/2000/svg">
<path d="M221.703 0C238.929 5.16656e-05 254.942 8.86711 264.083 23.4678L274.766 40.5322C283.906 55.1329 299.92 63.9999 317.146 64H1074.85C1092.08 63.9999 1108.09 55.1329 1117.23 40.5322L1127.92 23.4678C1137.06 8.86711 1153.07 5.39118e-05 1170.3 0H1362C1378.57 3.09245e-06 1392 13.4315 1392 30V946C1392 962.569 1378.57 976 1362 976H30C13.4315 976 3.2215e-07 962.569 0 946V30C0 13.4315 13.4315 2.89917e-07 30 0H221.703Z" fill="#DEE8FF"/>
</svg>
