<svg xmlns="http://www.w3.org/2000/svg" viewBox="0 0 900 600">
  <rect fill="#DE2910" width="900" height="600"/>
  <g fill="#FFF">
    <path d="M450,150c0,0-30,60-30,120c0,40,30,60,30,60s30-20,30-60C480,210,450,150,450,150z"/>
    <path d="M450,150c0,0-30,60-30,120c0,40,30,60,30,60s30-20,30-60C480,210,450,150,450,150z" transform="rotate(72,450,300)"/>
    <path d="M450,150c0,0-30,60-30,120c0,40,30,60,30,60s30-20,30-60C480,210,450,150,450,150z" transform="rotate(144,450,300)"/>
    <path d="M450,150c0,0-30,60-30,120c0,40,30,60,30,60s30-20,30-60C480,210,450,150,450,150z" transform="rotate(216,450,300)"/>
    <path d="M450,150c0,0-30,60-30,120c0,40,30,60,30,60s30-20,30-60C480,210,450,150,450,150z" transform="rotate(288,450,300)"/>
  </g>
</svg>
