<svg width="90" height="43" viewBox="0 0 90 43" fill="none" xmlns="http://www.w3.org/2000/svg">
<rect width="42.5" height="42.5" rx="21.25" fill="#212833" fill-opacity="0.13"/>
<path fill-rule="evenodd" clip-rule="evenodd" d="M19.6147 15.2287C19.4682 15.0823 19.2695 15 19.0623 15C18.8552 15 18.6565 15.0823 18.51 15.2287L13.0412 20.6975C12.8948 20.844 12.8125 21.0427 12.8125 21.2498C12.8125 21.457 12.8948 21.6557 13.0412 21.8022L18.51 27.2709C18.6573 27.4132 18.8547 27.492 19.0595 27.4902C19.2643 27.4884 19.4603 27.4063 19.6051 27.2614C19.75 27.1166 19.8322 26.9206 19.8339 26.7158C19.8357 26.5109 19.757 26.3136 19.6147 26.1662L15.4795 22.0311H27.6561C27.8633 22.0311 28.062 21.9488 28.2085 21.8023C28.355 21.6557 28.4373 21.457 28.4373 21.2498C28.4373 21.0426 28.355 20.8439 28.2085 20.6974C28.062 20.5509 27.8633 20.4686 27.6561 20.4686H15.4795L19.6147 16.3334C19.7611 16.1869 19.8434 15.9882 19.8434 15.7811C19.8434 15.5739 19.7611 15.3752 19.6147 15.2287Z" fill="#212833"/>
<rect width="42.5" height="42.5" rx="21.25" transform="matrix(-1 0 0 1 90 0)" fill="#004EFF"/>
<path fill-rule="evenodd" clip-rule="evenodd" d="M70.3853 15.2287C70.5318 15.0823 70.7305 15 70.9377 15C71.1448 15 71.3435 15.0823 71.49 15.2287L76.9588 20.6975C77.1052 20.844 77.1875 21.0427 77.1875 21.2498C77.1875 21.457 77.1052 21.6557 76.9588 21.8022L71.49 27.2709C71.3427 27.4132 71.1453 27.492 70.9405 27.4902C70.7357 27.4884 70.5397 27.4063 70.3949 27.2614C70.25 27.1166 70.1678 26.9206 70.1661 26.7158C70.1643 26.5109 70.243 26.3136 70.3853 26.1662L74.5205 22.0311H62.3439C62.1367 22.0311 61.938 21.9488 61.7915 21.8023C61.645 21.6557 61.5627 21.457 61.5627 21.2498C61.5627 21.0426 61.645 20.8439 61.7915 20.6974C61.938 20.5509 62.1367 20.4686 62.3439 20.4686H74.5205L70.3853 16.3334C70.2389 16.1869 70.1566 15.9882 70.1566 15.7811C70.1566 15.5739 70.2389 15.3752 70.3853 15.2287Z" fill="white"/>
</svg>
