<svg width="38" height="38" viewBox="0 0 38 38" fill="none" xmlns="http://www.w3.org/2000/svg">
<rect width="38" height="38" rx="19" fill="white"/>
<rect width="38" height="38" rx="19" fill="#DEE8FF"/>
<path d="M27.7352 18.5642C27.5026 18.3316 27.27 18.2541 26.96 18.2541L11.456 18.2541C10.8358 18.2541 10.3707 18.7192 10.3707 19.3394C10.3707 19.9595 10.8358 20.4246 11.456 20.4246L26.96 20.4246C27.5801 20.4246 28.0452 19.9595 28.0452 19.3394C28.0452 19.0293 27.9677 18.7967 27.7352 18.5642Z" fill="#004EFF"/>
<path d="M27.7352 18.5642L20.7584 11.5874C20.2933 11.1222 19.6731 11.1222 19.208 11.5874C18.7429 12.0525 18.7429 12.6726 19.208 13.1378L25.4096 19.3394L19.208 25.5409C18.7429 26.0061 18.7429 26.6262 19.208 27.0913C19.6731 27.5565 20.2933 27.5565 20.7584 27.0913L27.7352 20.1146C28.2003 19.6494 28.2003 19.0293 27.7352 18.5642Z" fill="#004EFF"/>
</svg>
