<svg width="24" height="24" viewBox="0 0 24 24" fill="none" xmlns="http://www.w3.org/2000/svg">
<g clip-path="url(#clip0_10_84)">
<path d="M5.31891 14.5035L4.4835 17.6222L1.43011 17.6868C0.517594 15.9943 0 14.0578 0 12C0 10.0101 0.483938 8.13364 1.34175 6.48134H1.34241L4.06078 6.97971L5.25159 9.68178C5.00236 10.4084 4.86652 11.1884 4.86652 12C4.86661 12.8809 5.02617 13.7249 5.31891 14.5035Z" fill="#FBBB00"/>
<path d="M23.7903 9.75827C23.9281 10.4842 24 11.2339 24 12C24 12.8591 23.9096 13.6972 23.7376 14.5055C23.1534 17.2563 21.627 19.6583 19.5125 21.3581L19.5119 21.3574L16.0879 21.1827L15.6034 18.1576C17.0064 17.3348 18.1029 16.0471 18.6805 14.5055H12.2638V9.75827H23.7903Z" fill="#518EF8"/>
<path d="M19.5119 21.3574L19.5125 21.3581C17.4561 23.011 14.8437 24 12 24C7.43011 24 3.45693 21.4458 1.43011 17.6869L5.3189 14.5036C6.33229 17.2082 8.94131 19.1335 12 19.1335C13.3147 19.1335 14.5464 18.7781 15.6033 18.1576L19.5119 21.3574Z" fill="#28B446"/>
<path d="M19.6596 2.76262L15.7721 5.94525C14.6783 5.26153 13.3853 4.86656 12 4.86656C8.87209 4.86656 6.21428 6.88017 5.25165 9.68175L1.34242 6.48131H1.34176C3.33892 2.63077 7.3622 0 12 0C14.9117 0 17.5813 1.03716 19.6596 2.76262Z" fill="#F14336"/>
</g>
<defs>
<clipPath id="clip0_10_84">
<rect width="23.4286" height="23.4286" fill="white" transform="scale(1.02439)"/>
</clipPath>
</defs>
</svg>
