<svg width="33" height="33" viewBox="0 0 33 33" fill="none" xmlns="http://www.w3.org/2000/svg">
<rect width="33" height="33" rx="16.4689" fill="#004EFF" fill-opacity="0.15"/>
<path d="M25.7275 9.91318C25.5998 9.78387 25.4477 9.6812 25.2801 9.61113C25.1124 9.54106 24.9325 9.50497 24.7507 9.50497C24.569 9.50497 24.3891 9.54106 24.2214 9.61113C24.0537 9.6812 23.9016 9.78387 23.7739 9.91318L13.5307 20.1722L9.22751 15.8545C9.06148 15.6936 8.85829 15.5762 8.63598 15.5128C8.41368 15.4493 8.17914 15.4417 7.95319 15.4907C7.72725 15.5397 7.5169 15.6437 7.34083 15.7935C7.16476 15.9433 7.02841 16.1343 6.94391 16.3495C6.84195 16.608 6.81888 16.8909 6.87761 17.1625C6.93635 17.4341 7.07425 17.6822 7.27391 17.8754L12.5539 23.1554C12.6817 23.2845 12.8339 23.387 13.0015 23.4569C13.1692 23.5268 13.3491 23.5628 13.5307 23.5628C13.7124 23.5628 13.8922 23.5268 14.0599 23.4569C14.2275 23.387 14.3797 23.2845 14.5075 23.1554L25.7275 11.9354C25.8671 11.8067 25.9784 11.6504 26.0546 11.4765C26.1308 11.3026 26.1701 11.1148 26.1701 10.925C26.1701 10.7351 26.1308 10.5473 26.0546 10.3734C25.9784 10.1995 25.8671 10.0432 25.7275 9.9145V9.91318Z" fill="#004EFF"/>
</svg>
