<svg width="33" height="33" viewBox="0 0 33 33" fill="none" xmlns="http://www.w3.org/2000/svg">
<rect width="32.9999" height="32.9999" rx="16.4644" fill="#004EFF" fill-opacity="0.15"/>
<path d="M25.7262 9.91304C25.5985 9.78373 25.4464 9.68107 25.2787 9.61099C25.111 9.54092 24.9311 9.50484 24.7494 9.50484C24.5677 9.50484 24.3877 9.54092 24.2201 9.61099C24.0524 9.68107 23.9003 9.78373 23.7726 9.91304L13.5294 20.1721L9.22622 15.8543C9.06019 15.6935 8.857 15.5761 8.6347 15.5126C8.41239 15.4491 8.17785 15.4415 7.95191 15.4905C7.72597 15.5395 7.51562 15.6435 7.33955 15.7933C7.16347 15.9432 7.02713 16.1342 6.94263 16.3493C6.84067 16.6078 6.8176 16.8907 6.87633 17.1623C6.93507 17.4339 7.07297 17.682 7.27262 17.8753L12.5526 23.1553C12.6804 23.2843 12.8326 23.3868 13.0002 23.4567C13.1679 23.5266 13.3478 23.5626 13.5294 23.5626C13.7111 23.5626 13.8909 23.5266 14.0586 23.4567C14.2262 23.3868 14.3784 23.2843 14.5062 23.1553L25.7262 11.9353C25.8657 11.8065 25.9771 11.6503 26.0533 11.4764C26.1294 11.3025 26.1688 11.1147 26.1688 10.9248C26.1688 10.735 26.1294 10.5472 26.0533 10.3733C25.9771 10.1993 25.8657 10.0431 25.7262 9.91436V9.91304Z" fill="#004EFF"/>
</svg>
