<svg width="401" height="401" viewBox="0 0 401 401" fill="none" xmlns="http://www.w3.org/2000/svg">
<g clip-path="url(#clip0_0_78)">
<mask id="path-2-inside-1_0_78" fill="white">
<path d="M375.436 0C389.444 0 400.801 11.3565 400.801 25.365V375.635C400.801 389.643 389.444 401 375.436 401H25.1656C11.1571 401 -0.199401 389.643 -0.199401 375.635V25.365C-0.199401 11.3565 11.1571 0 25.1656 0H127.061C138.384 0 147.715 8.88609 148.268 20.1962C148.821 31.5063 158.152 40.3924 169.476 40.3924H231.796C243.12 40.3924 252.451 31.5063 253.004 20.1962C253.556 8.88609 262.887 0 274.211 0H375.436Z"/>
</mask>
<path d="M375.436 0C389.444 0 400.801 11.3565 400.801 25.365V375.635C400.801 389.643 389.444 401 375.436 401H25.1656C11.1571 401 -0.199401 389.643 -0.199401 375.635V25.365C-0.199401 11.3565 11.1571 0 25.1656 0H127.061C138.384 0 147.715 8.88609 148.268 20.1962C148.821 31.5063 158.152 40.3924 169.476 40.3924H231.796C243.12 40.3924 252.451 31.5063 253.004 20.1962C253.556 8.88609 262.887 0 274.211 0H375.436Z" fill="white"/>
<path d="M375.436 0V2.53646C388.043 2.53646 398.264 12.7574 398.264 25.365H400.801H403.337C403.337 9.95566 390.845 -2.53646 375.436 -2.53646V0ZM400.801 25.365H398.264V375.635H400.801H403.337V25.365H400.801ZM400.801 375.635H398.264C398.264 388.243 388.043 398.464 375.436 398.464V401V403.536C390.845 403.536 403.337 391.044 403.337 375.635H400.801ZM375.436 401V398.464H25.1656V401V403.536H375.436V401ZM25.1656 401V398.464C12.558 398.464 2.33706 388.243 2.33706 375.635H-0.199401H-2.73586C-2.73586 391.044 9.75626 403.536 25.1656 403.536V401ZM-0.199401 375.635H2.33706V25.365H-0.199401H-2.73586V375.635H-0.199401ZM-0.199401 25.365H2.33706C2.33706 12.7574 12.558 2.53646 25.1656 2.53646V0V-2.53646C9.75626 -2.53646 -2.73586 9.95566 -2.73586 25.365H-0.199401ZM25.1656 0V2.53646H127.061V0V-2.53646H25.1656V0ZM169.476 40.3924V42.9288H231.796V40.3924V37.8559H169.476V40.3924ZM274.211 0V2.53646H375.436V0V-2.53646H274.211V0ZM253.004 20.1962L255.537 20.32C256.024 10.361 264.24 2.53646 274.211 2.53646V0V-2.53646C261.535 -2.53646 251.089 7.41116 250.47 20.0723L253.004 20.1962ZM231.796 40.3924V42.9288C244.472 42.9288 254.918 32.9812 255.537 20.32L253.004 20.1962L250.47 20.0723C249.983 30.0313 241.767 37.8559 231.796 37.8559V40.3924ZM148.268 20.1962L145.735 20.32C146.354 32.9812 156.799 42.9288 169.476 42.9288V40.3924V37.8559C159.505 37.8559 151.288 30.0313 150.802 20.0723L148.268 20.1962ZM127.061 0V2.53646C137.032 2.53646 145.248 10.361 145.735 20.32L148.268 20.1962L150.802 20.0723C150.183 7.41116 139.737 -2.53646 127.061 -2.53646V0Z" fill="#D7E3FF" mask="url(#path-2-inside-1_0_78)"/>
<g filter="url(#filter0_f_0_78)">
<circle cx="174.916" cy="728.094" r="311.786" transform="rotate(-31.5276 174.916 728.094)" fill="url(#paint0_linear_0_78)"/>
</g>
<g filter="url(#filter1_f_0_78)">
<circle cx="174.916" cy="728.094" r="311.786" transform="rotate(-31.5276 174.916 728.094)" fill="url(#paint1_linear_0_78)"/>
</g>
</g>
<defs>
<filter id="filter0_f_0_78" x="-262.3" y="290.878" width="874.432" height="874.432" filterUnits="userSpaceOnUse" color-interpolation-filters="sRGB">
<feFlood flood-opacity="0" result="BackgroundImageFix"/>
<feBlend mode="normal" in="SourceGraphic" in2="BackgroundImageFix" result="shape"/>
<feGaussianBlur stdDeviation="62.6359" result="effect1_foregroundBlur_0_78"/>
</filter>
<filter id="filter1_f_0_78" x="-262.3" y="290.878" width="874.432" height="874.432" filterUnits="userSpaceOnUse" color-interpolation-filters="sRGB">
<feFlood flood-opacity="0" result="BackgroundImageFix"/>
<feBlend mode="normal" in="SourceGraphic" in2="BackgroundImageFix" result="shape"/>
<feGaussianBlur stdDeviation="62.6359" result="effect1_foregroundBlur_0_78"/>
</filter>
<linearGradient id="paint0_linear_0_78" x1="222.767" y1="382.249" x2="69.3986" y2="528.061" gradientUnits="userSpaceOnUse">
<stop stop-color="#004EFF"/>
<stop offset="1" stop-color="#DEE8FF" stop-opacity="0"/>
</linearGradient>
<linearGradient id="paint1_linear_0_78" x1="222.767" y1="382.249" x2="69.3986" y2="528.061" gradientUnits="userSpaceOnUse">
<stop stop-color="#004EFF"/>
<stop offset="1" stop-color="#DEE8FF" stop-opacity="0"/>
</linearGradient>
<clipPath id="clip0_0_78">
<rect width="401" height="401" rx="24.7" fill="white"/>
</clipPath>
</defs>
</svg>
