<svg width="100" height="16" viewBox="0 0 100 16" fill="none" xmlns="http://www.w3.org/2000/svg">
<g clip-path="url(#clip0_10_91)">
<path fill-rule="evenodd" clip-rule="evenodd" d="M8.82349 0.457593L10.8299 4.72595L15.5095 5.30937C15.9427 5.3652 16.2598 5.76503 16.2041 6.19856C16.176 6.40985 16.0705 6.59302 15.9205 6.72121L12.5141 9.91121L13.4032 14.5462C13.4863 14.9797 13.2031 15.3965 12.7694 15.4798C12.5806 15.513 12.3917 15.4798 12.236 15.3909L8.10093 13.1179L3.97192 15.3909C3.58304 15.6075 3.09947 15.4632 2.8884 15.0795C2.7937 14.9073 2.77159 14.7183 2.80509 14.5462L3.68848 9.91121L0.248746 6.68214C-0.068407 6.38194 -0.0851558 5.87647 0.215034 5.55953C0.348381 5.41502 0.521022 5.33729 0.698602 5.31496V5.30937L5.37795 4.72595L7.38416 0.457593C7.56776 0.0575552 8.04037 -0.109074 8.4402 0.074304C8.61799 0.157618 8.74597 0.296547 8.82349 0.457593Z" fill="url(#paint0_linear_10_91)"/>
</g>
<g clip-path="url(#clip1_10_91)">
<path fill-rule="evenodd" clip-rule="evenodd" d="M29.3949 0.457593L31.4013 4.72595L36.0809 5.30937C36.5142 5.3652 36.8312 5.76503 36.7755 6.19856C36.7474 6.40985 36.6419 6.59302 36.4919 6.72121L33.0855 9.91121L33.9746 14.5462C34.0577 14.9797 33.7745 15.3965 33.3408 15.4798C33.152 15.513 32.9631 15.4798 32.8074 15.3909L28.6723 13.1179L24.5433 15.3909C24.1545 15.6075 23.6709 15.4632 23.4598 15.0795C23.3651 14.9073 23.343 14.7183 23.3765 14.5462L24.2599 9.91121L20.8202 6.68214C20.503 6.38194 20.4863 5.87647 20.7864 5.55953C20.9198 5.41502 21.0924 5.33729 21.27 5.31496V5.30937L25.9494 4.72595L27.9556 0.457593C28.1392 0.0575552 28.6118 -0.109074 29.0116 0.074304C29.1894 0.157618 29.3174 0.296547 29.3949 0.457593Z" fill="url(#paint1_linear_10_91)"/>
</g>
<g clip-path="url(#clip2_10_91)">
<path fill-rule="evenodd" clip-rule="evenodd" d="M49.9664 0.457593L51.9728 4.72595L56.6524 5.30937C57.0856 5.3652 57.4027 5.76503 57.347 6.19856C57.3189 6.40985 57.2134 6.59302 57.0633 6.72121L53.6569 9.91121L54.5461 14.5462C54.6292 14.9797 54.346 15.3965 53.9123 15.4798C53.7235 15.513 53.5345 15.4798 53.3789 15.3909L49.2438 13.1179L45.1148 15.3909C44.7259 15.6075 44.2424 15.4632 44.0313 15.0795C43.9366 14.9073 43.9145 14.7183 43.948 14.5462L44.8314 9.91121L41.3916 6.68214C41.0745 6.38194 41.0577 5.87647 41.3579 5.55953C41.4913 5.41502 41.6639 5.33729 41.8415 5.31496V5.30937L46.5208 4.72595L48.527 0.457593C48.7106 0.0575552 49.1832 -0.109074 49.5831 0.074304C49.7609 0.157618 49.8888 0.296547 49.9664 0.457593Z" fill="url(#paint2_linear_10_91)"/>
</g>
<g clip-path="url(#clip3_10_91)">
<path fill-rule="evenodd" clip-rule="evenodd" d="M70.5378 0.457593L72.5442 4.72595L77.2238 5.30937C77.657 5.3652 77.9741 5.76503 77.9184 6.19856C77.8903 6.40985 77.7848 6.59302 77.6348 6.72121L74.2284 9.91121L75.1175 14.5462C75.2006 14.9797 74.9174 15.3965 74.4837 15.4798C74.2949 15.513 74.106 15.4798 73.9503 15.3909L69.8152 13.1179L65.6862 15.3909C65.2973 15.6075 64.8138 15.4632 64.6027 15.0795C64.508 14.9073 64.4859 14.7183 64.5194 14.5462L65.4028 9.91121L61.963 6.68214C61.6459 6.38194 61.6291 5.87647 61.9293 5.55953C62.0627 5.41502 62.2353 5.33729 62.4129 5.31496V5.30937L67.0922 4.72595L69.0985 0.457593C69.2821 0.0575552 69.7547 -0.109074 70.1545 0.074304C70.3323 0.157618 70.4603 0.296547 70.5378 0.457593Z" fill="url(#paint3_linear_10_91)"/>
</g>
<g clip-path="url(#clip4_10_91)">
<path fill-rule="evenodd" clip-rule="evenodd" d="M91.1092 0.457593L93.1156 4.72595L97.7952 5.30937C98.2284 5.3652 98.5455 5.76503 98.4898 6.19856C98.4617 6.40985 98.3562 6.59302 98.2062 6.72121L94.7998 9.91121L95.6889 14.5462C95.772 14.9797 95.4888 15.3965 95.0551 15.4798C94.8663 15.513 94.6774 15.4798 94.5217 15.3909L90.3866 13.1179L86.2576 15.3909C85.8687 15.6075 85.3852 15.4632 85.1741 15.0795C85.0794 14.9073 85.0573 14.7183 85.0908 14.5462L85.9742 9.91121L82.5345 6.68214C82.2173 6.38194 82.2005 5.87647 82.5007 5.55953C82.6341 5.41502 82.8067 5.33729 82.9843 5.31496V5.30937L87.6637 4.72595L89.6699 0.457593C89.8535 0.0575552 90.3261 -0.109074 90.7259 0.074304C90.9037 0.157618 91.0317 0.296547 91.1092 0.457593Z" fill="url(#paint4_linear_10_91)"/>
</g>
<defs>
<linearGradient id="paint0_linear_10_91" x1="0" y1="-2.1213e-10" x2="0" y2="15.4925" gradientUnits="userSpaceOnUse">
<stop stop-color="#FBD249"/>
<stop offset="1" stop-color="#F5A623"/>
</linearGradient>
<linearGradient id="paint1_linear_10_91" x1="20.5714" y1="-2.1213e-10" x2="20.5714" y2="15.4925" gradientUnits="userSpaceOnUse">
<stop stop-color="#FBD249"/>
<stop offset="1" stop-color="#F5A623"/>
</linearGradient>
<linearGradient id="paint2_linear_10_91" x1="41.1429" y1="-2.1213e-10" x2="41.1429" y2="15.4925" gradientUnits="userSpaceOnUse">
<stop stop-color="#FBD249"/>
<stop offset="1" stop-color="#F5A623"/>
</linearGradient>
<linearGradient id="paint3_linear_10_91" x1="61.7143" y1="-2.1213e-10" x2="61.7143" y2="15.4925" gradientUnits="userSpaceOnUse">
<stop stop-color="#FBD249"/>
<stop offset="1" stop-color="#F5A623"/>
</linearGradient>
<linearGradient id="paint4_linear_10_91" x1="82.2857" y1="-2.1213e-10" x2="82.2857" y2="15.4925" gradientUnits="userSpaceOnUse">
<stop stop-color="#FBD249"/>
<stop offset="1" stop-color="#F5A623"/>
</linearGradient>
<clipPath id="clip0_10_91">
<rect width="17.1429" height="16" fill="white"/>
</clipPath>
<clipPath id="clip1_10_91">
<rect width="17.1429" height="16" fill="white" transform="translate(20.5714)"/>
</clipPath>
<clipPath id="clip2_10_91">
<rect width="17.1429" height="16" fill="white" transform="translate(41.1429)"/>
</clipPath>
<clipPath id="clip3_10_91">
<rect width="17.1429" height="16" fill="white" transform="translate(61.7143)"/>
</clipPath>
<clipPath id="clip4_10_91">
<rect width="17.1429" height="16" fill="white" transform="translate(82.2857)"/>
</clipPath>
</defs>
</svg>
