<svg width="109" height="87" viewBox="0 0 109 87" fill="none" xmlns="http://www.w3.org/2000/svg">
<g filter="url(#filter0_d_171_320)">
<path d="M35 11C27.268 11 21 17.268 21 25V42C21 49.732 27.268 56 35 56H60C66.7524 56 72.3884 51.2196 73.708 44.8584L87.5 34L73.8965 23.2891C73.0527 16.3641 67.1528 11 60 11H35Z" fill="url(#paint0_linear_171_320)"/>
<path d="M44.5001 24H53.5001C54.0305 24 54.5392 24.2107 54.9143 24.5858C55.2893 24.9609 55.5001 25.4696 55.5001 26V42C55.5001 42.5304 55.2893 43.0391 54.9143 43.4142C54.5392 43.7893 54.0305 44 53.5001 44H41.5001C40.9696 44 40.4609 43.7893 40.0858 43.4142C39.7108 43.0391 39.5001 42.5304 39.5001 42V29L44.5001 24Z" stroke="white" stroke-width="1.33" stroke-linecap="round" stroke-linejoin="round"/>
<path d="M45.4999 24V28C45.4999 28.5304 45.2892 29.0391 44.9142 29.4142C44.5391 29.7893 44.0304 30 43.4999 30H39.4999" stroke="white" stroke-width="1.33" stroke-linecap="round" stroke-linejoin="round"/>
<path d="M49.4999 31H51.4999" stroke="white" stroke-width="1.33" stroke-linecap="round" stroke-linejoin="round"/>
<path d="M43.4999 35H51.4999" stroke="white" stroke-width="1.33" stroke-linecap="round" stroke-linejoin="round"/>
<path d="M43.4999 39H51.4999" stroke="white" stroke-width="1.33" stroke-linecap="round" stroke-linejoin="round"/>
</g>
<defs>
<filter id="filter0_d_171_320" x="-0.5" y="-2" width="115" height="94" filterUnits="userSpaceOnUse" color-interpolation-filters="sRGB">
<feFlood flood-opacity="0" result="BackgroundImageFix"/>
<feColorMatrix in="SourceAlpha" type="matrix" values="0 0 0 0 0 0 0 0 0 0 0 0 0 0 0 0 0 0 127 0" result="hardAlpha"/>
<feOffset dy="10"/>
<feGaussianBlur stdDeviation="10.5"/>
<feComposite in2="hardAlpha" operator="out"/>
<feColorMatrix type="matrix" values="0 0 0 0 0 0 0 0 0 0.306122 0 0 0 0 1 0 0 0 0.51 0"/>
<feBlend mode="normal" in2="BackgroundImageFix" result="effect1_dropShadow_171_320"/>
<feBlend mode="normal" in="SourceGraphic" in2="effect1_dropShadow_171_320" result="shape"/>
</filter>
<linearGradient id="paint0_linear_171_320" x1="108" y1="13.5776" x2="51.6094" y2="87.1277" gradientUnits="userSpaceOnUse">
<stop stop-color="#6896FF"/>
<stop offset="1" stop-color="#004EFF"/>
</linearGradient>
</defs>
</svg>
