<svg width="176" height="30" viewBox="0 0 176 30" fill="none" xmlns="http://www.w3.org/2000/svg">
<g clip-path="url(#clip0_0_258)">
<path d="M0 29.9998V8.55156L8.36688 0.00124981H10.4925V8.88314L2.48745 17.1019V18.8972L2.5779 18.8027L21.0292 -0.000488281H23.2V8.8814L15.1972 17.1019V18.8972C16.9452 17.1013 18.9197 15.0856 21.1207 12.8502C23.3217 10.6147 25.5453 8.34703 27.7915 6.04705C30.0376 3.74764 32.005 1.73189 33.6937 -0.000198599H35.8645V8.88169L27.8595 17.1019V18.8972L35.8645 10.7236V21.8245L27.8595 29.9998H25.372V19.6061L15.1972 29.9998H12.7086V19.6061L2.48745 29.9998H0Z" fill="url(#paint0_linear_0_258)"/>
<path d="M66.4722 23.9825V5.50684H63.4346L56.1895 21.3113H56.1362L48.971 5.50684H45.9611V23.9825H47.8789V7.73282H47.9322L55.3105 23.9825H56.9619L64.4468 7.56587H64.5V23.9825H66.4722ZM81.655 23.9825V10.9883H79.8704V17.6662C79.8704 20.727 78.2722 22.5912 75.7151 22.5912C73.3711 22.5912 71.9327 21.0052 71.9327 18.2784V10.9883H70.147V18.501C70.147 22.0904 72.1169 24.2607 75.3411 24.2607C77.5252 24.2607 79.1234 23.3147 80.0024 21.6452H80.0557L80.1356 23.9825H81.655ZM92.1764 21.84H92.0965C91.8545 22.0962 91.5631 22.2957 91.2416 22.4253C90.9201 22.5548 90.5759 22.6114 90.2319 22.5912C88.8202 22.5912 87.9412 21.5895 87.9412 19.8922V12.6021H92.1231V10.9883H87.9401V7.51022H86.5017L86.2087 10.9883H83.7582V12.6021H86.1554V19.9479C86.1554 22.7014 87.5405 24.2607 90.0177 24.2607C90.7666 24.2957 91.511 24.1229 92.1753 23.7599L92.1764 21.84ZM106.773 18.0558V16.9706C106.773 13.1865 104.296 10.7101 100.46 10.7101C96.6513 10.7101 93.9876 13.5215 93.9876 17.4993C93.9865 21.5895 96.7834 24.2607 101.125 24.2607C103.095 24.2607 104.828 23.6764 105.946 22.6469V20.727H105.866C104.641 21.9791 103.07 22.5912 101.177 22.5912C98.0874 22.5912 96.0364 20.8383 95.7967 18.0558H106.773ZM100.486 12.3795C103.096 12.3795 104.881 13.9656 105.119 16.442H95.7967C96.1974 14.0212 98.0353 12.3795 100.486 12.3795ZM117.666 9.1797H122.914V5.50684H108.45V9.1797H113.724V23.9825H117.666V9.1797ZM135.3 23.9825V10.9048H132.397L132.264 12.6021H132.211C131.412 11.35 130 10.6266 128.162 10.6266C124.619 10.6266 122.036 13.4925 122.036 17.4437C122.036 21.3948 124.618 24.2607 128.161 24.2607C130.026 24.2607 131.411 23.5094 132.236 22.2295H132.29L132.397 23.9825H135.3ZM128.747 21.033C126.856 21.033 125.551 19.5583 125.551 17.4437C125.551 15.329 126.855 13.8543 128.747 13.8543C130.612 13.8543 131.917 15.329 131.917 17.4437C131.917 19.5583 130.612 21.033 128.747 21.033ZM144.063 19.5862L146.886 23.9825H151.095L146.381 17.2489L150.829 10.9048H146.805L144.248 14.8838L141.665 10.9048H137.457L141.932 17.2489L137.191 23.9825H141.24L144.063 19.5862ZM164.2 18.3619V16.8872C164.2 13.0473 161.776 10.6266 157.887 10.6266C154.078 10.6266 151.361 13.438 151.361 17.4437C151.361 21.4782 154.372 24.2607 158.793 24.2607C160.737 24.2607 162.415 23.8155 163.454 23.0364V19.5293H163.321C162.309 20.5589 160.764 21.1154 158.953 21.1154C156.795 21.1154 155.25 20.1415 154.877 18.3619H164.2ZM157.994 13.7708C159.645 13.7708 160.817 14.5777 161.057 16.1637H154.877C155.224 14.6334 156.502 13.7708 157.994 13.7708ZM171.232 10.6266C168.062 10.6266 166.011 12.3239 166.011 14.9672C166.011 17.5549 167.263 18.5566 170.433 18.8627C172.191 19.0297 172.724 19.3079 172.724 20.0035C172.724 20.8383 172.058 21.2556 170.698 21.2556C168.754 21.2556 167.262 20.6991 166.277 19.5862H166.117V23.0932C167.183 23.8712 168.782 24.2607 170.859 24.2607C174.082 24.2607 176 22.6747 176 20.0035C176 17.25 174.696 16.0246 171.366 15.8008C169.715 15.6895 169.289 15.4391 169.289 14.8548C169.289 14.0479 169.955 13.6305 171.314 13.6305C172.939 13.6305 174.218 14.0757 175.043 14.9383H175.176V11.4602C174.189 10.9327 172.75 10.6266 171.232 10.6266Z" fill="white"/>
</g>
<defs>
<linearGradient id="paint0_linear_0_258" x1="-4.09904e-07" y1="8.50002" x2="38.3376" y2="34.005" gradientUnits="userSpaceOnUse">
<stop stop-color="#6896FF"/>
<stop offset="1" stop-color="#004EFF"/>
</linearGradient>
<clipPath id="clip0_0_258">
<rect width="176" height="30" fill="white"/>
</clipPath>
</defs>
</svg>
