<svg width="260" height="185" viewBox="0 0 260 185" fill="none" xmlns="http://www.w3.org/2000/svg">
<mask id="path-1-inside-1_54_1680" fill="white">
<path d="M241.53 0C251.731 0.000117514 260 8.26913 260 18.4697V166.529C260 176.73 251.731 185 241.53 185H18.4697C8.26916 185 0 176.73 0 166.529V61.5657C0 51.365 8.2693 43.0957 18.47 43.0957H28.5525C38.3155 43.0957 46.3923 35.4976 46.988 25.7528L47.5022 17.3429C48.098 7.5981 56.1748 0 65.9378 0H241.53Z"/>
</mask>
<path d="M241.53 0C251.731 0.000117514 260 8.26913 260 18.4697V166.529C260 176.73 251.731 185 241.53 185H18.4697C8.26916 185 0 176.73 0 166.529V61.5657C0 51.365 8.2693 43.0957 18.47 43.0957H28.5525C38.3155 43.0957 46.3923 35.4976 46.988 25.7528L47.5022 17.3429C48.098 7.5981 56.1748 0 65.9378 0H241.53Z" fill="white"/>
<path d="M241.53 0L241.53 -1.84699H241.53V0ZM241.53 185V186.847H241.53L241.53 185ZM18.4697 185L18.4697 186.847H18.4697V185ZM47.5022 17.3429L45.6586 17.2302L47.5022 17.3429ZM241.53 0L241.53 1.84699C250.711 1.8471 258.153 9.28922 258.153 18.4697H260H261.847C261.847 7.24904 252.751 -1.84687 241.53 -1.84699L241.53 0ZM260 18.4697H258.153V166.529H260H261.847V18.4697H260ZM260 166.529H258.153C258.153 175.71 250.711 183.153 241.53 183.153L241.53 185L241.53 186.847C252.751 186.847 261.847 177.75 261.847 166.529H260ZM241.53 185V183.153H18.4697V185V186.847H241.53V185ZM18.4697 185L18.4697 183.153C9.28934 183.153 1.84699 175.71 1.84699 166.529H0H-1.84699C-1.84699 177.75 7.24898 186.847 18.4697 186.847L18.4697 185ZM0 166.529H1.84699V61.5657H0H-1.84699V166.529H0ZM18.47 43.0957V44.9427H28.5525V43.0957V41.2487H18.47V43.0957ZM46.988 25.7528L48.8316 25.8655L49.3457 17.4556L47.5022 17.3429L45.6586 17.2302L45.1445 25.6401L46.988 25.7528ZM65.9378 0V1.84699H241.53V0V-1.84699H65.9378V0ZM47.5022 17.3429L49.3457 17.4556C49.8819 8.68529 57.1511 1.84699 65.9378 1.84699V0V-1.84699C55.1985 -1.84699 46.314 6.51091 45.6586 17.2302L47.5022 17.3429ZM28.5525 43.0957V44.9427C39.2918 44.9427 48.1762 36.5848 48.8316 25.8655L46.988 25.7528L45.1445 25.6401C44.6083 34.4104 37.3392 41.2487 28.5525 41.2487V43.0957ZM0 61.5657H1.84699C1.84699 52.3851 9.28937 44.9427 18.47 44.9427V43.0957V41.2487C7.24923 41.2487 -1.84699 50.3449 -1.84699 61.5657H0Z" fill="#D7E3FF" mask="url(#path-1-inside-1_54_1680)"/>
</svg>
