<svg width="1226" height="487" viewBox="0 0 1226 487" fill="none" xmlns="http://www.w3.org/2000/svg">
<mask id="path-1-inside-1_0_153" fill="white">
<path d="M1206 0C1217.05 0 1226 8.9543 1226 20V467C1226 478.046 1217.05 487 1206 487H20C8.95431 487 0 478.046 0 467V20C4.12325e-06 8.95431 8.95431 0 20 0H228.57C243.97 0 254.952 18.9445 260.182 33.4298C260.732 34.9516 261.381 36.4648 262.134 37.9629L263.139 39.9639C269.929 53.4737 283.758 61.9999 298.878 62H927.122C942.242 61.9999 956.071 53.4738 962.861 39.9639L963.866 37.9639C964.619 36.4655 965.269 34.952 965.818 33.4299C971.048 18.9444 982.03 0 997.43 0H1206Z"/>
</mask>
<path d="M1206 0C1217.05 0 1226 8.9543 1226 20V467C1226 478.046 1217.05 487 1206 487H20C8.95431 487 0 478.046 0 467V20C4.12325e-06 8.95431 8.95431 0 20 0H228.57C243.97 0 254.952 18.9445 260.182 33.4298C260.732 34.9516 261.381 36.4648 262.134 37.9629L263.139 39.9639C269.929 53.4737 283.758 61.9999 298.878 62H927.122C942.242 61.9999 956.071 53.4738 962.861 39.9639L963.866 37.9639C964.619 36.4655 965.269 34.952 965.818 33.4299C971.048 18.9444 982.03 0 997.43 0H1206Z" fill="white"/>
<path d="M0 20H-2H0ZM262.134 37.9629L263.921 37.0653L263.921 37.0647L262.134 37.9629ZM263.139 39.9639L261.351 40.8614L261.352 40.8621L263.139 39.9639ZM298.878 62L298.878 64H298.878V62ZM927.122 62V64V62ZM962.861 39.9639L964.648 40.8621L964.648 40.8618L962.861 39.9639ZM963.866 37.9639L962.079 37.0657L962.079 37.066L963.866 37.9639ZM965.818 33.4299L963.937 32.7507L965.818 33.4299ZM1206 0V2C1215.94 2 1224 10.0589 1224 20H1226H1228C1228 7.84974 1218.15 -2 1206 -2V0ZM1226 20H1224V467H1226H1228V20H1226ZM1226 467H1224C1224 476.941 1215.94 485 1206 485V487V489C1218.15 489 1228 479.15 1228 467H1226ZM1206 487V485H20V487V489H1206V487ZM20 487V485C10.0589 485 2 476.941 2 467H0H-2C-2 479.15 7.84974 489 20 489V487ZM0 467H2V20H0H-2V467H0ZM0 20H2C2 10.0589 10.0589 2 20 2V0V-2C7.84974 -2 -2 7.84974 -2 20H0ZM20 0V2H228.57V0V-2H20V0ZM260.182 33.4298L258.301 34.109C258.878 35.7059 259.558 37.2922 260.347 38.861L262.134 37.9629L263.921 37.0647C263.203 35.6374 262.586 34.1973 262.063 32.7506L260.182 33.4298ZM262.134 37.9629L260.346 38.8605L261.351 40.8614L263.139 39.9639L264.926 39.0663L263.921 37.0653L262.134 37.9629ZM263.139 39.9639L261.352 40.8621C268.482 55.0475 283.001 63.9998 298.878 64L298.878 62L298.878 60C284.514 59.9999 271.377 51.9 264.926 39.0657L263.139 39.9639ZM298.878 62V64H927.122V62V60H298.878V62ZM927.122 62V64C942.999 63.9998 957.518 55.0475 964.648 40.8621L962.861 39.9639L961.074 39.0657C954.623 51.9001 941.487 59.9999 927.122 60V62ZM962.861 39.9639L964.648 40.8618L965.653 38.8618L963.866 37.9639L962.079 37.066L961.074 39.066L962.861 39.9639ZM963.866 37.9639L965.653 38.862C966.442 37.2929 967.123 35.7063 967.699 34.109L965.818 33.4299L963.937 32.7507C963.415 34.1977 962.797 35.6381 962.079 37.0657L963.866 37.9639ZM997.43 0V2H1206V0V-2H997.43V0ZM965.818 33.4299L967.699 34.109C970.268 26.9934 974.227 18.8591 979.362 12.5448C984.522 6.19977 990.606 2 997.43 2V0V-2C988.854 -2 981.747 3.27243 976.258 10.021C970.745 16.8002 966.598 25.3809 963.937 32.7507L965.818 33.4299ZM228.57 0V2C235.394 2 241.478 6.19979 246.638 12.5448C251.773 18.8592 255.732 26.9935 258.301 34.109L260.182 33.4298L262.063 32.7506C259.402 25.3809 255.255 16.8002 249.742 10.021C244.253 3.27246 237.146 -2 228.57 -2V0Z" fill="#D9E5FF" mask="url(#path-1-inside-1_0_153)"/>
</svg>
