<svg width="390" height="347" viewBox="0 0 390 347" fill="none" xmlns="http://www.w3.org/2000/svg">
<mask id="path-1-inside-1_163_431" fill="white">
<path d="M365.318 0C378.788 0 389.708 10.9201 389.708 24.3907V322.61C389.708 336.081 378.788 347 365.318 347H24.3907C10.9203 347 0.000257925 336.081 0 322.61V24.3907C0 10.9201 10.9201 0 24.3907 0H119.405C132.413 0 143.132 10.2077 143.767 23.1999L143.986 27.6826C144.621 40.6748 155.34 50.8825 168.347 50.8825H220.708C233.715 50.8825 244.434 40.6751 245.069 27.6831L245.288 23.1994C245.924 10.2074 256.642 0 269.65 0H365.318Z"/>
</mask>
<path d="M365.318 0C378.788 0 389.708 10.9201 389.708 24.3907V322.61C389.708 336.081 378.788 347 365.318 347H24.3907C10.9203 347 0.000257925 336.081 0 322.61V24.3907C0 10.9201 10.9201 0 24.3907 0H119.405C132.413 0 143.132 10.2077 143.767 23.1999L143.986 27.6826C144.621 40.6748 155.34 50.8825 168.347 50.8825H220.708C233.715 50.8825 244.434 40.6751 245.069 27.6831L245.288 23.1994C245.924 10.2074 256.642 0 269.65 0H365.318Z" fill="white"/>
<path d="M389.708 322.61L392.147 322.61V322.61H389.708ZM0 322.61H-2.43906V322.61L0 322.61ZM245.288 23.1994L242.852 23.0803L245.288 23.1994ZM143.986 27.6826L146.422 27.5635L143.986 27.6826ZM143.767 23.1999L141.331 23.3189L143.767 23.1999ZM365.318 0V2.43906C377.441 2.43906 387.269 12.2672 387.269 24.3907H389.708H392.147C392.147 9.57305 380.135 -2.43906 365.318 -2.43906V0ZM389.708 24.3907H387.269V322.61H389.708H392.147V24.3907H389.708ZM389.708 322.61L387.269 322.61C387.269 334.734 377.441 344.561 365.318 344.561V347V349.439C380.135 349.439 392.147 337.428 392.147 322.61L389.708 322.61ZM365.318 347V344.561H24.3907V347V349.439H365.318V347ZM24.3907 347V344.561C12.2672 344.561 2.43929 334.734 2.43906 322.61L0 322.61L-2.43906 322.61C-2.43878 337.428 9.57329 349.439 24.3907 349.439V347ZM0 322.61H2.43906V24.3907H0H-2.43906V322.61H0ZM0 24.3907H2.43906C2.43906 12.2672 12.2672 2.43906 24.3907 2.43906V0V-2.43906C9.57305 -2.43906 -2.43906 9.57305 -2.43906 24.3907H0ZM24.3907 0V2.43906H119.405V0V-2.43906H24.3907V0ZM143.767 23.1999L141.331 23.3189L141.55 27.8017L143.986 27.6826L146.422 27.5635L146.203 23.0808L143.767 23.1999ZM168.347 50.8825V53.3215H220.708V50.8825V48.4434H168.347V50.8825ZM245.069 27.6831L247.505 27.8022L247.725 23.3185L245.288 23.1994L242.852 23.0803L242.633 27.564L245.069 27.6831ZM269.65 0V2.43906H365.318V0V-2.43906H269.65V0ZM245.288 23.1994L247.725 23.3185C248.296 11.6257 257.943 2.43906 269.65 2.43906V0V-2.43906C255.342 -2.43906 243.551 8.78909 242.852 23.0803L245.288 23.1994ZM220.708 50.8825V53.3215C235.016 53.3215 246.807 42.0934 247.505 27.8022L245.069 27.6831L242.633 27.564C242.061 39.2567 232.414 48.4434 220.708 48.4434V50.8825ZM143.986 27.6826L141.55 27.8017C142.248 42.0931 154.039 53.3215 168.347 53.3215V50.8825V48.4434C156.641 48.4434 146.994 39.2565 146.422 27.5635L143.986 27.6826ZM119.405 0V2.43906C131.112 2.43906 140.759 11.626 141.331 23.3189L143.767 23.1999L146.203 23.0808C145.504 8.7894 133.714 -2.43906 119.405 -2.43906V0Z" fill="#D7E3FF" mask="url(#path-1-inside-1_163_431)"/>
</svg>
