<svg width="401" height="401" viewBox="0 0 401 401" fill="none" xmlns="http://www.w3.org/2000/svg">
<mask id="path-1-inside-1_0_210" fill="white">
<path d="M375.635 0C389.643 0 401 11.3564 401 25.3649V375.635C401 389.643 389.643 401 375.635 401H25.3649C11.3564 401 0 389.643 0 375.635V25.3649C0 11.3564 11.3564 0 25.3649 0H122.263C133.03 0 141.902 8.44921 142.428 19.2032C142.953 29.9572 151.825 38.4064 162.592 38.4064H226.901C237.668 38.4064 246.54 29.9573 247.066 19.2032C247.592 8.44914 256.465 0 267.232 0H375.635Z"/>
</mask>
<path d="M375.635 0C389.643 0 401 11.3564 401 25.3649V375.635C401 389.643 389.643 401 375.635 401H25.3649C11.3564 401 0 389.643 0 375.635V25.3649C0 11.3564 11.3564 0 25.3649 0H122.263C133.03 0 141.902 8.44921 142.428 19.2032C142.953 29.9572 151.825 38.4064 162.592 38.4064H226.901C237.668 38.4064 246.54 29.9573 247.066 19.2032C247.592 8.44914 256.465 0 267.232 0H375.635Z" fill="white"/>
<path d="M375.635 0V2.53646C388.242 2.53646 398.463 12.7573 398.463 25.3649H401H403.536C403.536 9.95557 391.044 -2.53646 375.635 -2.53646V0ZM401 25.3649H398.463V375.635H401H403.536V25.3649H401ZM401 375.635H398.463C398.463 388.242 388.242 398.463 375.635 398.463V401V403.536C391.044 403.536 403.536 391.044 403.536 375.635H401ZM375.635 401V398.463H25.3649V401V403.536H375.635V401ZM25.3649 401V398.463C12.7573 398.463 2.53646 388.242 2.53646 375.635H0H-2.53646C-2.53646 391.044 9.95557 403.536 25.3649 403.536V401ZM0 375.635H2.53646V25.3649H0H-2.53646V375.635H0ZM0 25.3649H2.53646C2.53646 12.7573 12.7573 2.53646 25.3649 2.53646V0V-2.53646C9.95557 -2.53646 -2.53646 9.95557 -2.53646 25.3649H0ZM25.3649 0V2.53646H122.263V0V-2.53646H25.3649V0ZM162.592 38.4064V40.9429H226.901V38.4064V35.87H162.592V38.4064ZM267.232 0V2.53646H375.635V0V-2.53646H267.232V0ZM247.066 19.2032L249.6 19.3271C250.06 9.9241 257.817 2.53646 267.232 2.53646V0V-2.53646C255.112 -2.53646 245.125 6.97418 244.533 19.0793L247.066 19.2032ZM226.901 38.4064V40.9429C239.021 40.9429 249.008 31.4322 249.6 19.3271L247.066 19.2032L244.533 19.0793C244.073 28.4823 236.315 35.87 226.901 35.87V38.4064ZM142.428 19.2032L139.894 19.327C140.486 31.4321 150.473 40.9429 162.592 40.9429V38.4064V35.87C153.178 35.87 145.421 28.4823 144.961 19.0794L142.428 19.2032ZM122.263 0V2.53646C131.677 2.53646 139.435 9.92413 139.894 19.327L142.428 19.2032L144.961 19.0794C144.369 6.97429 134.382 -2.53646 122.263 -2.53646V0Z" fill="#D7E3FF" mask="url(#path-1-inside-1_0_210)"/>
</svg>
