<svg width="389" height="349" viewBox="0 0 389 349" fill="none" xmlns="http://www.w3.org/2000/svg">
<mask id="path-1-inside-1_10_165" fill="white">
<path d="M364.57 0C378.062 0 389 10.9377 389 24.43V324.467C389 337.959 378.062 348.897 364.57 348.897H24.43C10.9379 348.897 9.82036e-05 337.959 0 324.467V24.43C0 10.9378 10.9378 0.000133684 24.43 0H119.558C132.587 0 143.323 10.224 143.959 23.237L144.218 28.5357C144.854 41.5487 155.59 51.7727 168.619 51.7727H221.064C234.093 51.7727 244.829 41.5487 245.465 28.5357L245.724 23.2369C246.36 10.224 257.096 0 270.125 0H364.57Z"/>
</mask>
<path d="M364.57 0C378.062 0 389 10.9377 389 24.43V324.467C389 337.959 378.062 348.897 364.57 348.897H24.43C10.9379 348.897 9.82036e-05 337.959 0 324.467V24.43C0 10.9378 10.9378 0.000133684 24.43 0H119.558C132.587 0 143.323 10.224 143.959 23.237L144.218 28.5357C144.854 41.5487 155.59 51.7727 168.619 51.7727H221.064C234.093 51.7727 244.829 41.5487 245.465 28.5357L245.724 23.2369C246.36 10.224 257.096 0 270.125 0H364.57Z" fill="white"/>
<path d="M389 324.467L391.443 324.467V324.467H389ZM24.43 348.897L24.4299 351.34H24.43V348.897ZM0 324.467H-2.44299V324.467L0 324.467ZM24.43 0V-2.44299H24.4299L24.43 0ZM245.724 23.2369L243.284 23.1177L245.724 23.2369ZM245.465 28.5357L247.905 28.655L245.465 28.5357ZM144.218 28.5357L141.778 28.655L144.218 28.5357ZM143.959 23.237L146.399 23.1177L143.959 23.237ZM364.57 0V2.44299C376.713 2.44299 386.557 12.2869 386.557 24.43H389H391.443C391.443 9.58848 379.412 -2.44299 364.57 -2.44299V0ZM389 24.43H386.557V324.467H389H391.443V24.43H389ZM389 324.467L386.557 324.467C386.557 336.61 376.713 346.454 364.57 346.454V348.897V351.34C379.411 351.34 391.443 339.308 391.443 324.467L389 324.467ZM364.57 348.897V346.454H24.43V348.897V351.34H364.57V348.897ZM24.43 348.897L24.43 346.454C12.2871 346.454 2.44308 336.61 2.44299 324.467L0 324.467L-2.44299 324.467C-2.44288 339.308 9.58865 351.34 24.4299 351.34L24.43 348.897ZM0 324.467H2.44299V24.43H0H-2.44299V324.467H0ZM0 24.43H2.44299C2.44299 12.287 12.287 2.44311 24.43 2.44299L24.43 0L24.4299 -2.44299C9.58861 -2.44284 -2.44299 9.58854 -2.44299 24.43H0ZM24.43 0V2.44299H119.558V0V-2.44299H24.43V0ZM143.959 23.237L141.519 23.3563L141.778 28.655L144.218 28.5357L146.658 28.4164L146.399 23.1177L143.959 23.237ZM168.619 51.7727V54.2157H221.064V51.7727V49.3297H168.619V51.7727ZM245.465 28.5357L247.905 28.655L248.164 23.3562L245.724 23.2369L243.284 23.1177L243.025 28.4164L245.465 28.5357ZM270.125 0V2.44299H364.57V0V-2.44299H270.125V0ZM245.724 23.2369L248.164 23.3562C248.737 11.6446 258.399 2.44299 270.125 2.44299V0V-2.44299C255.794 -2.44299 243.984 8.80336 243.284 23.1177L245.724 23.2369ZM221.064 51.7727V54.2157C235.396 54.2157 247.205 42.9693 247.905 28.655L245.465 28.5357L243.025 28.4164C242.452 40.1281 232.79 49.3297 221.064 49.3297V51.7727ZM144.218 28.5357L141.778 28.655C142.478 42.9693 154.287 54.2157 168.619 54.2157V51.7727V49.3297C156.893 49.3297 147.23 40.1281 146.658 28.4164L144.218 28.5357ZM119.558 0V2.44299C131.284 2.44299 140.946 11.6446 141.519 23.3563L143.959 23.237L146.399 23.1177C145.699 8.80339 133.889 -2.44299 119.558 -2.44299V0Z" fill="#D7E3FF" mask="url(#path-1-inside-1_10_165)"/>
</svg>
