<svg width="260" height="185" viewBox="0 0 260 185" fill="none" xmlns="http://www.w3.org/2000/svg">
<mask id="path-1-inside-1_54_1686" fill="white">
<path d="M18.4697 0C8.26915 0.000117513 0 8.26913 0 18.4697V166.529C0 176.73 8.26917 185 18.4697 185H241.53C251.731 185 260 176.73 260 166.529V61.928C260 51.7273 251.731 43.458 241.53 43.458H231.448C221.685 43.458 213.608 35.8598 213.012 26.1148L212.476 17.3432C211.88 7.59827 203.804 0 194.04 0H18.4697Z"/>
</mask>
<path d="M18.4697 0C8.26915 0.000117513 0 8.26913 0 18.4697V166.529C0 176.73 8.26917 185 18.4697 185H241.53C251.731 185 260 176.73 260 166.529V61.928C260 51.7273 251.731 43.458 241.53 43.458H231.448C221.685 43.458 213.608 35.8598 213.012 26.1148L212.476 17.3432C211.88 7.59827 203.804 0 194.04 0H18.4697Z" fill="white"/>
<path d="M18.4697 0L18.4697 -1.84699H18.4697V0ZM18.4697 185V186.847H18.4697L18.4697 185ZM241.53 185L241.53 186.847H241.53V185ZM213.012 26.1148L214.856 26.0022L213.012 26.1148ZM18.4697 0L18.4697 1.84699C9.28922 1.8471 1.84698 9.28922 1.84698 18.4697H0H-1.84698C-1.84698 7.24904 7.2491 -1.84687 18.4697 -1.84699L18.4697 0ZM0 18.4697H1.84698V166.529H0H-1.84698V18.4697H0ZM0 166.529H1.84698C1.84698 175.71 9.28934 183.153 18.4697 183.153L18.4697 185L18.4697 186.847C7.24898 186.847 -1.84698 177.75 -1.84698 166.529H0ZM18.4697 185V183.153H241.53V185V186.847H18.4697V185ZM241.53 185L241.53 183.153C250.711 183.153 258.153 175.71 258.153 166.529H260H261.847C261.847 177.75 252.751 186.847 241.53 186.847L241.53 185ZM260 166.529H258.153V61.928H260H261.847V166.529H260ZM241.53 43.458V45.305H231.448V43.458V41.611H241.53V43.458ZM213.012 26.1148L211.169 26.2275L210.633 17.4559L212.476 17.3432L214.32 17.2305L214.856 26.0022L213.012 26.1148ZM194.04 0V1.84699H18.4697V0V-1.84699H194.04V0ZM212.476 17.3432L210.633 17.4559C210.096 8.68544 202.827 1.84699 194.04 1.84699V0V-1.84699C204.78 -1.84699 213.664 6.5111 214.32 17.2305L212.476 17.3432ZM231.448 43.458V45.305C220.708 45.305 211.824 36.9469 211.169 26.2275L213.012 26.1148L214.856 26.0022C215.392 34.7726 222.661 41.611 231.448 41.611V43.458ZM260 61.928H258.153C258.153 52.7474 250.711 45.305 241.53 45.305V43.458V41.611C252.751 41.611 261.847 50.7072 261.847 61.928H260Z" fill="#D7E3FF" mask="url(#path-1-inside-1_54_1686)"/>
</svg>
