<svg width="383" height="343" viewBox="0 0 383 343" fill="none" xmlns="http://www.w3.org/2000/svg">
<mask id="path-1-inside-1_163_3178" fill="white">
<path d="M358.947 0C372.231 0 383 10.7693 383 24.0535V318.147C383 331.431 372.231 342.199 358.947 342.199H24.0525C10.7687 342.199 0.000233809 331.431 0 318.147V24.0535C0 10.7695 10.7685 0.000259192 24.0525 0H117.75C130.578 0 141.148 10.0663 141.774 22.8786L141.944 26.3431C142.57 39.1554 153.141 49.2217 165.968 49.2217H217.604C230.432 49.2217 241.002 39.1554 241.629 26.3431L241.798 22.8786C242.424 10.0663 252.995 0 265.822 0H358.947Z"/>
</mask>
<path d="M358.947 0C372.231 0 383 10.7693 383 24.0535V318.147C383 331.431 372.231 342.199 358.947 342.199H24.0525C10.7687 342.199 0.000233809 331.431 0 318.147V24.0535C0 10.7695 10.7685 0.000259192 24.0525 0H117.75C130.578 0 141.148 10.0663 141.774 22.8786L141.944 26.3431C142.57 39.1554 153.141 49.2217 165.968 49.2217H217.604C230.432 49.2217 241.002 39.1554 241.629 26.3431L241.798 22.8786C242.424 10.0663 252.995 0 265.822 0H358.947Z" fill="white"/>
<path d="M383 318.147L385.405 318.147V318.147H383ZM24.0525 342.199L24.0524 344.605H24.0525V342.199ZM0 318.147H-2.40531V318.147L0 318.147ZM24.0525 0V-2.40531H24.0524L24.0525 0ZM241.629 26.3431L239.226 26.2257L241.629 26.3431ZM141.774 22.8786L139.372 22.996L141.774 22.8786ZM358.947 0V2.40531C370.902 2.40531 380.595 12.0977 380.595 24.0535H383H385.405C385.405 9.44088 373.559 -2.40531 358.947 -2.40531V0ZM383 24.0535H380.595V318.147H383H385.405V24.0535H383ZM383 318.147L380.595 318.147C380.594 330.102 370.902 339.794 358.947 339.794V342.199V344.605C373.559 344.605 385.405 332.759 385.405 318.147L383 318.147ZM358.947 342.199V339.794H24.0525V342.199V344.605H358.947V342.199ZM24.0525 342.199L24.0525 339.794C12.0971 339.794 2.40552 330.102 2.40531 318.147L0 318.147L-2.40531 318.147C-2.40505 332.759 9.44027 344.604 24.0524 344.605L24.0525 342.199ZM0 318.147H2.40531V24.0535H0H-2.40531V318.147H0ZM0 24.0535H2.40531C2.40531 12.0978 12.0971 2.40554 24.0525 2.40531L24.0525 0L24.0524 -2.40531C9.44004 -2.40502 -2.40531 9.44113 -2.40531 24.0535H0ZM24.0525 0V2.40531H117.75V0V-2.40531H24.0525V0ZM141.774 22.8786L139.372 22.996L139.541 26.4606L141.944 26.3431L144.346 26.2257L144.177 22.7611L141.774 22.8786ZM165.968 49.2217V51.627H217.604V49.2217V46.8164H165.968V49.2217ZM241.629 26.3431L244.031 26.4606L244.201 22.996L241.798 22.8786L239.396 22.7611L239.226 26.2257L241.629 26.3431ZM265.822 0V2.40531H358.947V0V-2.40531H265.822V0ZM241.798 22.8786L244.201 22.996C244.764 11.465 254.278 2.40531 265.822 2.40531V0V-2.40531C251.712 -2.40531 240.085 8.66762 239.396 22.7611L241.798 22.8786ZM217.604 49.2217V51.627C231.715 51.627 243.342 40.5541 244.031 26.4606L241.629 26.3431L239.226 26.2257C238.663 37.7567 229.149 46.8164 217.604 46.8164V49.2217ZM141.944 26.3431L139.541 26.4606C140.23 40.5541 151.858 51.627 165.968 51.627V49.2217V46.8164C154.423 46.8164 144.91 37.7567 144.346 26.2257L141.944 26.3431ZM117.75 0V2.40531C129.295 2.40531 138.808 11.465 139.372 22.996L141.774 22.8786L144.177 22.7611C143.488 8.6676 131.86 -2.40531 117.75 -2.40531V0Z" fill="#D7E3FF" mask="url(#path-1-inside-1_163_3178)"/>
</svg>
