<svg width="401" height="401" viewBox="0 0 401 401" fill="none" xmlns="http://www.w3.org/2000/svg">
<mask id="path-1-inside-1_0_16" fill="white">
<path d="M375.635 0C389.643 0 401 11.3565 401 25.365V375.635C401 389.643 389.643 401 375.635 401H25.365C11.3565 401 0 389.643 0 375.635V25.365C0 11.3565 11.3565 0 25.365 0H127.26C138.584 0 147.915 8.88609 148.468 20.1962C149.02 31.5063 158.352 40.3924 169.675 40.3924H231.995C243.319 40.3924 252.65 31.5063 253.203 20.1962C253.756 8.88609 263.087 0 274.41 0H375.635Z"/>
</mask>
<path d="M375.635 0C389.643 0 401 11.3565 401 25.365V375.635C401 389.643 389.643 401 375.635 401H25.365C11.3565 401 0 389.643 0 375.635V25.365C0 11.3565 11.3565 0 25.365 0H127.26C138.584 0 147.915 8.88609 148.468 20.1962C149.02 31.5063 158.352 40.3924 169.675 40.3924H231.995C243.319 40.3924 252.65 31.5063 253.203 20.1962C253.756 8.88609 263.087 0 274.41 0H375.635Z" fill="white"/>
<path d="M375.635 0V2.53646C388.243 2.53646 398.464 12.7574 398.464 25.365H401H403.536C403.536 9.95566 391.044 -2.53646 375.635 -2.53646V0ZM401 25.365H398.464V375.635H401H403.536V25.365H401ZM401 375.635H398.464C398.464 388.243 388.243 398.464 375.635 398.464V401V403.536C391.044 403.536 403.536 391.044 403.536 375.635H401ZM375.635 401V398.464H25.365V401V403.536H375.635V401ZM25.365 401V398.464C12.7574 398.464 2.53646 388.243 2.53646 375.635H0H-2.53646C-2.53646 391.044 9.95566 403.536 25.365 403.536V401ZM0 375.635H2.53646V25.365H0H-2.53646V375.635H0ZM0 25.365H2.53646C2.53646 12.7574 12.7574 2.53646 25.365 2.53646V0V-2.53646C9.95566 -2.53646 -2.53646 9.95566 -2.53646 25.365H0ZM25.365 0V2.53646H127.26V0V-2.53646H25.365V0ZM169.675 40.3924V42.9288H231.995V40.3924V37.8559H169.675V40.3924ZM274.41 0V2.53646H375.635V0V-2.53646H274.41V0ZM253.203 20.1962L255.736 20.32C256.223 10.361 264.44 2.53646 274.41 2.53646V0V-2.53646C261.734 -2.53646 251.288 7.41116 250.669 20.0723L253.203 20.1962ZM231.995 40.3924V42.9288C244.672 42.9288 255.117 32.9812 255.736 20.32L253.203 20.1962L250.669 20.0723C250.183 30.0313 241.966 37.8559 231.995 37.8559V40.3924ZM148.468 20.1962L145.934 20.32C146.553 32.9812 156.999 42.9288 169.675 42.9288V40.3924V37.8559C159.704 37.8559 151.488 30.0313 151.001 20.0723L148.468 20.1962ZM127.26 0V2.53646C137.231 2.53646 145.447 10.361 145.934 20.32L148.468 20.1962L151.001 20.0723C150.382 7.41116 139.936 -2.53646 127.26 -2.53646V0Z" fill="#D7E3FF" mask="url(#path-1-inside-1_0_16)"/>
</svg>
