<svg width="390" height="347" viewBox="0 0 390 347" fill="none" xmlns="http://www.w3.org/2000/svg">
<mask id="path-1-inside-1_163_461" fill="white">
<path d="M365.318 0C378.788 0.000112078 389.708 10.9202 389.708 24.3907V322.609C389.708 336.08 378.788 347 365.318 347H24.3907C10.9201 347 0 336.08 0 322.609V24.3907C0 10.9201 10.9201 0 24.3907 0H119.414C132.422 0 143.141 10.2077 143.776 23.1999L143.986 27.5039C144.621 40.496 155.34 50.7037 168.348 50.7037H220.707C233.715 50.7037 244.434 40.496 245.069 27.5038L245.279 23.1999C245.914 10.2077 256.633 0 269.641 0H365.318Z"/>
</mask>
<path d="M365.318 0C378.788 0.000112078 389.708 10.9202 389.708 24.3907V322.609C389.708 336.08 378.788 347 365.318 347H24.3907C10.9201 347 0 336.08 0 322.609V24.3907C0 10.9201 10.9201 0 24.3907 0H119.414C132.422 0 143.141 10.2077 143.776 23.1999L143.986 27.5039C144.621 40.496 155.34 50.7037 168.348 50.7037H220.707C233.715 50.7037 244.434 40.496 245.069 27.5038L245.279 23.1999C245.914 10.2077 256.633 0 269.641 0H365.318Z" fill="white"/>
<path d="M365.318 0L365.318 -2.43906H365.318V0ZM365.318 347V349.439H365.318L365.318 347ZM245.069 27.5038L242.633 27.3848L245.069 27.5038ZM143.776 23.1999L141.339 23.319L143.776 23.1999ZM365.318 0L365.318 2.43906C377.441 2.43916 387.269 12.2672 387.269 24.3907H389.708H392.147C392.147 9.5731 380.135 -2.43894 365.318 -2.43906L365.318 0ZM389.708 24.3907H387.269V322.609H389.708H392.147V24.3907H389.708ZM389.708 322.609H387.269C387.269 334.733 377.441 344.561 365.318 344.561L365.318 347L365.318 349.439C380.135 349.439 392.147 337.427 392.147 322.609H389.708ZM365.318 347V344.561H24.3907V347V349.439H365.318V347ZM24.3907 347V344.561C12.2672 344.561 2.43906 334.733 2.43906 322.609H0H-2.43906C-2.43906 337.427 9.57305 349.439 24.3907 349.439V347ZM0 322.609H2.43906V24.3907H0H-2.43906V322.609H0ZM0 24.3907H2.43906C2.43906 12.2672 12.2672 2.43906 24.3907 2.43906V0V-2.43906C9.57305 -2.43906 -2.43906 9.57305 -2.43906 24.3907H0ZM24.3907 0V2.43906H119.414V0V-2.43906H24.3907V0ZM143.776 23.1999L141.339 23.319L141.55 27.6229L143.986 27.5039L146.422 27.3848L146.212 23.0808L143.776 23.1999ZM168.348 50.7037V53.1428H220.707V50.7037V48.2647H168.348V50.7037ZM245.069 27.5038L247.505 27.6229L247.715 23.3189L245.279 23.1999L242.843 23.0808L242.633 27.3848L245.069 27.5038ZM269.641 0V2.43906H365.318V0V-2.43906H269.641V0ZM245.279 23.1999L247.715 23.3189C248.287 11.626 257.934 2.43906 269.641 2.43906V0V-2.43906C255.332 -2.43906 243.542 8.78941 242.843 23.0808L245.279 23.1999ZM220.707 50.7037V53.1428C235.016 53.1428 246.806 41.9143 247.505 27.6229L245.069 27.5038L242.633 27.3848C242.061 39.0777 232.414 48.2647 220.707 48.2647V50.7037ZM143.986 27.5039L141.55 27.6229C142.248 41.9143 154.039 53.1428 168.348 53.1428V50.7037V48.2647C156.641 48.2647 146.994 39.0777 146.422 27.3848L143.986 27.5039ZM119.414 0V2.43906C131.121 2.43906 140.768 11.626 141.339 23.319L143.776 23.1999L146.212 23.0808C145.513 8.78942 133.723 -2.43906 119.414 -2.43906V0Z" fill="#D7E3FF" mask="url(#path-1-inside-1_163_461)"/>
</svg>
