<svg width="260" height="215" viewBox="0 0 260 215" fill="none" xmlns="http://www.w3.org/2000/svg">
<mask id="path-1-inside-1_54_1717" fill="white">
<path d="M241.53 0C251.731 0.000117513 260 8.26913 260 18.4697V196.529C260 206.73 251.731 215 241.53 215H18.4697C8.26916 215 0 206.73 0 196.529V63.0891C0 52.8884 8.2693 44.6191 18.47 44.6191H28.5523C38.3154 44.6191 46.3922 37.021 46.9879 27.2761L47.5951 17.3431C48.1908 7.59819 56.2676 0 66.0307 0H241.53Z"/>
</mask>
<path d="M241.53 0C251.731 0.000117513 260 8.26913 260 18.4697V196.529C260 206.73 251.731 215 241.53 215H18.4697C8.26916 215 0 206.73 0 196.529V63.0891C0 52.8884 8.2693 44.6191 18.47 44.6191H28.5523C38.3154 44.6191 46.3922 37.021 46.9879 27.2761L47.5951 17.3431C48.1908 7.59819 56.2676 0 66.0307 0H241.53Z" fill="white"/>
<path d="M241.53 0L241.53 -1.84699H241.53V0ZM241.53 215V216.847H241.53L241.53 215ZM18.4697 215L18.4697 216.847H18.4697V215ZM46.9879 27.2761L45.1443 27.1634L46.9879 27.2761ZM241.53 0L241.53 1.84699C250.711 1.8471 258.153 9.28922 258.153 18.4697H260H261.847C261.847 7.24904 252.751 -1.84687 241.53 -1.84699L241.53 0ZM260 18.4697H258.153V196.529H260H261.847V18.4697H260ZM260 196.529H258.153C258.153 205.71 250.711 213.153 241.53 213.153L241.53 215L241.53 216.847C252.751 216.847 261.847 207.75 261.847 196.529H260ZM241.53 215V213.153H18.4697V215V216.847H241.53V215ZM18.4697 215L18.4697 213.153C9.28934 213.153 1.84699 205.71 1.84699 196.529H0H-1.84699C-1.84699 207.75 7.24898 216.847 18.4697 216.847L18.4697 215ZM0 196.529H1.84699V63.0891H0H-1.84699V196.529H0ZM18.47 44.6191V46.4661H28.5523V44.6191V42.7721H18.47V44.6191ZM46.9879 27.2761L48.8315 27.3888L49.4387 17.4557L47.5951 17.3431L45.7515 17.2304L45.1443 27.1634L46.9879 27.2761ZM66.0307 0V1.84699H241.53V0V-1.84699H66.0307V0ZM47.5951 17.3431L49.4387 17.4557C49.9748 8.68536 57.2439 1.84699 66.0307 1.84699V0V-1.84699C55.2913 -1.84699 46.4068 6.51101 45.7515 17.2304L47.5951 17.3431ZM28.5523 44.6191V46.4661C39.2917 46.4661 48.1762 38.1081 48.8315 27.3888L46.9879 27.2761L45.1443 27.1634C44.6082 35.9338 37.3391 42.7721 28.5523 42.7721V44.6191ZM0 63.0891H1.84699C1.84699 53.9085 9.28937 46.4661 18.47 46.4661V44.6191V42.7721C7.24923 42.7721 -1.84699 51.8684 -1.84699 63.0891H0Z" fill="#D7E3FF" mask="url(#path-1-inside-1_54_1717)"/>
</svg>
