<svg width="24" height="16" viewBox="0 0 24 16" fill="none" xmlns="http://www.w3.org/2000/svg">
<g clip-path="url(#clip0_0_315)">
<path d="M10.318 8.59375L11.328 14.2778C11.3393 14.3447 11.3299 14.4135 11.3011 14.4749C11.2723 14.5364 11.2253 14.5875 11.1666 14.6216C11.1079 14.6557 11.0402 14.671 10.9726 14.6656C10.9049 14.6601 10.8405 14.6341 10.788 14.5911L8.40135 12.7997C8.28613 12.7137 8.14617 12.6672 8.00235 12.6672C7.85853 12.6672 7.71857 12.7137 7.60335 12.7997L5.21268 14.5904C5.16023 14.6334 5.09593 14.6593 5.02835 14.6648C4.96077 14.6702 4.89313 14.655 4.83446 14.621C4.77579 14.587 4.72887 14.536 4.69996 14.4746C4.67106 14.4133 4.66154 14.3446 4.67268 14.2778L5.68202 8.59375" stroke="#3B82F6" stroke-width="1.33333" stroke-linecap="round" stroke-linejoin="round"/>
<path d="M8 9.33301C10.2091 9.33301 12 7.54215 12 5.33301C12 3.12387 10.2091 1.33301 8 1.33301C5.79086 1.33301 4 3.12387 4 5.33301C4 7.54215 5.79086 9.33301 8 9.33301Z" stroke="#3B82F6" stroke-width="1.33333" stroke-linecap="round" stroke-linejoin="round"/>
</g>
<defs>
<clipPath id="clip0_0_315">
<rect width="16" height="16" fill="white"/>
</clipPath>
</defs>
</svg>
