<svg width="160" height="160" viewBox="0 0 160 160" fill="none" xmlns="http://www.w3.org/2000/svg">
<g filter="url(#filter0_d_163_3184)">
<rect x="14.0328" y="13.0295" width="81.8227" height="81.8227" rx="23.0439" fill="#004EFF" shape-rendering="crispEdges"/>
<rect x="14.0328" y="13.0295" width="81.8227" height="81.8227" rx="23.0439" fill="url(#paint0_linear_163_3184)" shape-rendering="crispEdges"/>
<path d="M63.3941 64.6951H50.3355C48.3412 64.6946 46.3863 64.1395 44.6893 63.0919C42.9922 62.0443 41.62 60.5455 40.7258 58.7628C39.8316 56.9802 39.4507 54.9841 39.6256 52.9974C39.8006 51.0108 40.5246 49.1119 41.7166 47.5131C42.9087 45.9142 44.5218 44.6783 46.3759 43.9435C48.2299 43.2087 50.2517 43.0039 52.2154 43.352C54.1791 43.7001 56.0074 44.5874 57.4958 45.9147C58.9843 47.2421 60.0743 48.9572 60.6441 50.8684H63.3941C65.2276 50.8684 66.9861 51.5968 68.2826 52.8933C69.5791 54.1898 70.3074 55.9482 70.3074 57.7817C70.3074 59.6153 69.5791 61.3737 68.2826 62.6702C66.9861 63.9667 65.2276 64.6951 63.3941 64.6951Z" stroke="white" stroke-width="3.06955" stroke-linecap="round" stroke-linejoin="round"/>
</g>
<defs>
<filter id="filter0_d_163_3184" x="-1.90924e-06" y="-1.90924e-05" width="160" height="160" filterUnits="userSpaceOnUse" color-interpolation-filters="sRGB">
<feFlood flood-opacity="0" result="BackgroundImageFix"/>
<feColorMatrix in="SourceAlpha" type="matrix" values="0 0 0 0 0 0 0 0 0 0 0 0 0 0 0 0 0 0 127 0" result="hardAlpha"/>
<feOffset dx="25.031" dy="26.0332"/>
<feGaussianBlur stdDeviation="19.5249"/>
<feComposite in2="hardAlpha" operator="out"/>
<feColorMatrix type="matrix" values="0 0 0 0 0 0 0 0 0 0.306122 0 0 0 0 1 0 0 0 0.28 0"/>
<feBlend mode="normal" in2="BackgroundImageFix" result="effect1_dropShadow_163_3184"/>
<feBlend mode="normal" in="SourceGraphic" in2="effect1_dropShadow_163_3184" result="shape"/>
</filter>
<linearGradient id="paint0_linear_163_3184" x1="-2.33172" y1="1.03827" x2="116.795" y2="80.3336" gradientUnits="userSpaceOnUse">
<stop stop-color="#6896FF"/>
<stop offset="1" stop-color="#004EFF"/>
</linearGradient>
</defs>
</svg>
