<svg width="163" height="163" viewBox="0 0 163 163" fill="none" xmlns="http://www.w3.org/2000/svg">
<g filter="url(#filter0_d_163_467)">
<rect x="14.2959" y="13.2738" width="83.3569" height="83.3569" rx="23.3718" fill="#004EFF" shape-rendering="crispEdges"/>
<rect x="14.2959" y="13.2738" width="83.3569" height="83.3569" rx="23.3718" fill="url(#paint0_linear_163_467)" shape-rendering="crispEdges"/>
<path d="M55.9744 37.2536V72.6506" stroke="white" stroke-width="2.64037" stroke-linecap="round" stroke-linejoin="round"/>
<path d="M64.8244 42.5632H51.55C49.9071 42.5632 48.3314 43.2158 47.1697 44.3776C46.008 45.5393 45.3553 47.115 45.3553 48.7579C45.3553 50.4008 46.008 51.9765 47.1697 53.1382C48.3314 54.3 49.9071 54.9526 51.55 54.9526H60.3996C62.0426 54.9526 63.6182 55.6053 64.78 56.767C65.9417 57.9287 66.5943 59.5044 66.5943 61.1473C66.5943 62.7903 65.9417 64.3659 64.78 65.5277C63.6182 66.6894 62.0426 67.3421 60.3996 67.3421H45.3553" stroke="white" stroke-width="2.64037" stroke-linecap="round" stroke-linejoin="round"/>
</g>
<defs>
<filter id="filter0_d_163_467" x="-3.8355e-06" y="-5.56148e-05" width="163" height="163" filterUnits="userSpaceOnUse" color-interpolation-filters="sRGB">
<feFlood flood-opacity="0" result="BackgroundImageFix"/>
<feColorMatrix in="SourceAlpha" type="matrix" values="0 0 0 0 0 0 0 0 0 0 0 0 0 0 0 0 0 0 127 0" result="hardAlpha"/>
<feOffset dx="25.3871" dy="26.4037"/>
<feGaussianBlur stdDeviation="19.8028"/>
<feComposite in2="hardAlpha" operator="out"/>
<feColorMatrix type="matrix" values="0 0 0 0 0 0 0 0 0 0.306122 0 0 0 0 1 0 0 0 0.28 0"/>
<feBlend mode="normal" in2="BackgroundImageFix" result="effect1_dropShadow_163_467"/>
<feBlend mode="normal" in="SourceGraphic" in2="effect1_dropShadow_163_467" result="shape"/>
</filter>
<linearGradient id="paint0_linear_163_467" x1="-2.37544" y1="1.0577" x2="118.985" y2="81.8399" gradientUnits="userSpaceOnUse">
<stop stop-color="#6896FF"/>
<stop offset="1" stop-color="#004EFF"/>
</linearGradient>
</defs>
</svg>
