<svg width="163" height="163" viewBox="0 0 163 163" fill="none" xmlns="http://www.w3.org/2000/svg">
<g filter="url(#filter0_d_163_437)">
<rect x="14.2959" y="13.2738" width="83.3569" height="83.3569" rx="23.3718" fill="#004EFF" shape-rendering="crispEdges"/>
<rect x="14.2959" y="13.2738" width="83.3569" height="83.3569" rx="23.3718" fill="url(#paint0_linear_163_437)" shape-rendering="crispEdges"/>
<path d="M63.0547 70.8811V67.3413C63.0547 65.4636 62.3088 63.6629 60.9811 62.3352C59.6534 61.0075 57.8527 60.2616 55.975 60.2616H45.3555C43.4779 60.2616 41.6771 61.0075 40.3494 62.3352C39.0217 63.6629 38.2758 65.4636 38.2758 67.3413V70.8811" stroke="white" stroke-width="2.64037" stroke-linecap="round" stroke-linejoin="round"/>
<path d="M63.0536 39.2503C64.5718 39.6439 65.9163 40.5304 66.8761 41.7708C67.8359 43.0111 68.3566 44.5351 68.3566 46.1034C68.3566 47.6718 67.8359 49.1957 66.8761 50.4361C65.9163 51.6764 64.5718 52.563 63.0536 52.9565" stroke="white" stroke-width="2.64037" stroke-linecap="round" stroke-linejoin="round"/>
<path d="M73.6729 70.8813V67.3415C73.6717 65.7728 73.1496 64.249 72.1886 63.0092C71.2275 61.7695 69.8819 60.884 68.3631 60.4919" stroke="white" stroke-width="2.64037" stroke-linecap="round" stroke-linejoin="round"/>
<path d="M50.6651 53.1828C54.5751 53.1828 57.7447 50.0131 57.7447 46.1031C57.7447 42.1932 54.5751 39.0235 50.6651 39.0235C46.7551 39.0235 43.5854 42.1932 43.5854 46.1031C43.5854 50.0131 46.7551 53.1828 50.6651 53.1828Z" stroke="white" stroke-width="2.64037" stroke-linecap="round" stroke-linejoin="round"/>
</g>
<defs>
<filter id="filter0_d_163_437" x="-3.8355e-06" y="-5.56148e-05" width="163" height="163" filterUnits="userSpaceOnUse" color-interpolation-filters="sRGB">
<feFlood flood-opacity="0" result="BackgroundImageFix"/>
<feColorMatrix in="SourceAlpha" type="matrix" values="0 0 0 0 0 0 0 0 0 0 0 0 0 0 0 0 0 0 127 0" result="hardAlpha"/>
<feOffset dx="25.3871" dy="26.4037"/>
<feGaussianBlur stdDeviation="19.8028"/>
<feComposite in2="hardAlpha" operator="out"/>
<feColorMatrix type="matrix" values="0 0 0 0 0 0 0 0 0 0.306122 0 0 0 0 1 0 0 0 0.28 0"/>
<feBlend mode="normal" in2="BackgroundImageFix" result="effect1_dropShadow_163_437"/>
<feBlend mode="normal" in="SourceGraphic" in2="effect1_dropShadow_163_437" result="shape"/>
</filter>
<linearGradient id="paint0_linear_163_437" x1="-2.37544" y1="1.0577" x2="118.985" y2="81.8399" gradientUnits="userSpaceOnUse">
<stop stop-color="#6896FF"/>
<stop offset="1" stop-color="#004EFF"/>
</linearGradient>
</defs>
</svg>
