<svg width="169" height="169" viewBox="0 0 169 169" fill="none" xmlns="http://www.w3.org/2000/svg">
<g filter="url(#filter0_d_0_234)">
<rect x="14.8222" y="13.7625" width="86.4252" height="86.4252" rx="24.2964" fill="url(#paint0_linear_0_234)" shape-rendering="crispEdges"/>
<path d="M72.7136 53.3052C72.7136 62.4673 62.5496 72.0092 59.1365 74.9562C58.8185 75.1953 58.4315 75.3246 58.0337 75.3246C57.6358 75.3246 57.2488 75.1953 56.9308 74.9562C53.5177 72.0092 43.3537 62.4673 43.3537 53.3052C43.3537 49.4118 44.9004 45.6779 47.6534 42.9249C50.4064 40.1718 54.1403 38.6252 58.0337 38.6252C61.927 38.6252 65.6609 40.1718 68.414 42.9249C71.167 45.6779 72.7136 49.4118 72.7136 53.3052Z" stroke="white" stroke-width="3.68288" stroke-linecap="round" stroke-linejoin="round"/>
<path d="M58.0342 58.8099C61.0745 58.8099 63.5392 56.3452 63.5392 53.3049C63.5392 50.2646 61.0745 47.8 58.0342 47.8C54.9939 47.8 52.5292 50.2646 52.5292 53.3049C52.5292 56.3452 54.9939 58.8099 58.0342 58.8099Z" stroke="white" stroke-width="3.68288" stroke-linecap="round" stroke-linejoin="round"/>
</g>
<defs>
<filter id="filter0_d_0_234" x="3.44282e-05" y="3.06029e-05" width="169" height="169" filterUnits="userSpaceOnUse" color-interpolation-filters="sRGB">
<feFlood flood-opacity="0" result="BackgroundImageFix"/>
<feColorMatrix in="SourceAlpha" type="matrix" values="0 0 0 0 0 0 0 0 0 0 0 0 0 0 0 0 0 0 127 0" result="hardAlpha"/>
<feOffset dx="26.3914" dy="27.4482"/>
<feGaussianBlur stdDeviation="20.5861"/>
<feComposite in2="hardAlpha" operator="out"/>
<feColorMatrix type="matrix" values="0 0 0 0 0 0 0 0 0 0.306122 0 0 0 0 1 0 0 0 0.28 0"/>
<feBlend mode="normal" in2="BackgroundImageFix" result="effect1_dropShadow_0_234"/>
<feBlend mode="normal" in="SourceGraphic" in2="effect1_dropShadow_0_234" result="shape"/>
</filter>
<linearGradient id="paint0_linear_0_234" x1="-2.46285" y1="1.09671" x2="123.364" y2="84.8524" gradientUnits="userSpaceOnUse">
<stop stop-color="#6896FF"/>
<stop offset="1" stop-color="#004EFF"/>
</linearGradient>
</defs>
</svg>
