<svg width="38" height="38" viewBox="0 0 38 38" fill="none" xmlns="http://www.w3.org/2000/svg">
<rect width="38" height="38" rx="19" fill="white"/>
<rect width="38" height="38" rx="19" fill="#DEE8FF"/>
<path d="M27.7351 18.5642C27.5025 18.3316 27.27 18.2541 26.9599 18.2541L11.4559 18.2541C10.8358 18.2541 10.3706 18.7192 10.3706 19.3394C10.3706 19.9595 10.8358 20.4246 11.4559 20.4246L26.9599 20.4246C27.5801 20.4246 28.0452 19.9595 28.0452 19.3394C28.0452 19.0293 27.9677 18.7967 27.7351 18.5642Z" fill="#004EFF"/>
<path d="M27.735 18.5642L20.7582 11.5874C20.2931 11.1222 19.6729 11.1222 19.2078 11.5874C18.7427 12.0525 18.7427 12.6726 19.2078 13.1378L25.4094 19.3394L19.2078 25.5409C18.7427 26.0061 18.7427 26.6262 19.2078 27.0913C19.6729 27.5565 20.2931 27.5565 20.7582 27.0913L27.735 20.1146C28.2001 19.6494 28.2001 19.0293 27.735 18.5642Z" fill="#004EFF"/>
</svg>
