<svg width="24" height="24" viewBox="0 0 24 24" fill="none" xmlns="http://www.w3.org/2000/svg">
<g clip-path="url(#clip0_105_2408)">
<path d="M5.31888 14.5035L4.48348 17.6221L1.4301 17.6867C0.517591 15.9942 0 14.0578 0 12C0 10.0101 0.483935 8.13359 1.34174 6.48131H1.3424L4.06076 6.97968L5.25157 9.68173C5.00233 10.4083 4.86649 11.1883 4.86649 12C4.86658 12.8808 5.02615 13.7248 5.31888 14.5035Z" fill="#FBBB00"/>
<path d="M23.7903 9.75822C23.9281 10.4841 24 11.2338 24 12C24 12.8591 23.9096 13.6971 23.7376 14.5055C23.1534 17.2562 21.627 19.6582 19.5126 21.3579L19.5119 21.3573L16.088 21.1826L15.6034 18.1575C17.0065 17.3347 18.1029 16.047 18.6805 14.5055H12.2638V9.75822H23.7903Z" fill="#518EF8"/>
<path d="M19.5117 21.3573L19.5123 21.3579C17.4559 23.0109 14.8436 23.9999 11.9999 23.9999C7.43001 23.9999 3.45685 21.4457 1.43004 17.6868L5.31881 14.5035C6.3322 17.2081 8.9412 19.1334 11.9999 19.1334C13.3146 19.1334 14.5462 18.778 15.6031 18.1575L19.5117 21.3573Z" fill="#28B446"/>
<path d="M19.6595 2.76261L15.772 5.94522C14.6782 5.2615 13.3852 4.86654 11.9999 4.86654C8.87204 4.86654 6.21424 6.88014 5.25162 9.6817L1.34241 6.48128H1.34175C3.3389 2.63075 7.36216 0 11.9999 0C14.9116 0 17.5812 1.03715 19.6595 2.76261Z" fill="#F14336"/>
</g>
<defs>
<clipPath id="clip0_105_2408">
<rect width="23.4286" height="23.4286" fill="white" transform="scale(1.02438)"/>
</clipPath>
</defs>
</svg>
