<svg width="28" height="28" viewBox="0 0 28 28" fill="none" xmlns="http://www.w3.org/2000/svg">
<rect width="27.9999" height="27.9999" rx="13.8563" fill="#004EFF" fill-opacity="0.15"/>
<path d="M21.8288 8.41081C21.7204 8.30109 21.5914 8.21398 21.4491 8.15452C21.3068 8.09507 21.1542 8.06445 21 8.06445C20.8458 8.06445 20.6931 8.09507 20.5509 8.15452C20.4086 8.21398 20.2795 8.30109 20.1712 8.41081L11.48 17.1154L7.82881 13.4519C7.68794 13.3154 7.51554 13.2158 7.32692 13.1619C7.13829 13.1081 6.93929 13.1017 6.74758 13.1432C6.55587 13.1848 6.37739 13.273 6.228 13.4002C6.0786 13.5273 5.96292 13.6893 5.89122 13.8719C5.80471 14.0912 5.78514 14.3313 5.83497 14.5617C5.88481 14.7922 6.00181 15.0027 6.17122 15.1666L10.6512 19.6466C10.7597 19.7561 10.8888 19.8431 11.031 19.9024C11.1733 19.9617 11.3259 19.9923 11.48 19.9923C11.6341 19.9923 11.7867 19.9617 11.929 19.9024C12.0713 19.8431 12.2003 19.7561 12.3088 19.6466L21.8288 10.1266C21.9472 10.0174 22.0417 9.88484 22.1063 9.73728C22.1709 9.58972 22.2043 9.43038 22.2043 9.26929C22.2043 9.10819 22.1709 8.94885 22.1063 8.80129C22.0417 8.65373 21.9472 8.52116 21.8288 8.41193V8.41081Z" fill="#004EFF"/>
</svg>
