<svg width="109" height="87" viewBox="0 0 109 87" fill="none" xmlns="http://www.w3.org/2000/svg">
<g filter="url(#filter0_d_173_1451)">
<path d="M35 11C27.268 11 21 17.268 21 25V42C21 49.732 27.268 56 35 56H60C66.7524 56 72.3884 51.2196 73.708 44.8584L87.5 34L73.8965 23.2891C73.0527 16.3641 67.1528 11 60 11H35Z" fill="url(#paint0_linear_173_1451)"/>
<path d="M46.5 23V35" stroke="white" stroke-width="1.67" stroke-linecap="round" stroke-linejoin="round"/>
<path d="M51.5 28L46.5 23L41.5 28" stroke="white" stroke-width="1.67" stroke-linecap="round" stroke-linejoin="round"/>
<path d="M55.5 35V39C55.5 39.5304 55.2893 40.0391 54.9142 40.4142C54.5391 40.7893 54.0304 41 53.5 41H39.5C38.9696 41 38.4609 40.7893 38.0858 40.4142C37.7107 40.0391 37.5 39.5304 37.5 39V35" stroke="white" stroke-width="1.67" stroke-linecap="round" stroke-linejoin="round"/>
</g>
<defs>
<filter id="filter0_d_173_1451" x="-0.5" y="-2" width="115" height="89" filterUnits="userSpaceOnUse" color-interpolation-filters="sRGB">
<feFlood flood-opacity="0" result="BackgroundImageFix"/>
<feColorMatrix in="SourceAlpha" type="matrix" values="0 0 0 0 0 0 0 0 0 0 0 0 0 0 0 0 0 0 127 0" result="hardAlpha"/>
<feOffset dy="10"/>
<feGaussianBlur stdDeviation="10.5"/>
<feComposite in2="hardAlpha" operator="out"/>
<feColorMatrix type="matrix" values="0 0 0 0 0 0 0 0 0 0.306122 0 0 0 0 1 0 0 0 0.51 0"/>
<feBlend mode="normal" in2="BackgroundImageFix" result="effect1_dropShadow_173_1451"/>
<feBlend mode="normal" in="SourceGraphic" in2="effect1_dropShadow_173_1451" result="shape"/>
</filter>
<linearGradient id="paint0_linear_173_1451" x1="108" y1="13.5776" x2="51.6094" y2="87.1277" gradientUnits="userSpaceOnUse">
<stop stop-color="#6896FF"/>
<stop offset="1" stop-color="#004EFF"/>
</linearGradient>
</defs>
</svg>
