<svg width="109" height="87" viewBox="0 0 109 87" fill="none" xmlns="http://www.w3.org/2000/svg">
<g filter="url(#filter0_d_176_479)">
<path d="M35 11C27.268 11 21 17.268 21 25V42C21 49.732 27.268 56 35 56H60C66.7524 56 72.3884 51.2196 73.708 44.8584L87.5 34L73.8965 23.2891C73.0527 16.3641 67.1528 11 60 11H35Z" fill="url(#paint0_linear_176_479)"/>
<path d="M48.4999 44.6668C54.9432 44.6668 60.1666 39.4435 60.1666 33.0002C60.1666 26.5568 54.9432 21.3335 48.4999 21.3335C42.0566 21.3335 36.8333 26.5568 36.8333 33.0002C36.8333 39.4435 42.0566 44.6668 48.4999 44.6668Z" stroke="white" stroke-width="2" stroke-linecap="round" stroke-linejoin="round"/>
<path d="M45 32.9998L47.3333 35.3332L52 30.6665" stroke="white" stroke-width="2" stroke-linecap="round" stroke-linejoin="round"/>
</g>
<defs>
<filter id="filter0_d_176_479" x="-0.5" y="-2" width="115" height="90" filterUnits="userSpaceOnUse" color-interpolation-filters="sRGB">
<feFlood flood-opacity="0" result="BackgroundImageFix"/>
<feColorMatrix in="SourceAlpha" type="matrix" values="0 0 0 0 0 0 0 0 0 0 0 0 0 0 0 0 0 0 127 0" result="hardAlpha"/>
<feOffset dy="10"/>
<feGaussianBlur stdDeviation="10.5"/>
<feComposite in2="hardAlpha" operator="out"/>
<feColorMatrix type="matrix" values="0 0 0 0 0 0 0 0 0 0.306122 0 0 0 0 1 0 0 0 0.51 0"/>
<feBlend mode="normal" in2="BackgroundImageFix" result="effect1_dropShadow_176_479"/>
<feBlend mode="normal" in="SourceGraphic" in2="effect1_dropShadow_176_479" result="shape"/>
</filter>
<linearGradient id="paint0_linear_176_479" x1="108" y1="13.5776" x2="51.6094" y2="87.1277" gradientUnits="userSpaceOnUse">
<stop stop-color="#6896FF"/>
<stop offset="1" stop-color="#004EFF"/>
</linearGradient>
</defs>
</svg>
