<svg width="24" height="24" viewBox="0 0 24 24" fill="none" xmlns="http://www.w3.org/2000/svg">
<rect width="24" height="24" rx="12" fill="#004EFF" fill-opacity="0.15"/>
<path d="M18.7104 7.20947C18.6175 7.11543 18.5069 7.04076 18.385 6.9898C18.263 6.93884 18.1322 6.9126 18 6.9126C17.8678 6.9126 17.737 6.93884 17.615 6.9898C17.4931 7.04076 17.3825 7.11543 17.2896 7.20947L9.83998 14.6706L6.71038 11.5304C6.58964 11.4134 6.44186 11.3281 6.28019 11.2819C6.11851 11.2357 5.94793 11.2302 5.78361 11.2658C5.61929 11.3015 5.46631 11.3771 5.33826 11.4861C5.2102 11.595 5.11104 11.7339 5.04958 11.8904C4.97543 12.0784 4.95866 12.2842 5.00137 12.4817C5.04409 12.6792 5.14438 12.8596 5.28958 13.0002L9.12958 16.8402C9.22255 16.9341 9.3332 17.0086 9.45513 17.0594C9.57707 17.1103 9.70787 17.1365 9.83998 17.1365C9.9721 17.1365 10.1029 17.1103 10.2248 17.0594C10.3468 17.0086 10.4574 16.9341 10.5504 16.8402L18.7104 8.68019C18.8119 8.58657 18.8929 8.47293 18.9483 8.34646C19.0037 8.21998 19.0323 8.08339 19.0323 7.94531C19.0323 7.80724 19.0037 7.67065 18.9483 7.54417C18.8929 7.4177 18.8119 7.30406 18.7104 7.21043V7.20947Z" fill="#004EFF"/>
</svg>
