<svg width="237" height="48" viewBox="0 0 237 48" fill="none" xmlns="http://www.w3.org/2000/svg">
<rect x="0.5" y="0.5" width="47" height="47" rx="23.5" stroke="white" stroke-opacity="0.08"/>
<path d="M28.5999 17.82C27.9163 17.0396 27.5396 16.0374 27.5399 15H24.4499V27.4C24.4261 28.071 24.1428 28.7066 23.6597 29.1729C23.1766 29.6393 22.5314 29.8999 21.8599 29.9C20.4399 29.9 19.2599 28.74 19.2599 27.3C19.2599 25.58 20.9199 24.29 22.6299 24.82V21.66C19.1799 21.2 16.1599 23.88 16.1599 27.3C16.1599 30.63 18.9199 33 21.8499 33C24.9899 33 27.5399 30.45 27.5399 27.3V21.01C28.7929 21.9099 30.2973 22.3926 31.8399 22.39V19.3C31.8399 19.3 29.9599 19.39 28.5999 17.82Z" fill="white"/>
<rect x="63.5" y="0.5" width="47" height="47" rx="23.5" stroke="white" stroke-opacity="0.08"/>
<path d="M94 15C94.5304 15 95.0391 15.2107 95.4142 15.5858C95.7893 15.9609 96 16.4696 96 17V31C96 31.5304 95.7893 32.0391 95.4142 32.4142C95.0391 32.7893 94.5304 33 94 33H80C79.4696 33 78.9609 32.7893 78.5858 32.4142C78.2107 32.0391 78 31.5304 78 31V17C78 16.4696 78.2107 15.9609 78.5858 15.5858C78.9609 15.2107 79.4696 15 80 15H94ZM93.5 30.5V25.2C93.5 24.3354 93.1565 23.5062 92.5452 22.8948C91.9338 22.2835 91.1046 21.94 90.24 21.94C89.39 21.94 88.4 22.46 87.92 23.24V22.13H85.13V30.5H87.92V25.57C87.92 24.8 88.54 24.17 89.31 24.17C89.6813 24.17 90.0374 24.3175 90.2999 24.5801C90.5625 24.8426 90.71 25.1987 90.71 25.57V30.5H93.5ZM81.88 20.56C82.3256 20.56 82.7529 20.383 83.0679 20.0679C83.383 19.7529 83.56 19.3256 83.56 18.88C83.56 17.95 82.81 17.19 81.88 17.19C81.4318 17.19 81.0019 17.3681 80.685 17.685C80.3681 18.0019 80.19 18.4318 80.19 18.88C80.19 19.81 80.95 20.56 81.88 20.56ZM83.27 30.5V22.13H80.5V30.5H83.27Z" fill="white"/>
<rect x="126.5" y="0.5" width="47" height="47" rx="23.5" stroke="white" stroke-opacity="0.08"/>
<path d="M151.028 14.0012C151.758 13.9984 152.488 14.0058 153.217 14.0232L153.411 14.0302C153.635 14.0382 153.856 14.0482 154.123 14.0602C155.187 14.1102 155.913 14.2782 156.55 14.5252C157.21 14.7792 157.766 15.1232 158.322 15.6792C158.83 16.1788 159.224 16.7832 159.475 17.4502C159.722 18.0872 159.89 18.8142 159.94 19.8782C159.952 20.1442 159.962 20.3662 159.97 20.5902L159.976 20.7842C159.994 21.5134 160.002 22.2428 159.999 22.9722L160 23.7182V25.0282C160.003 25.758 159.995 26.4877 159.977 27.2172L159.971 27.4112C159.963 27.6352 159.953 27.8562 159.941 28.1232C159.891 29.1872 159.721 29.9132 159.475 30.5502C159.225 31.218 158.831 31.8228 158.322 32.3222C157.822 32.8306 157.217 33.224 156.55 33.4752C155.913 33.7222 155.187 33.8902 154.123 33.9402C153.856 33.9522 153.635 33.9622 153.411 33.9702L153.217 33.9762C152.488 33.994 151.758 34.0017 151.028 33.9992L150.282 34.0002H148.973C148.243 34.0027 147.514 33.995 146.784 33.9772L146.59 33.9712C146.353 33.9626 146.115 33.9526 145.878 33.9412C144.814 33.8912 144.088 33.7212 143.45 33.4752C142.783 33.2246 142.178 32.8311 141.679 32.3222C141.17 31.8225 140.776 31.2178 140.525 30.5502C140.278 29.9132 140.11 29.1872 140.06 28.1232C140.049 27.8859 140.039 27.6486 140.03 27.4112L140.025 27.2172C140.007 26.4877 139.998 25.758 140 25.0282V22.9722C139.997 22.2428 140.005 21.5134 140.022 20.7842L140.029 20.5902C140.037 20.3662 140.047 20.1442 140.059 19.8782C140.109 18.8132 140.277 18.0882 140.524 17.4502C140.775 16.7829 141.17 16.1787 141.68 15.6802C142.179 15.171 142.783 14.7768 143.45 14.5252C144.088 14.2782 144.813 14.1102 145.878 14.0602L146.59 14.0302L146.784 14.0252C147.513 14.0068 148.243 13.9985 148.972 14.0002L151.028 14.0012ZM150 19.0012C149.338 18.9919 148.68 19.1143 148.065 19.3613C147.45 19.6083 146.891 19.9751 146.419 20.4403C145.947 20.9055 145.572 21.4598 145.317 22.071C145.061 22.6822 144.929 23.3382 144.929 24.0007C144.929 24.6633 145.061 25.3192 145.317 25.9305C145.572 26.5417 145.947 27.096 146.419 27.5612C146.891 28.0264 147.45 28.3931 148.065 28.6402C148.68 28.8872 149.338 29.0096 150 29.0002C151.326 29.0002 152.598 28.4734 153.536 27.5358C154.473 26.5981 155 25.3263 155 24.0002C155 22.6741 154.473 21.4024 153.536 20.4647C152.598 19.527 151.326 19.0012 150 19.0012ZM150 21.0012C150.399 20.9939 150.795 21.066 151.165 21.2134C151.535 21.3608 151.872 21.5806 152.157 21.8598C152.441 22.139 152.667 22.4721 152.822 22.8396C152.976 23.2071 153.055 23.6016 153.055 24.0002C153.055 24.3988 152.976 24.7934 152.822 25.1609C152.668 25.5285 152.442 25.8617 152.158 26.141C151.873 26.4203 151.536 26.6401 151.166 26.7876C150.796 26.9352 150.4 27.0074 150.001 27.0002C149.205 27.0002 148.442 26.6842 147.88 26.1216C147.317 25.5589 147.001 24.7959 147.001 24.0002C147.001 23.2046 147.317 22.4415 147.88 21.8789C148.442 21.3163 149.205 21.0002 150.001 21.0002L150 21.0012ZM155.25 17.5012C154.927 17.5141 154.622 17.6514 154.399 17.8842C154.175 18.117 154.05 18.4274 154.05 18.7502C154.05 19.0731 154.175 19.3834 154.399 19.6163C154.622 19.8491 154.927 19.9863 155.25 19.9992C155.582 19.9992 155.9 19.8675 156.134 19.6331C156.368 19.3987 156.5 19.0808 156.5 18.7492C156.5 18.4177 156.368 18.0998 156.134 17.8653C155.9 17.6309 155.582 17.4992 155.25 17.4992V17.5012Z" fill="white"/>
<rect x="189.5" y="0.5" width="47" height="47" rx="23.5" stroke="white" stroke-opacity="0.08"/>
<path d="M214.774 26.439C215.54 28.7092 216.055 31.0566 216.31 33.439C215.246 33.8112 214.127 34.0009 213 34C211.017 34.0033 209.079 33.4141 207.433 32.308C208.2 30.8871 209.245 29.635 210.506 28.6265C211.767 27.6181 213.218 26.8738 214.773 26.438L214.774 26.439ZM222.573 26.902C221.859 29.2484 220.31 31.2516 218.218 32.532C217.937 30.3347 217.448 28.1689 216.758 26.064C218.736 25.8597 220.733 26.1476 222.573 26.902ZM213.145 22.485C213.478 23.1637 213.788 23.8547 214.075 24.558C210.612 25.5727 207.672 27.8831 205.868 31.009C204.854 29.97 204.077 28.7242 203.589 27.357C203.101 25.9897 202.914 24.5332 203.041 23.087C206.384 23.795 209.911 23.589 213.145 22.485ZM220.72 17.644C222.386 19.6787 223.19 22.2844 222.96 24.904C220.76 24.0762 218.388 23.8115 216.06 24.134C215.738 23.3218 215.387 22.5219 215.005 21.736C217.148 20.7393 219.086 19.3516 220.72 17.644ZM208.266 15.19C209.761 16.8846 211.078 18.7283 212.196 20.692C209.358 21.5959 206.333 21.7441 203.42 21.122C204.187 18.5814 205.93 16.4484 208.266 15.19ZM213 14C215.388 14 217.581 14.837 219.3 16.234C217.812 17.7959 216.041 19.0604 214.08 19.96C212.977 17.9835 211.684 16.1188 210.22 14.392C211.124 14.1313 212.06 13.9993 213 14Z" fill="white"/>
</svg>
