<svg width="395" height="362" viewBox="0 0 395 362" fill="none" xmlns="http://www.w3.org/2000/svg">
<mask id="path-1-inside-1_173_1368" fill="white">
<path d="M376.436 0C386.689 0 395 8.31126 395 18.5638V343.268C395 353.521 386.689 361.832 376.436 361.832H18.5638C8.3112 361.832 0 353.521 0 343.268V89.1064C0 78.8538 8.31137 70.5425 18.564 70.5425H49.8866C59.7869 70.5425 67.9451 62.7733 68.4284 52.8848L70.1502 17.6577C70.6335 7.7692 78.7918 0 88.6921 0H376.436Z"/>
</mask>
<path d="M376.436 0C386.689 0 395 8.31126 395 18.5638V343.268C395 353.521 386.689 361.832 376.436 361.832H18.5638C8.3112 361.832 0 353.521 0 343.268V89.1064C0 78.8538 8.31137 70.5425 18.564 70.5425H49.8866C59.7869 70.5425 67.9451 62.7733 68.4284 52.8848L70.1502 17.6577C70.6335 7.7692 78.7918 0 88.6921 0H376.436Z" fill="white"/>
<path d="M395 18.5638H396.856V18.5637L395 18.5638ZM18.5638 361.832L18.5638 363.689H18.5638V361.832ZM70.1502 17.6577L68.296 17.5671L70.1502 17.6577ZM376.436 0V1.8564C385.663 1.8564 393.144 9.3365 393.144 18.5638L395 18.5638L396.856 18.5637C396.856 7.28602 387.714 -1.8564 376.436 -1.8564V0ZM395 18.5638H393.144V343.268H395H396.856V18.5638H395ZM395 343.268H393.144C393.144 352.496 385.664 359.976 376.436 359.976V361.832V363.689C387.714 363.689 396.856 354.546 396.856 343.268H395ZM376.436 361.832V359.976H18.5638V361.832V363.689H376.436V361.832ZM18.5638 361.832L18.5638 359.976C9.33646 359.976 1.8564 352.496 1.8564 343.268H0H-1.8564C-1.8564 354.546 7.28595 363.688 18.5638 363.689L18.5638 361.832ZM0 343.268H1.8564V89.1064H0H-1.8564V343.268H0ZM18.564 70.5425V72.3989H49.8866V70.5425V68.6861H18.564V70.5425ZM68.4284 52.8848L70.2826 52.9754L72.0044 17.7483L70.1502 17.6577L68.296 17.5671L66.5743 52.7942L68.4284 52.8848ZM88.6921 0V1.8564H376.436V0V-1.8564H88.6921V0ZM70.1502 17.6577L72.0044 17.7483C72.4394 8.84868 79.7818 1.8564 88.6921 1.8564V0V-1.8564C77.8017 -1.8564 68.8277 6.68973 68.296 17.5671L70.1502 17.6577ZM49.8866 70.5425V72.3989C60.777 72.3989 69.751 63.8528 70.2826 52.9754L68.4284 52.8848L66.5743 52.7942C66.1393 61.6938 58.7969 68.6861 49.8866 68.6861V70.5425ZM0 89.1064H1.8564C1.8564 79.8791 9.33663 72.3989 18.564 72.3989V70.5425V68.6861C7.28611 68.6861 -1.8564 77.8286 -1.8564 89.1064H0Z" fill="#D7E3FF" mask="url(#path-1-inside-1_173_1368)"/>
</svg>
