<svg width="297" height="278" viewBox="0 0 297 278" fill="none" xmlns="http://www.w3.org/2000/svg">
<mask id="path-1-inside-1_176_397" fill="white">
<path d="M278.53 0C288.731 0.000111681 297 8.26917 297 18.4697V259.53C297 269.731 288.731 278 278.53 278H18.4697C8.26927 278 0.000184256 269.731 0 259.53V66.47C0 56.2693 8.2693 48 18.47 48H28.9166C38.7004 48 46.7869 40.3705 47.3554 30.6033L48.1241 17.3967C48.6926 7.62944 56.7791 0 66.5629 0H278.53Z"/>
</mask>
<path d="M278.53 0C288.731 0.000111681 297 8.26917 297 18.4697V259.53C297 269.731 288.731 278 278.53 278H18.4697C8.26927 278 0.000184256 269.731 0 259.53V66.47C0 56.2693 8.2693 48 18.47 48H28.9166C38.7004 48 46.7869 40.3705 47.3554 30.6033L48.1241 17.3967C48.6926 7.62944 56.7791 0 66.5629 0H278.53Z" fill="white"/>
<path d="M278.53 0L278.53 -1.84699H278.53V0ZM297 18.4697H298.847V18.4697L297 18.4697ZM297 259.53L298.847 259.53V259.53H297ZM278.53 278V279.847H278.53L278.53 278ZM18.4697 278L18.4697 279.847H18.4697V278ZM0 259.53H-1.84699V259.53L0 259.53ZM47.3554 30.6033L45.5115 30.4959L47.3554 30.6033ZM278.53 0L278.53 1.84699C287.711 1.8471 295.153 9.28925 295.153 18.4697L297 18.4697L298.847 18.4697C298.847 7.24909 289.751 -1.84687 278.53 -1.84699L278.53 0ZM297 18.4697H295.153V259.53H297H298.847V18.4697H297ZM297 259.53L295.153 259.53C295.153 268.711 287.711 276.153 278.53 276.153L278.53 278L278.53 279.847C289.751 279.847 298.847 270.751 298.847 259.53L297 259.53ZM278.53 278V276.153H18.4697V278V279.847H278.53V278ZM18.4697 278L18.4697 276.153C9.28935 276.153 1.84716 268.711 1.84699 259.53L0 259.53L-1.84699 259.53C-1.84679 270.751 7.24918 279.847 18.4697 279.847L18.4697 278ZM0 259.53H1.84699V66.47H0H-1.84699V259.53H0ZM18.47 48V49.847H28.9166V48V46.153H18.47V48ZM47.3554 30.6033L49.1993 30.7106L49.968 17.504L48.1241 17.3967L46.2802 17.2894L45.5115 30.4959L47.3554 30.6033ZM66.5629 0V1.84699H278.53V0V-1.84699H66.5629V0ZM48.1241 17.3967L49.968 17.504C50.4797 8.71349 57.7575 1.84699 66.5629 1.84699V0V-1.84699C55.8007 -1.84699 46.9056 6.54539 46.2802 17.2894L48.1241 17.3967ZM28.9166 48V49.847C39.6788 49.847 48.5739 41.4546 49.1993 30.7106L47.3554 30.6033L45.5115 30.4959C44.9998 39.2865 37.722 46.153 28.9166 46.153V48ZM0 66.47H1.84699C1.84699 57.2894 9.28937 49.847 18.47 49.847V48V46.153C7.24923 46.153 -1.84699 55.2492 -1.84699 66.47H0Z" fill="#D7E3FF" mask="url(#path-1-inside-1_176_397)"/>
</svg>
