<svg width="299" height="264" viewBox="0 0 299 264" fill="none" xmlns="http://www.w3.org/2000/svg">
<mask id="path-1-inside-1_173_1415" fill="white">
<path d="M18.4697 0C8.26926 0.000110809 0.000152588 8.26927 0 18.4697V245.53C6.10352e-05 255.731 8.2692 264 18.4697 264H280.53C290.731 264 299 255.731 299 245.53V65.471C299 55.2703 290.731 47.001 280.53 47.001H270.071C260.292 47.001 252.208 39.3794 251.633 29.6178L250.911 17.3832C250.336 7.62156 242.252 0 232.473 0H18.4697Z"/>
</mask>
<path d="M18.4697 0C8.26926 0.000110809 0.000152588 8.26927 0 18.4697V245.53C6.10352e-05 255.731 8.2692 264 18.4697 264H280.53C290.731 264 299 255.731 299 245.53V65.471C299 55.2703 290.731 47.001 280.53 47.001H270.071C260.292 47.001 252.208 39.3794 251.633 29.6178L250.911 17.3832C250.336 7.62156 242.252 0 232.473 0H18.4697Z" fill="white"/>
<path d="M18.4697 0L18.4697 -1.84699H18.4697V0ZM0 18.4697H-1.84698V18.4697L0 18.4697ZM0 245.53L-1.84698 245.53V245.53H0ZM18.4697 264V265.847H18.4697L18.4697 264ZM280.53 264L280.53 265.847H280.53V264ZM299 245.53H300.847V245.53L299 245.53ZM250.911 17.3832L252.755 17.2745L250.911 17.3832ZM18.4697 0L18.4698 1.84699C9.28934 1.84709 1.84714 9.28933 1.84698 18.4698L0 18.4697L-1.84698 18.4697C-1.8468 7.2492 7.24918 -1.84687 18.4697 -1.84699L18.4697 0ZM0 18.4697H1.84698V245.53H0H-1.84698V18.4697H0ZM0 245.53L1.84698 245.53C1.84705 254.711 9.28928 262.153 18.4698 262.153L18.4697 264L18.4697 265.847C7.24915 265.847 -1.84692 256.751 -1.84698 245.53L0 245.53ZM18.4697 264V262.153H280.53V264V265.847H18.4697V264ZM280.53 264L280.53 262.153C289.711 262.153 297.153 254.711 297.153 245.53L299 245.53L300.847 245.53C300.847 256.751 291.751 265.847 280.53 265.847L280.53 264ZM299 245.53H297.153V65.471H299H300.847V245.53H299ZM280.53 47.001V48.848H270.071V47.001V45.154H280.53V47.001ZM251.633 29.6178L249.789 29.7265L249.068 17.4919L250.911 17.3832L252.755 17.2745L253.476 29.5091L251.633 29.6178ZM232.473 0V1.84699H18.4697V0V-1.84699H232.473V0ZM250.911 17.3832L249.068 17.4919C248.55 8.7064 241.274 1.84699 232.473 1.84699V0V-1.84699C243.23 -1.84699 252.122 6.53671 252.755 17.2745L250.911 17.3832ZM270.071 47.001V48.848C259.314 48.848 250.422 40.4643 249.789 29.7265L251.633 29.6178L253.476 29.5091C253.994 38.2946 261.27 45.154 270.071 45.154V47.001ZM299 65.471H297.153C297.153 56.2903 289.711 48.848 280.53 48.848V47.001V45.154C291.751 45.154 300.847 54.2502 300.847 65.471H299Z" fill="#D7E3FF" mask="url(#path-1-inside-1_173_1415)"/>
</svg>
