<svg width="1226" height="378" viewBox="0 0 1226 378" fill="none" xmlns="http://www.w3.org/2000/svg">
<mask id="path-1-inside-1_0_141" fill="white">
<path d="M1206 0C1217.05 0 1226 8.9543 1226 20V358C1226 369.046 1217.05 378 1206 378H20C8.95431 378 0 369.046 0 358V20C0 8.95431 8.95431 0 20 0H223.956C239.357 0 250.333 18.9444 255.564 33.4292C256.137 35.0153 256.818 36.5918 257.612 38.1514L258.631 40.1514C265.458 53.558 279.23 62 294.275 62H931.725C946.769 62 960.542 53.558 967.369 40.1514L968.388 38.1514C969.182 36.5918 969.863 35.0153 970.436 33.4292C975.667 18.9444 986.643 0 1002.04 0H1206Z"/>
</mask>
<path d="M1206 0C1217.05 0 1226 8.9543 1226 20V358C1226 369.046 1217.05 378 1206 378H20C8.95431 378 0 369.046 0 358V20C0 8.95431 8.95431 0 20 0H223.956C239.357 0 250.333 18.9444 255.564 33.4292C256.137 35.0153 256.818 36.5918 257.612 38.1514L258.631 40.1514C265.458 53.558 279.23 62 294.275 62H931.725C946.769 62 960.542 53.558 967.369 40.1514L968.388 38.1514C969.182 36.5918 969.863 35.0153 970.436 33.4292C975.667 18.9444 986.643 0 1002.04 0H1206Z" fill="white"/>
<path d="M257.612 38.1514L255.83 39.0589L255.83 39.059L257.612 38.1514ZM258.631 40.1514L260.413 39.2438L260.413 39.2437L258.631 40.1514ZM294.275 62V64V62ZM931.725 62V64V62ZM967.369 40.1514L965.587 39.2437L965.587 39.2438L967.369 40.1514ZM968.388 38.1514L970.17 39.059L970.17 39.0589L968.388 38.1514ZM970.436 33.4292L968.555 32.7499L970.436 33.4292ZM1206 0V2C1215.94 2 1224 10.0589 1224 20H1226H1228C1228 7.84974 1218.15 -2 1206 -2V0ZM1226 20H1224V358H1226H1228V20H1226ZM1226 358H1224C1224 367.941 1215.94 376 1206 376V378V380C1218.15 380 1228 370.15 1228 358H1226ZM1206 378V376H20V378V380H1206V378ZM20 378V376C10.0589 376 2 367.941 2 358H0H-2C-2 370.15 7.84974 380 20 380V378ZM0 358H2V20H0H-2V358H0ZM0 20H2C2 10.0589 10.0589 2 20 2V0V-2C7.84974 -2 -2 7.84974 -2 20H0ZM20 0V2H223.956V0V-2H20V0ZM255.564 33.4292L253.683 34.1085C254.284 35.773 254.998 37.4257 255.83 39.0589L257.612 38.1514L259.395 37.2438C258.638 35.7579 257.99 34.2576 257.445 32.7499L255.564 33.4292ZM257.612 38.1514L255.83 39.059L256.849 41.059L258.631 40.1514L260.413 39.2437L259.395 37.2437L257.612 38.1514ZM258.631 40.1514L256.849 41.0589C264.017 55.136 278.478 64 294.275 64V62V60C279.983 60 266.899 51.9801 260.413 39.2438L258.631 40.1514ZM294.275 62V64H931.725V62V60H294.275V62ZM931.725 62V64C947.522 64 961.983 55.136 969.151 41.0589L967.369 40.1514L965.587 39.2438C959.101 51.9801 946.017 60 931.725 60V62ZM967.369 40.1514L969.151 41.059L970.17 39.059L968.388 38.1514L966.606 37.2437L965.587 39.2437L967.369 40.1514ZM968.388 38.1514L970.17 39.0589C971.002 37.4257 971.716 35.773 972.317 34.1085L970.436 33.4292L968.555 32.7499C968.01 34.2576 967.362 35.7579 966.605 37.2438L968.388 38.1514ZM1002.04 0V2H1206V0V-2H1002.04V0ZM970.436 33.4292L972.317 34.1085C974.887 26.993 978.844 18.8588 983.978 12.5445C989.137 6.19964 995.22 2 1002.04 2V0V-2C993.467 -2 986.362 3.27255 980.874 10.0211C975.362 16.8002 971.216 25.3806 968.555 32.7499L970.436 33.4292ZM223.956 0V2C230.78 2 236.863 6.19963 242.022 12.5445C247.156 18.8588 251.113 26.9929 253.683 34.1085L255.564 33.4292L257.445 32.7499C254.784 25.3806 250.638 16.8002 245.126 10.0211C239.638 3.27255 232.533 -2 223.956 -2V0Z" fill="#D9E5FF" mask="url(#path-1-inside-1_0_141)"/>
</svg>
