<svg width="395" height="362" viewBox="0 0 395 362" fill="none" xmlns="http://www.w3.org/2000/svg">
<mask id="path-1-inside-1_127_1142" fill="white">
<path d="M376.436 0C386.689 0 395 8.31126 395 18.5638V343.268C395 353.521 386.689 361.832 376.436 361.832H18.5638C8.3112 361.832 0 353.521 0 343.268V89.1074C0 78.8548 8.31137 70.5434 18.564 70.5434H49.8866C59.7869 70.5434 67.9451 62.7742 68.4284 52.8857L70.1502 17.6577C70.6335 7.7692 78.7917 0 88.692 0H376.436Z"/>
</mask>
<path d="M376.436 0C386.689 0 395 8.31126 395 18.5638V343.268C395 353.521 386.689 361.832 376.436 361.832H18.5638C8.3112 361.832 0 353.521 0 343.268V89.1074C0 78.8548 8.31137 70.5434 18.564 70.5434H49.8866C59.7869 70.5434 67.9451 62.7742 68.4284 52.8857L70.1502 17.6577C70.6335 7.7692 78.7917 0 88.692 0H376.436Z" fill="white"/>
<path d="M395 18.5638H396.856V18.5637L395 18.5638ZM18.5638 361.832L18.5637 363.688H18.5638V361.832ZM376.436 0V1.8564C385.663 1.8564 393.143 9.3365 393.143 18.5638L395 18.5638L396.856 18.5637C396.856 7.28601 387.714 -1.8564 376.436 -1.8564V0ZM395 18.5638H393.143V343.268H395H396.856V18.5638H395ZM395 343.268H393.143C393.143 352.496 385.663 359.976 376.436 359.976V361.832V363.688C387.714 363.688 396.856 354.546 396.856 343.268H395ZM376.436 361.832V359.976H18.5638V361.832V363.688H376.436V361.832ZM18.5638 361.832L18.5638 359.976C9.33645 359.976 1.8564 352.496 1.8564 343.268H0H-1.8564C-1.8564 354.546 7.28595 363.688 18.5637 363.688L18.5638 361.832ZM0 343.268H1.8564V89.1074H0H-1.8564V343.268H0ZM18.564 70.5434V72.3998H49.8866V70.5434V68.687H18.564V70.5434ZM68.4284 52.8857L70.2826 52.9763L72.0044 17.7483L70.1502 17.6577L68.296 17.5671L66.5742 52.7951L68.4284 52.8857ZM88.692 0V1.8564H376.436V0V-1.8564H88.692V0ZM70.1502 17.6577L72.0044 17.7483C72.4394 8.84868 79.7818 1.8564 88.692 1.8564V0V-1.8564C77.8017 -1.8564 68.8277 6.68973 68.296 17.5671L70.1502 17.6577ZM49.8866 70.5434V72.3998C60.7769 72.3998 69.751 63.8537 70.2826 52.9763L68.4284 52.8857L66.5742 52.7951C66.1393 61.6947 58.7969 68.687 49.8866 68.687V70.5434ZM0 89.1074H1.8564C1.8564 79.8801 9.33662 72.3998 18.564 72.3998V70.5434V68.687C7.28611 68.687 -1.8564 77.8295 -1.8564 89.1074H0Z" fill="#D7E3FF" mask="url(#path-1-inside-1_127_1142)"/>
</svg>
