<svg width="297" height="264" viewBox="0 0 297 264" fill="none" xmlns="http://www.w3.org/2000/svg">
<mask id="path-1-inside-1_127_1607" fill="white">
<path d="M278.53 0C288.731 0.000111681 297 8.26919 297 18.4697V245.53C297 255.731 288.731 264 278.53 264H18.4697C8.26926 264 0.000167546 255.731 0 245.53V66.47C0 56.2693 8.2693 48 18.47 48H28.9166C38.7004 48 46.7869 40.3705 47.3554 30.6033L48.1241 17.3967C48.6926 7.62944 56.7791 0 66.5629 0H278.53Z"/>
</mask>
<path d="M278.53 0C288.731 0.000111681 297 8.26919 297 18.4697V245.53C297 255.731 288.731 264 278.53 264H18.4697C8.26926 264 0.000167546 255.731 0 245.53V66.47C0 56.2693 8.2693 48 18.47 48H28.9166C38.7004 48 46.7869 40.3705 47.3554 30.6033L48.1241 17.3967C48.6926 7.62944 56.7791 0 66.5629 0H278.53Z" fill="white"/>
<path d="M278.53 0L278.53 -1.84699H278.53V0ZM297 18.4697H298.847V18.4697L297 18.4697ZM297 245.53L298.847 245.53V245.53H297ZM278.53 264V265.847H278.53L278.53 264ZM18.4697 264L18.4697 265.847H18.4697V264ZM0 245.53H-1.84699V245.53L0 245.53ZM47.3554 30.6033L45.5115 30.4959L47.3554 30.6033ZM278.53 0L278.53 1.84699C287.711 1.8471 295.153 9.28926 295.153 18.4697L297 18.4697L298.847 18.4697C298.847 7.24911 289.751 -1.84687 278.53 -1.84699L278.53 0ZM297 18.4697H295.153V245.53H297H298.847V18.4697H297ZM297 245.53L295.153 245.53C295.153 254.711 287.711 262.153 278.53 262.153L278.53 264L278.53 265.847C289.751 265.847 298.847 256.751 298.847 245.53L297 245.53ZM278.53 264V262.153H18.4697V264V265.847H278.53V264ZM18.4697 264L18.4697 262.153C9.28934 262.153 1.84715 254.711 1.84699 245.53L0 245.53L-1.84699 245.53C-1.84681 256.751 7.24917 265.847 18.4697 265.847L18.4697 264ZM0 245.53H1.84699V66.47H0H-1.84699V245.53H0ZM18.47 48V49.847H28.9166V48V46.153H18.47V48ZM47.3554 30.6033L49.1993 30.7106L49.968 17.504L48.1241 17.3967L46.2802 17.2894L45.5115 30.4959L47.3554 30.6033ZM66.5629 0V1.84699H278.53V0V-1.84699H66.5629V0ZM48.1241 17.3967L49.968 17.504C50.4797 8.71349 57.7575 1.84699 66.5629 1.84699V0V-1.84699C55.8007 -1.84699 46.9056 6.54539 46.2802 17.2894L48.1241 17.3967ZM28.9166 48V49.847C39.6788 49.847 48.5739 41.4546 49.1993 30.7106L47.3554 30.6033L45.5115 30.4959C44.9998 39.2865 37.722 46.153 28.9166 46.153V48ZM0 66.47H1.84699C1.84699 57.2894 9.28937 49.847 18.47 49.847V48V46.153C7.24923 46.153 -1.84699 55.2492 -1.84699 66.47H0Z" fill="#D7E3FF" mask="url(#path-1-inside-1_127_1607)"/>
</svg>
