<svg width="299" height="264" viewBox="0 0 299 264" fill="none" xmlns="http://www.w3.org/2000/svg">
<mask id="path-1-inside-1_176_448" fill="white">
<path d="M18.4697 0C8.26917 0.000110812 3.05176e-05 8.26916 0 18.4697V245.53C0.000183105 255.731 8.26929 264 18.4697 264H280.53C290.731 264 299 255.731 299 245.53V65.47C299 55.2693 290.731 47 280.53 47H270.071C260.292 47 252.208 39.3785 251.633 29.6169L250.911 17.3831C250.336 7.62154 242.252 0 232.473 0H18.4697Z"/>
</mask>
<path d="M18.4697 0C8.26917 0.000110812 3.05176e-05 8.26916 0 18.4697V245.53C0.000183105 255.731 8.26929 264 18.4697 264H280.53C290.731 264 299 255.731 299 245.53V65.47C299 55.2693 290.731 47 280.53 47H270.071C260.292 47 252.208 39.3785 251.633 29.6169L250.911 17.3831C250.336 7.62154 242.252 0 232.473 0H18.4697Z" fill="white"/>
<path d="M18.4697 0L18.4697 -1.84699H18.4697V0ZM0 18.4697H-1.84698V18.4697L0 18.4697ZM0 245.53L-1.84698 245.53V245.53H0ZM18.4697 264V265.847H18.4697L18.4697 264ZM280.53 264L280.53 265.847H280.53V264ZM299 245.53H300.847V245.53L299 245.53ZM251.633 29.6169L253.476 29.5082L251.633 29.6169ZM18.4697 0L18.4698 1.84699C9.28925 1.84709 1.84705 9.28924 1.84698 18.4697L0 18.4697L-1.84698 18.4697C-1.84695 7.24908 7.24911 -1.84687 18.4697 -1.84699L18.4697 0ZM0 18.4697H1.84698V245.53H0H-1.84698V18.4697H0ZM0 245.53L1.84698 245.53C1.84717 254.711 9.28937 262.153 18.4698 262.153L18.4697 264L18.4697 265.847C7.24921 265.847 -1.84677 256.751 -1.84698 245.53L0 245.53ZM18.4697 264V262.153H280.53V264V265.847H18.4697V264ZM280.53 264L280.53 262.153C289.711 262.153 297.153 254.711 297.153 245.53L299 245.53L300.847 245.53C300.847 256.751 291.751 265.847 280.53 265.847L280.53 264ZM299 245.53H297.153V65.47H299H300.847V245.53H299ZM280.53 47V48.847H270.071V47V45.153H280.53V47ZM251.633 29.6169L249.789 29.7255L249.068 17.4918L250.911 17.3831L252.755 17.2745L253.476 29.5082L251.633 29.6169ZM232.473 0V1.84699H18.4697V0V-1.84699H232.473V0ZM250.911 17.3831L249.068 17.4918C248.55 8.70638 241.274 1.84699 232.473 1.84699V0V-1.84699C243.23 -1.84699 252.122 6.5367 252.755 17.2745L250.911 17.3831ZM270.071 47V48.847C259.314 48.847 250.422 40.4633 249.789 29.7255L251.633 29.6169L253.476 29.5082C253.994 38.2936 261.27 45.153 270.071 45.153V47ZM299 65.47H297.153C297.153 56.2894 289.711 48.847 280.53 48.847V47V45.153C291.751 45.153 300.847 54.2492 300.847 65.47H299Z" fill="#D7E3FF" mask="url(#path-1-inside-1_176_448)"/>
</svg>
