<svg width="11" height="11" viewBox="0 0 11 11" fill="none" xmlns="http://www.w3.org/2000/svg">
<path d="M9.62312 0.236435C9.93837 -0.0787428 10.4485 -0.0788045 10.7637 0.236435C11.0788 0.551659 11.0789 1.06179 10.7637 1.37701L6.64057 5.50013L10.7637 9.62326C11.0788 9.93851 11.0789 10.4486 10.7637 10.7638C10.6065 10.9209 10.3991 10.9997 10.1929 10.9997C10.0872 10.9998 9.98199 10.9791 9.88431 10.9387C9.8355 10.9184 9.789 10.8931 9.74529 10.8639L9.62312 10.7638L5.5 6.6407L1.37688 10.7638C1.21976 10.9207 1.01316 10.9997 0.807116 10.9997C0.701326 10.9998 0.596287 10.9791 0.49854 10.9387C0.449534 10.9183 0.402334 10.8933 0.35847 10.8639L0.236303 10.7638C-0.0788242 10.4487 -0.0786468 9.93851 0.236303 9.62326L4.35943 5.50013L0.236303 1.37701C-0.0788423 1.06185 -0.0786727 0.551698 0.236303 0.236435C0.55155 -0.0788207 1.06148 -0.0787105 1.37688 0.236435L5.5 4.35956L9.62312 0.236435Z" fill="#212833" fill-opacity="0.43"/>
</svg>
