<svg width="124" height="124" viewBox="0 0 124 124" fill="none" xmlns="http://www.w3.org/2000/svg">
<g filter="url(#filter0_d_127_1147)">
<rect x="10.8755" y="10.0978" width="63.4126" height="63.4126" rx="17.7905" fill="url(#paint0_linear_127_1147)" shape-rendering="crispEdges"/>
<path d="M41.6597 55.289C42.067 55.5242 42.5291 55.648 42.9995 55.648C43.4699 55.648 43.9319 55.5242 44.3393 55.289L53.7179 49.9298C54.1248 49.6949 54.4628 49.357 54.698 48.9502C54.9332 48.5434 55.0572 48.0819 55.0577 47.612V36.8936C55.0572 36.4237 54.9332 35.9622 54.698 35.5553C54.4628 35.1485 54.1248 34.8107 53.7179 34.5757L44.3393 29.2165C43.9319 28.9813 43.4699 28.8575 42.9995 28.8575C42.5291 28.8575 42.067 28.9813 41.6597 29.2165L32.2811 34.5757C31.8742 34.8107 31.5362 35.1485 31.301 35.5553C31.0658 35.9622 30.9418 36.4237 30.9413 36.8936V47.612C30.9418 48.0819 31.0658 48.5434 31.301 48.9502C31.5362 49.357 31.8742 49.6949 32.2811 49.9298L41.6597 55.289Z" stroke="white" stroke-width="1.67" stroke-linecap="round" stroke-linejoin="round"/>
<path d="M42.9995 55.651V42.253" stroke="white" stroke-width="1.67" stroke-linecap="round" stroke-linejoin="round"/>
<path d="M31.3299 35.5539L42.9995 42.2529L54.6692 35.5539" stroke="white" stroke-width="1.67" stroke-linecap="round" stroke-linejoin="round"/>
<path d="M36.9704 31.8964L49.0286 38.7963" stroke="white" stroke-width="1.67" stroke-linecap="round" stroke-linejoin="round"/>
</g>
<defs>
<filter id="filter0_d_127_1147" x="4.59983e-05" y="-9.00801e-05" width="124" height="124" filterUnits="userSpaceOnUse" color-interpolation-filters="sRGB">
<feFlood flood-opacity="0" result="BackgroundImageFix"/>
<feColorMatrix in="SourceAlpha" type="matrix" values="0 0 0 0 0 0 0 0 0 0 0 0 0 0 0 0 0 0 127 0" result="hardAlpha"/>
<feOffset dx="19.3245" dy="20.0983"/>
<feGaussianBlur stdDeviation="15.0737"/>
<feComposite in2="hardAlpha" operator="out"/>
<feColorMatrix type="matrix" values="0 0 0 0 0 0 0 0 0 0.306122 0 0 0 0 1 0 0 0 0.28 0"/>
<feBlend mode="normal" in2="BackgroundImageFix" result="effect1_dropShadow_127_1147"/>
<feBlend mode="normal" in="SourceGraphic" in2="effect1_dropShadow_127_1147" result="shape"/>
</filter>
<linearGradient id="paint0_linear_127_1147" x1="-1.80703" y1="0.804581" x2="90.5158" y2="62.2585" gradientUnits="userSpaceOnUse">
<stop stop-color="#6896FF"/>
<stop offset="1" stop-color="#004EFF"/>
</linearGradient>
</defs>
</svg>
