<svg width="38" height="38" viewBox="0 0 38 38" fill="none" xmlns="http://www.w3.org/2000/svg">
<rect width="38" height="38" rx="19" fill="white"/>
<rect width="38" height="38" rx="19" fill="#DEE8FF"/>
<path d="M27.7353 18.5637C27.5028 18.3311 27.2702 18.2536 26.9601 18.2536L11.4562 18.2536C10.836 18.2536 10.3709 18.7187 10.3709 19.3389C10.3709 19.959 10.836 20.4241 11.4562 20.4241L26.9601 20.4241C27.5803 20.4241 28.0454 19.959 28.0454 19.3389C28.0454 19.0288 27.9679 18.7962 27.7353 18.5637Z" fill="#004EFF"/>
<path d="M27.7352 18.5637L20.7584 11.5869C20.2933 11.1218 19.6732 11.1218 19.208 11.5869C18.7429 12.052 18.7429 12.6722 19.208 13.1373L25.4096 19.3389L19.208 25.5405C18.7429 26.0056 18.7429 26.6257 19.208 27.0909C19.6732 27.556 20.2933 27.556 20.7584 27.0909L27.7352 20.1141C28.2004 19.6489 28.2004 19.0288 27.7352 18.5637Z" fill="#004EFF"/>
</svg>
