<svg width="24" height="24" viewBox="0 0 24 24" fill="none" xmlns="http://www.w3.org/2000/svg">
<rect width="24" height="24" rx="12" fill="#004EFF" fill-opacity="0.15"/>
<path d="M18.7106 7.20972C18.6178 7.11568 18.5071 7.04101 18.3852 6.99005C18.2632 6.93908 18.1324 6.91284 18.0002 6.91284C17.8681 6.91284 17.7372 6.93908 17.6153 6.99005C17.4933 7.04101 17.3827 7.11568 17.2898 7.20972L9.84023 14.6708L6.71063 11.5307C6.58988 11.4137 6.44211 11.3283 6.28043 11.2821C6.11875 11.236 5.94818 11.2305 5.78386 11.2661C5.61953 11.3017 5.46655 11.3773 5.3385 11.4863C5.21045 11.5953 5.11129 11.7342 5.04983 11.8907C4.97568 12.0787 4.9589 12.2844 5.00162 12.4819C5.04433 12.6795 5.14463 12.8599 5.28983 13.0004L9.12983 16.8404C9.2228 16.9343 9.33344 17.0088 9.45538 17.0597C9.57731 17.1105 9.70812 17.1367 9.84023 17.1367C9.97234 17.1367 10.1031 17.1105 10.2251 17.0597C10.347 17.0088 10.4577 16.9343 10.5506 16.8404L18.7106 8.68044C18.8121 8.58681 18.8931 8.47318 18.9485 8.3467C19.0039 8.22022 19.0325 8.08364 19.0325 7.94556C19.0325 7.80748 19.0039 7.6709 18.9485 7.54442C18.8931 7.41794 18.8121 7.30431 18.7106 7.21068V7.20972Z" fill="#004EFF"/>
</svg>
