<svg width="176" height="30" viewBox="0 0 176 30" fill="none" xmlns="http://www.w3.org/2000/svg">
<g clip-path="url(#clip0_192_1622)">
<path d="M0 29.9998V8.55154L8.36688 0.00123074H10.4925V8.88312L2.48745 17.1019V18.8971L2.5779 18.8026L21.0292 -0.000507355H23.2V8.88138L15.1972 17.1019V18.8971C16.9452 17.1013 18.9197 15.0856 21.1207 12.8502C23.3217 10.6147 25.5453 8.34701 27.7915 6.04703C30.0376 3.74762 32.005 1.73187 33.6937 -0.000217673H35.8645V8.88167L27.8595 17.1019V18.8971L35.8645 10.7236V21.8245L27.8595 29.9998H25.372V19.6061L15.1972 29.9998H12.7086V19.6061L2.48745 29.9998H0Z" fill="url(#paint0_linear_192_1622)"/>
<path d="M66.4721 23.9826V5.50698H63.4344L56.1893 21.3114H56.136L48.9709 5.50698H45.9609V23.9826H47.8788V7.73296H47.932L55.3103 23.9826H56.9618L64.4466 7.56601H64.4999V23.9826H66.4721ZM81.6548 23.9826V10.9885H79.8702V17.6664C79.8702 20.7271 78.272 22.5914 75.7149 22.5914C73.3709 22.5914 71.9325 21.0054 71.9325 18.2785V10.9885H70.1468V18.5011C70.1468 22.0905 72.1168 24.2609 75.3409 24.2609C77.5251 24.2609 79.1233 23.3148 80.0023 21.6453H80.0555L80.1354 23.9826H81.6548ZM92.1762 21.8401H92.0963C91.8543 22.0964 91.5629 22.2959 91.2414 22.4254C90.92 22.5549 90.5758 22.6115 90.2317 22.5914C88.82 22.5914 87.941 21.5897 87.941 19.8924V12.6023H92.1229V10.9885H87.9399V7.51036H86.5015L86.2085 10.9885H83.758V12.6023H86.1553V19.948C86.1553 22.7015 87.5404 24.2609 90.0175 24.2609C90.7664 24.2958 91.5109 24.123 92.1751 23.76L92.1762 21.8401ZM106.773 18.0559V16.9708C106.773 13.1866 104.296 10.7102 100.46 10.7102C96.6511 10.7102 93.9875 13.5217 93.9875 17.4994C93.9864 21.5897 96.7832 24.2609 101.125 24.2609C103.095 24.2609 104.827 23.6765 105.946 22.647V20.7271H105.866C104.641 21.9792 103.069 22.5914 101.177 22.5914C98.0873 22.5914 96.0363 20.8384 95.7965 18.0559H106.773ZM100.486 12.3797C103.096 12.3797 104.881 13.9657 105.119 16.4421H95.7965C96.1972 14.0214 98.0351 12.3797 100.486 12.3797ZM117.666 9.17985H122.913V5.50698H108.45V9.17985H113.724V23.9826H117.666V9.17985ZM135.299 23.9826V10.905H132.397L132.264 12.6023H132.211C131.412 11.3502 130 10.6267 128.162 10.6267C124.619 10.6267 122.036 13.4927 122.036 17.4438C122.036 21.3949 124.618 24.2609 128.161 24.2609C130.025 24.2609 131.41 23.5096 132.236 22.2297H132.289L132.397 23.9826H135.299ZM128.747 21.0332C126.856 21.0332 125.55 19.5585 125.55 17.4438C125.55 15.3291 126.855 13.8544 128.747 13.8544C130.611 13.8544 131.917 15.3291 131.917 17.4438C131.917 19.5585 130.611 21.0332 128.747 21.0332ZM144.063 19.5863L146.886 23.9826H151.095L146.381 17.249L150.828 10.905H146.805L144.248 14.8839L141.664 10.905H137.457L141.932 17.249L137.191 23.9826H141.239L144.063 19.5863ZM164.2 18.362V16.8873C164.2 13.0475 161.776 10.6267 157.887 10.6267C154.078 10.6267 151.361 13.4382 151.361 17.4438C151.361 21.4784 154.372 24.2609 158.793 24.2609C160.737 24.2609 162.415 23.8157 163.454 23.0366V19.5295H163.321C162.309 20.559 160.764 21.1155 158.953 21.1155C156.795 21.1155 155.25 20.1416 154.877 18.362H164.2ZM157.994 13.7709C159.645 13.7709 160.817 14.5778 161.057 16.1639H154.877C155.223 14.6335 156.502 13.7709 157.994 13.7709ZM171.232 10.6267C168.062 10.6267 166.011 12.324 166.011 14.9674C166.011 17.5551 167.263 18.5568 170.433 18.8629C172.191 19.0298 172.724 19.3081 172.724 20.0037C172.724 20.8384 172.058 21.2558 170.698 21.2558C168.754 21.2558 167.262 20.6993 166.276 19.5863H166.117V23.0934C167.183 23.8713 168.781 24.2609 170.859 24.2609C174.082 24.2609 176 22.6748 176 20.0037C176 17.2502 174.696 16.0247 171.366 15.801C169.715 15.6897 169.289 15.4393 169.289 14.8549C169.289 14.048 169.954 13.6306 171.314 13.6306C172.939 13.6306 174.217 14.0758 175.043 14.9384H175.176V11.4603C174.189 10.9328 172.75 10.6267 171.232 10.6267Z" fill="#1E1E1E"/>
</g>
<defs>
<linearGradient id="paint0_linear_192_1622" x1="-4.09904e-07" y1="8.5" x2="38.3376" y2="34.005" gradientUnits="userSpaceOnUse">
<stop stop-color="#6896FF"/>
<stop offset="1" stop-color="#004EFF"/>
</linearGradient>
<clipPath id="clip0_192_1622">
<rect width="176" height="30" fill="white"/>
</clipPath>
</defs>
</svg>
