<svg width="390" height="366" viewBox="0 0 390 366" fill="none" xmlns="http://www.w3.org/2000/svg">
<mask id="path-1-inside-1_201_2489" fill="white">
<path d="M365.616 0C379.083 0 390 10.917 390 24.3838V341.616C390 355.083 379.083 366 365.616 366H24.3838C10.9171 366 9.844e-05 355.083 0 341.616V24.3838C0 10.917 10.917 0 24.3838 0H119.381C132.385 0 143.1 10.2048 143.735 23.1934L143.945 27.4961C144.58 40.4846 155.296 50.6895 168.3 50.6895H220.645C233.649 50.6895 244.365 40.4846 245 27.4961L245.21 23.1933C245.845 10.2048 256.561 0 269.565 0H365.616Z"/>
</mask>
<path d="M365.616 0C379.083 0 390 10.917 390 24.3838V341.616C390 355.083 379.083 366 365.616 366H24.3838C10.9171 366 9.844e-05 355.083 0 341.616V24.3838C0 10.917 10.917 0 24.3838 0H119.381C132.385 0 143.1 10.2048 143.735 23.1934L143.945 27.4961C144.58 40.4846 155.296 50.6895 168.3 50.6895H220.645C233.649 50.6895 244.365 40.4846 245 27.4961L245.21 23.1933C245.845 10.2048 256.561 0 269.565 0H365.616Z" fill="white"/>
<path d="M390 341.616L392.438 341.616V341.616H390ZM0 341.616H-2.43837V341.616L0 341.616ZM245 27.4961L242.564 27.3771L245 27.4961ZM143.735 23.1934L141.3 23.3124L143.735 23.1934ZM365.616 0V2.43837C377.736 2.43837 387.562 12.2637 387.562 24.3838H390H392.438C392.438 9.57035 380.43 -2.43837 365.616 -2.43837V0ZM390 24.3838H387.562V341.616H390H392.438V24.3838H390ZM390 341.616L387.562 341.616C387.562 353.736 377.736 363.562 365.616 363.562V366V368.438C380.43 368.438 392.438 356.43 392.438 341.616L390 341.616ZM365.616 366V363.562H24.3838V366V368.438H365.616V366ZM24.3838 366V363.562C12.2638 363.562 2.43846 353.736 2.43837 341.616L0 341.616L-2.43837 341.616C-2.43826 356.43 9.5704 368.438 24.3838 368.438V366ZM0 341.616H2.43837V24.3838H0H-2.43837V341.616H0ZM0 24.3838H2.43837C2.43837 12.2637 12.2637 2.43837 24.3838 2.43837V0V-2.43837C9.57035 -2.43837 -2.43837 9.57035 -2.43837 24.3838H0ZM24.3838 0V2.43837H119.381V0V-2.43837H24.3838V0ZM143.735 23.1934L141.3 23.3124L141.51 27.6152L143.945 27.4961L146.381 27.3771L146.171 23.0743L143.735 23.1934ZM168.3 50.6895V53.1278H220.645V50.6895V48.2511H168.3V50.6895ZM245 27.4961L247.435 27.6151L247.646 23.3124L245.21 23.1933L242.775 23.0743L242.564 27.3771L245 27.4961ZM269.565 0V2.43837H365.616V0V-2.43837H269.565V0ZM245.21 23.1933L247.646 23.3124C248.217 11.6227 257.861 2.43837 269.565 2.43837V0V-2.43837C255.26 -2.43837 243.473 8.78693 242.775 23.0743L245.21 23.1933ZM220.645 50.6895V53.1278C234.95 53.1278 246.737 41.9025 247.435 27.6151L245 27.4961L242.564 27.3771C241.993 39.0667 232.349 48.2511 220.645 48.2511V50.6895ZM143.945 27.4961L141.51 27.6152C142.208 41.9025 153.996 53.1278 168.3 53.1278V50.6895V48.2511C156.597 48.2511 146.952 39.0667 146.381 27.3771L143.945 27.4961ZM119.381 0V2.43837C131.084 2.43837 140.728 11.6227 141.3 23.3124L143.735 23.1934L146.171 23.0743C145.472 8.78695 133.685 -2.43837 119.381 -2.43837V0Z" fill="#F14336" fill-opacity="0.32" mask="url(#path-1-inside-1_201_2489)"/>
</svg>
