<svg width="390" height="260" viewBox="0 0 390 260" fill="none" xmlns="http://www.w3.org/2000/svg">
<mask id="path-1-inside-1_192_1927" fill="white">
<path d="M365.616 0C379.083 0 390 10.917 390 24.3838V235.616C390 249.083 379.083 260 365.616 260H24.3838C10.917 260 0 249.083 0 235.616V24.3838C0 10.917 10.917 0 24.3838 0H119.609C132.608 0 143.322 10.1976 143.963 23.181L144.134 26.6491C144.776 39.6325 155.489 49.8301 168.489 49.8301H220.858C233.857 49.8301 244.571 39.6325 245.212 26.6491L245.383 23.1809C246.025 10.1975 256.738 0 269.738 0H365.616Z"/>
</mask>
<path d="M365.616 0C379.083 0 390 10.917 390 24.3838V235.616C390 249.083 379.083 260 365.616 260H24.3838C10.917 260 0 249.083 0 235.616V24.3838C0 10.917 10.917 0 24.3838 0H119.609C132.608 0 143.322 10.1976 143.963 23.181L144.134 26.6491C144.776 39.6325 155.489 49.8301 168.489 49.8301H220.858C233.857 49.8301 244.571 39.6325 245.212 26.6491L245.383 23.1809C246.025 10.1975 256.738 0 269.738 0H365.616Z" fill="white"/>
<path d="M245.383 23.1809L247.819 23.3012L245.383 23.1809ZM245.212 26.6491L242.777 26.5288L245.212 26.6491ZM144.134 26.6491L146.57 26.5289L144.134 26.6491ZM143.963 23.181L141.528 23.3012L143.963 23.181ZM365.616 0V2.43837C377.736 2.43837 387.562 12.2637 387.562 24.3838H390H392.438C392.438 9.57035 380.43 -2.43837 365.616 -2.43837V0ZM390 24.3838H387.562V235.616H390H392.438V24.3838H390ZM390 235.616H387.562C387.562 247.736 377.736 257.562 365.616 257.562V260V262.438C380.43 262.438 392.438 250.43 392.438 235.616H390ZM365.616 260V257.562H24.3838V260V262.438H365.616V260ZM24.3838 260V257.562C12.2637 257.562 2.43837 247.736 2.43837 235.616H0H-2.43837C-2.43837 250.43 9.57035 262.438 24.3838 262.438V260ZM0 235.616H2.43837V24.3838H0H-2.43837V235.616H0ZM0 24.3838H2.43837C2.43837 12.2637 12.2637 2.43837 24.3838 2.43837V0V-2.43837C9.57035 -2.43837 -2.43837 9.57035 -2.43837 24.3838H0ZM24.3838 0V2.43837H119.609V0V-2.43837H24.3838V0ZM143.963 23.181L141.528 23.3012L141.699 26.7694L144.134 26.6491L146.57 26.5289L146.399 23.0607L143.963 23.181ZM168.489 49.8301V52.2685H220.858V49.8301V47.3917H168.489V49.8301ZM245.212 26.6491L247.648 26.7694L247.819 23.3012L245.383 23.1809L242.948 23.0607L242.777 26.5288L245.212 26.6491ZM269.738 0V2.43837H365.616V0V-2.43837H269.738V0ZM245.383 23.1809L247.819 23.3012C248.396 11.6162 258.038 2.43837 269.738 2.43837V0V-2.43837C255.438 -2.43837 243.653 8.77892 242.948 23.0607L245.383 23.1809ZM220.858 49.8301V52.2685C235.157 52.2685 246.942 41.0511 247.648 26.7694L245.212 26.6491L242.777 26.5288C242.2 38.2139 232.557 47.3917 220.858 47.3917V49.8301ZM144.134 26.6491L141.699 26.7694C142.404 41.0512 154.189 52.2685 168.489 52.2685V49.8301V47.3917C156.789 47.3917 147.147 38.2139 146.57 26.5289L144.134 26.6491ZM119.609 0V2.43837C131.308 2.43837 140.951 11.6162 141.528 23.3012L143.963 23.181L146.399 23.0607C145.693 8.77895 133.908 -2.43837 119.609 -2.43837V0Z" fill="#D7E3FF" mask="url(#path-1-inside-1_192_1927)"/>
</svg>
