<svg width="390" height="260" viewBox="0 0 390 260" fill="none" xmlns="http://www.w3.org/2000/svg">
<mask id="path-1-inside-1_192_1896" fill="white">
<path d="M365.615 0C379.081 0 389.998 10.9172 389.999 24.3837V235.616C389.998 249.083 379.081 260 365.615 260H24.3837C10.9171 260 0.00023133 249.083 0 235.616V24.3837C0.000229237 10.9172 10.9171 0 24.3837 0H119.52C132.519 0 143.233 10.1975 143.874 23.1809L144.134 28.4478C144.775 41.4312 155.489 51.6287 168.488 51.6287H220.857C233.857 51.6287 244.57 41.4312 245.211 28.4478L245.471 23.1809C246.113 10.1975 256.826 0 269.825 0H365.615Z"/>
</mask>
<path d="M365.615 0C379.081 0 389.998 10.9172 389.999 24.3837V235.616C389.998 249.083 379.081 260 365.615 260H24.3837C10.9171 260 0.00023133 249.083 0 235.616V24.3837C0.000229237 10.9172 10.9171 0 24.3837 0H119.52C132.519 0 143.233 10.1975 143.874 23.1809L144.134 28.4478C144.775 41.4312 155.489 51.6287 168.488 51.6287H220.857C233.857 51.6287 244.57 41.4312 245.211 28.4478L245.471 23.1809C246.113 10.1975 256.826 0 269.825 0H365.615Z" fill="white"/>
<path d="M389.999 24.3837H392.437V24.3837L389.999 24.3837ZM389.999 235.616L392.437 235.616V235.616H389.999ZM0 235.616H-2.43836V235.616L0 235.616ZM0 24.3837L-2.43836 24.3837V24.3837H0ZM245.211 28.4478L242.776 28.3276L245.211 28.4478ZM143.874 23.1809L141.438 23.3011L143.874 23.1809ZM365.615 0V2.43836C377.735 2.43836 387.56 12.2638 387.56 24.3837L389.999 24.3837L392.437 24.3837C392.437 9.57055 380.428 -2.43836 365.615 -2.43836V0ZM389.999 24.3837H387.56V235.616H389.999H392.437V24.3837H389.999ZM389.999 235.616L387.56 235.616C387.56 247.736 377.735 257.562 365.615 257.562V260V262.438C380.428 262.438 392.437 250.429 392.437 235.616L389.999 235.616ZM365.615 260V257.562H24.3837V260V262.438H365.615V260ZM24.3837 260V257.562C12.2638 257.562 2.43857 247.736 2.43836 235.616L0 235.616L-2.43836 235.616C-2.43811 250.429 9.57042 262.438 24.3837 262.438V260ZM0 235.616H2.43836V24.3837H0H-2.43836V235.616H0ZM0 24.3837L2.43836 24.3837C2.43857 12.2638 12.2638 2.43836 24.3837 2.43836V0V-2.43836C9.57042 -2.43836 -2.43811 9.57054 -2.43836 24.3837L0 24.3837ZM24.3837 0V2.43836H119.52V0V-2.43836H24.3837V0ZM143.874 23.1809L141.438 23.3011L141.699 28.5681L144.134 28.4478L146.569 28.3275L146.309 23.0606L143.874 23.1809ZM168.488 51.6287V54.0671H220.857V51.6287V49.1903H168.488V51.6287ZM245.211 28.4478L247.647 28.5681L247.907 23.3012L245.471 23.1809L243.036 23.0606L242.776 28.3276L245.211 28.4478ZM269.825 0V2.43836H365.615V0V-2.43836H269.825V0ZM245.471 23.1809L247.907 23.3012C248.484 11.6161 258.126 2.43836 269.825 2.43836V0V-2.43836C255.526 -2.43836 243.741 8.77893 243.036 23.0606L245.471 23.1809ZM220.857 51.6287V54.0671C235.156 54.0671 246.941 42.8498 247.647 28.5681L245.211 28.4478L242.776 28.3276C242.199 40.0126 232.557 49.1903 220.857 49.1903V51.6287ZM144.134 28.4478L141.699 28.5681C142.404 42.8498 154.189 54.0671 168.488 54.0671V51.6287V49.1903C156.789 49.1903 147.146 40.0126 146.569 28.3275L144.134 28.4478ZM119.52 0V2.43836C131.219 2.43836 140.861 11.6161 141.438 23.3011L143.874 23.1809L146.309 23.0606C145.604 8.7789 133.819 -2.43836 119.52 -2.43836V0Z" fill="#D7E3FF" mask="url(#path-1-inside-1_192_1896)"/>
</svg>
