<svg width="390" height="260" viewBox="0 0 390 260" fill="none" xmlns="http://www.w3.org/2000/svg">
<mask id="path-1-inside-1_192_1864" fill="white">
<path d="M365.615 0C379.081 0 389.998 10.9172 389.999 24.3837V235.616C389.998 249.083 379.081 260 365.615 260H24.3837C10.9171 260 0.00023133 249.083 0 235.616V24.3837C0.000229237 10.9172 10.9171 0 24.3837 0H119.536C132.535 0 143.248 10.1975 143.889 23.1808L144.134 28.1286C144.775 41.1119 155.489 51.3094 168.488 51.3094H220.857C233.857 51.3094 244.57 41.1119 245.211 28.1286L245.456 23.1808C246.097 10.1975 256.811 0 269.81 0H365.615Z"/>
</mask>
<path d="M365.615 0C379.081 0 389.998 10.9172 389.999 24.3837V235.616C389.998 249.083 379.081 260 365.615 260H24.3837C10.9171 260 0.00023133 249.083 0 235.616V24.3837C0.000229237 10.9172 10.9171 0 24.3837 0H119.536C132.535 0 143.248 10.1975 143.889 23.1808L144.134 28.1286C144.775 41.1119 155.489 51.3094 168.488 51.3094H220.857C233.857 51.3094 244.57 41.1119 245.211 28.1286L245.456 23.1808C246.097 10.1975 256.811 0 269.81 0H365.615Z" fill="white"/>
<path d="M389.999 24.3837H392.437V24.3837L389.999 24.3837ZM389.999 235.616L392.437 235.616V235.616H389.999ZM0 235.616H-2.43836V235.616L0 235.616ZM0 24.3837L-2.43836 24.3837V24.3837H0ZM245.211 28.1286L242.776 28.0083L245.211 28.1286ZM143.889 23.1808L141.454 23.3011L143.889 23.1808ZM365.615 0V2.43836C377.735 2.43836 387.56 12.2638 387.56 24.3837L389.999 24.3837L392.437 24.3837C392.437 9.57055 380.428 -2.43836 365.615 -2.43836V0ZM389.999 24.3837H387.56V235.616H389.999H392.437V24.3837H389.999ZM389.999 235.616L387.56 235.616C387.56 247.736 377.735 257.562 365.615 257.562V260V262.438C380.428 262.438 392.437 250.429 392.437 235.616L389.999 235.616ZM365.615 260V257.562H24.3837V260V262.438H365.615V260ZM24.3837 260V257.562C12.2638 257.562 2.43857 247.736 2.43836 235.616L0 235.616L-2.43836 235.616C-2.43811 250.429 9.57042 262.438 24.3837 262.438V260ZM0 235.616H2.43836V24.3837H0H-2.43836V235.616H0ZM0 24.3837L2.43836 24.3837C2.43857 12.2638 12.2638 2.43836 24.3837 2.43836V0V-2.43836C9.57042 -2.43836 -2.43811 9.57054 -2.43836 24.3837L0 24.3837ZM24.3837 0V2.43836H119.536V0V-2.43836H24.3837V0ZM143.889 23.1808L141.454 23.3011L141.698 28.2489L144.134 28.1286L146.569 28.0083L146.325 23.0605L143.889 23.1808ZM168.488 51.3094V53.7477H220.857V51.3094V48.871H168.488V51.3094ZM245.211 28.1286L247.647 28.2489L247.891 23.3011L245.456 23.1808L243.02 23.0605L242.776 28.0083L245.211 28.1286ZM269.81 0V2.43836H365.615V0V-2.43836H269.81V0ZM245.456 23.1808L247.891 23.3011C248.468 11.6161 258.11 2.43836 269.81 2.43836V0V-2.43836C255.511 -2.43836 243.726 8.77888 243.02 23.0605L245.456 23.1808ZM220.857 51.3094V53.7477C235.156 53.7477 246.941 42.5305 247.647 28.2489L245.211 28.1286L242.776 28.0083C242.199 39.6933 232.557 48.871 220.857 48.871V51.3094ZM144.134 28.1286L141.698 28.2489C142.404 42.5305 154.189 53.7477 168.488 53.7477V51.3094V48.871C156.789 48.871 147.146 39.6933 146.569 28.0083L144.134 28.1286ZM119.536 0V2.43836C131.235 2.43836 140.877 11.6161 141.454 23.3011L143.889 23.1808L146.325 23.0605C145.62 8.77886 133.835 -2.43836 119.536 -2.43836V0Z" fill="#D7E3FF" mask="url(#path-1-inside-1_192_1864)"/>
</svg>
