<svg width="11" height="11" viewBox="0 0 11 11" fill="none" xmlns="http://www.w3.org/2000/svg">
<path d="M9.62303 0.236166C9.93821 -0.0787766 10.4484 -0.0787985 10.7636 0.236166C11.0788 0.551318 11.0786 1.06144 10.7636 1.37671L6.64055 5.49974L10.7636 9.62276C11.0788 9.93794 11.0786 10.448 10.7636 10.7633C10.6063 10.9206 10.3991 10.9992 10.1928 10.9992C10.087 10.9992 9.98192 10.9786 9.8842 10.9381C9.83542 10.9179 9.78887 10.8926 9.74519 10.8634L9.62303 10.7633L5.5 6.64028L1.37697 10.7633C1.21982 10.9204 1.01341 10.9991 0.807228 10.9992C0.701391 10.9993 0.596448 10.9786 0.49866 10.9381C0.449677 10.9178 0.402435 10.8927 0.358593 10.8634L0.236429 10.7633C-0.0785874 10.4481 -0.0787776 9.93791 0.236429 9.62276L4.35945 5.49974L0.236429 1.37671C-0.0786053 1.06143 -0.0788033 0.551323 0.236429 0.236166C0.551609 -0.0788544 1.06162 -0.0787048 1.37697 0.236166L5.5 4.35919L9.62303 0.236166Z" fill="#F14336"/>
</svg>
