<svg width="163" height="163" viewBox="0 0 163 163" fill="none" xmlns="http://www.w3.org/2000/svg">
<g filter="url(#filter0_d_192_1725)">
<rect x="14.2958" y="13.2739" width="83.3569" height="83.3569" rx="23.3718" fill="url(#paint0_linear_192_1725)" shape-rendering="crispEdges"/>
<path d="M61.2527 37.357H50.6954C49.7237 37.357 48.9359 38.1447 48.9359 39.1165V42.6356C48.9359 43.6074 49.7237 44.3951 50.6954 44.3951H61.2527C62.2245 44.3951 63.0123 43.6074 63.0123 42.6356V39.1165C63.0123 38.1447 62.2245 37.357 61.2527 37.357Z" stroke="white" stroke-width="3" stroke-linecap="round" stroke-linejoin="round"/>
<path d="M63.0123 40.8761H66.5313C67.4647 40.8761 68.3598 41.2468 69.0197 41.9068C69.6797 42.5667 70.0504 43.4618 70.0504 44.3951V69.0288C70.0504 69.9621 69.6797 70.8572 69.0197 71.5172C68.3598 72.1771 67.4647 72.5479 66.5313 72.5479H45.4168C44.4835 72.5479 43.5884 72.1771 42.9284 71.5172C42.2685 70.8572 41.8977 69.9621 41.8977 69.0288V44.3951C41.8977 43.4618 42.2685 42.5667 42.9284 41.9068C43.5884 41.2468 44.4835 40.8761 45.4168 40.8761H48.9359" stroke="white" stroke-width="3" stroke-linecap="round" stroke-linejoin="round"/>
<path d="M50.6954 58.4715L54.2145 61.9906L61.2527 54.9524" stroke="white" stroke-width="3" stroke-linecap="round" stroke-linejoin="round"/>
</g>
<defs>
<filter id="filter0_d_192_1725" x="-0.000126572" y="6.71213e-05" width="163" height="163" filterUnits="userSpaceOnUse" color-interpolation-filters="sRGB">
<feFlood flood-opacity="0" result="BackgroundImageFix"/>
<feColorMatrix in="SourceAlpha" type="matrix" values="0 0 0 0 0 0 0 0 0 0 0 0 0 0 0 0 0 0 127 0" result="hardAlpha"/>
<feOffset dx="25.3871" dy="26.4037"/>
<feGaussianBlur stdDeviation="19.8028"/>
<feComposite in2="hardAlpha" operator="out"/>
<feColorMatrix type="matrix" values="0 0 0 0 0 0 0 0 0 0.306122 0 0 0 0 1 0 0 0 0.28 0"/>
<feBlend mode="normal" in2="BackgroundImageFix" result="effect1_dropShadow_192_1725"/>
<feBlend mode="normal" in="SourceGraphic" in2="effect1_dropShadow_192_1725" result="shape"/>
</filter>
<linearGradient id="paint0_linear_192_1725" x1="-2.37556" y1="1.05782" x2="118.984" y2="81.84" gradientUnits="userSpaceOnUse">
<stop stop-color="#6896FF"/>
<stop offset="1" stop-color="#004EFF"/>
</linearGradient>
</defs>
</svg>
