<svg width="163" height="163" viewBox="0 0 163 163" fill="none" xmlns="http://www.w3.org/2000/svg">
<g filter="url(#filter0_d_201_2456)">
<rect x="14.2958" y="13.2738" width="83.3569" height="83.3569" rx="23.3718" fill="url(#paint0_linear_201_2456)" shape-rendering="crispEdges"/>
<path d="M63.0549 70.881V67.3412C63.0549 65.4635 62.309 63.6628 60.9813 62.3351C59.6536 61.0074 57.8529 60.2615 55.9752 60.2615H45.3557C43.478 60.2615 41.6773 61.0074 40.3496 62.3351C39.0219 63.6628 38.276 65.4635 38.276 67.3412V70.881" stroke="white" stroke-width="2.64037" stroke-linecap="round" stroke-linejoin="round"/>
<path d="M63.0535 39.2502C64.5716 39.6437 65.9161 40.5303 66.876 41.7706C67.8358 43.011 68.3565 44.5349 68.3565 46.1033C68.3565 47.6716 67.8358 49.1956 66.876 50.4359C65.9161 51.6763 64.5716 52.5628 63.0535 52.9564" stroke="white" stroke-width="2.64037" stroke-linecap="round" stroke-linejoin="round"/>
<path d="M73.6728 70.8812V67.3413C73.6716 65.7727 73.1496 64.2489 72.1885 63.0091C71.2275 61.7694 69.8819 60.8839 68.3631 60.4917" stroke="white" stroke-width="2.64037" stroke-linecap="round" stroke-linejoin="round"/>
<path d="M50.6653 53.1827C54.5753 53.1827 57.7449 50.013 57.7449 46.103C57.7449 42.193 54.5753 39.0233 50.6653 39.0233C46.7553 39.0233 43.5856 42.193 43.5856 46.103C43.5856 50.013 46.7553 53.1827 50.6653 53.1827Z" stroke="white" stroke-width="2.64037" stroke-linecap="round" stroke-linejoin="round"/>
</g>
<defs>
<filter id="filter0_d_201_2456" x="-0.000126572" y="-5.56148e-05" width="163" height="163" filterUnits="userSpaceOnUse" color-interpolation-filters="sRGB">
<feFlood flood-opacity="0" result="BackgroundImageFix"/>
<feColorMatrix in="SourceAlpha" type="matrix" values="0 0 0 0 0 0 0 0 0 0 0 0 0 0 0 0 0 0 127 0" result="hardAlpha"/>
<feOffset dx="25.3871" dy="26.4037"/>
<feGaussianBlur stdDeviation="19.8028"/>
<feComposite in2="hardAlpha" operator="out"/>
<feColorMatrix type="matrix" values="0 0 0 0 1 0 0 0 0 0.411765 0 0 0 0 0 0 0 0 0.28 0"/>
<feBlend mode="normal" in2="BackgroundImageFix" result="effect1_dropShadow_201_2456"/>
<feBlend mode="normal" in="SourceGraphic" in2="effect1_dropShadow_201_2456" result="shape"/>
</filter>
<linearGradient id="paint0_linear_201_2456" x1="16.8095" y1="21.3174" x2="55.9743" y2="96.6307" gradientUnits="userSpaceOnUse">
<stop stop-color="#FFB27C"/>
<stop offset="1" stop-color="#FF6900"/>
</linearGradient>
</defs>
</svg>
