<svg width="163" height="163" viewBox="0 0 163 163" fill="none" xmlns="http://www.w3.org/2000/svg">
<g filter="url(#filter0_d_192_1953)">
<rect x="14.2958" y="13.2737" width="83.3569" height="83.3569" rx="23.3718" fill="url(#paint0_linear_192_1953)" shape-rendering="crispEdges"/>
<path d="M62.0921 56.518L64.7578 71.5199C64.7876 71.6966 64.7628 71.8781 64.6867 72.0403C64.6106 72.2025 64.4868 72.3376 64.3318 72.4275C64.1769 72.5174 63.9982 72.5579 63.8196 72.5435C63.641 72.5291 63.4711 72.4605 63.3325 72.3469L57.0334 67.619C56.7293 67.3918 56.3599 67.2691 55.9803 67.2691C55.6007 67.2691 55.2313 67.3918 54.9272 67.619L48.6175 72.3451C48.479 72.4585 48.3093 72.527 48.1309 72.5414C47.9526 72.5558 47.7741 72.5155 47.6192 72.4259C47.4644 72.3362 47.3405 72.2014 47.2642 72.0396C47.1879 71.8777 47.1628 71.6964 47.1922 71.5199L49.8562 56.518" stroke="white" stroke-width="3" stroke-linecap="round" stroke-linejoin="round"/>
<path d="M55.9741 58.471C61.8047 58.471 66.5313 53.7444 66.5313 47.9137C66.5313 42.0831 61.8047 37.3565 55.9741 37.3565C50.1434 37.3565 45.4168 42.0831 45.4168 47.9137C45.4168 53.7444 50.1434 58.471 55.9741 58.471Z" stroke="white" stroke-width="3" stroke-linecap="round" stroke-linejoin="round"/>
</g>
<defs>
<filter id="filter0_d_192_1953" x="-0.000126572" y="-0.000178351" width="163" height="163" filterUnits="userSpaceOnUse" color-interpolation-filters="sRGB">
<feFlood flood-opacity="0" result="BackgroundImageFix"/>
<feColorMatrix in="SourceAlpha" type="matrix" values="0 0 0 0 0 0 0 0 0 0 0 0 0 0 0 0 0 0 127 0" result="hardAlpha"/>
<feOffset dx="25.3871" dy="26.4037"/>
<feGaussianBlur stdDeviation="19.8028"/>
<feComposite in2="hardAlpha" operator="out"/>
<feColorMatrix type="matrix" values="0 0 0 0 0 0 0 0 0 0.721569 0 0 0 0 0.858824 0 0 0 0.28 0"/>
<feBlend mode="normal" in2="BackgroundImageFix" result="effect1_dropShadow_192_1953"/>
<feBlend mode="normal" in="SourceGraphic" in2="effect1_dropShadow_192_1953" result="shape"/>
</filter>
<linearGradient id="paint0_linear_192_1953" x1="24.3504" y1="34.3882" x2="82.6667" y2="96.7264" gradientUnits="userSpaceOnUse">
<stop stop-color="#96E5F4"/>
<stop offset="1" stop-color="#00B8DB"/>
</linearGradient>
</defs>
</svg>
