<svg width="163" height="163" viewBox="0 0 163 163" fill="none" xmlns="http://www.w3.org/2000/svg">
<g filter="url(#filter0_d_201_2482)">
<rect x="14.2958" y="13.2738" width="83.3569" height="83.3569" rx="23.3718" fill="#004EFF" shape-rendering="crispEdges"/>
<rect x="14.2958" y="13.2738" width="83.3569" height="83.3569" rx="23.3718" fill="url(#paint0_linear_201_2482)" shape-rendering="crispEdges"/>
<path d="M55.9746 37.2535V72.6504" stroke="white" stroke-width="2.64037" stroke-linecap="round" stroke-linejoin="round"/>
<path d="M64.8245 42.5631H51.5501C49.9072 42.5631 48.3316 43.2157 47.1698 44.3774C46.0081 45.5392 45.3554 47.1148 45.3554 48.7578C45.3554 50.4007 46.0081 51.9764 47.1698 53.1381C48.3316 54.2998 49.9072 54.9525 51.5501 54.9525H60.3997C62.0427 54.9525 63.6183 55.6052 64.7801 56.7669C65.9418 57.9286 66.5945 59.5043 66.5945 61.1472C66.5945 62.7902 65.9418 64.3658 64.7801 65.5275C63.6183 66.6893 62.0427 67.3419 60.3997 67.3419H45.3554" stroke="white" stroke-width="2.64037" stroke-linecap="round" stroke-linejoin="round"/>
</g>
<defs>
<filter id="filter0_d_201_2482" x="-0.000126572" y="-5.56148e-05" width="163" height="163" filterUnits="userSpaceOnUse" color-interpolation-filters="sRGB">
<feFlood flood-opacity="0" result="BackgroundImageFix"/>
<feColorMatrix in="SourceAlpha" type="matrix" values="0 0 0 0 0 0 0 0 0 0 0 0 0 0 0 0 0 0 127 0" result="hardAlpha"/>
<feOffset dx="25.3871" dy="26.4037"/>
<feGaussianBlur stdDeviation="19.8028"/>
<feComposite in2="hardAlpha" operator="out"/>
<feColorMatrix type="matrix" values="0 0 0 0 0 0 0 0 0 0.306122 0 0 0 0 1 0 0 0 0.28 0"/>
<feBlend mode="normal" in2="BackgroundImageFix" result="effect1_dropShadow_201_2482"/>
<feBlend mode="normal" in="SourceGraphic" in2="effect1_dropShadow_201_2482" result="shape"/>
</filter>
<linearGradient id="paint0_linear_201_2482" x1="-2.37556" y1="1.0577" x2="118.984" y2="81.8399" gradientUnits="userSpaceOnUse">
<stop stop-color="#6896FF"/>
<stop offset="1" stop-color="#004EFF"/>
</linearGradient>
</defs>
</svg>
