<svg width="38" height="38" viewBox="0 0 38 38" fill="none" xmlns="http://www.w3.org/2000/svg">
<rect width="38" height="38" rx="19" fill="white"/>
<rect width="38" height="38" rx="19" fill="#DEE8FF"/>
<path d="M27.7353 18.564C27.5028 18.3315 27.2702 18.254 26.9601 18.254L11.4562 18.254C10.836 18.254 10.3709 18.7191 10.3709 19.3392C10.3709 19.9594 10.836 20.4245 11.4562 20.4245L26.9601 20.4245C27.5803 20.4245 28.0454 19.9594 28.0454 19.3392C28.0454 19.0292 27.9679 18.7966 27.7353 18.564Z" fill="#004EFF"/>
<path d="M27.7352 18.564L20.7584 11.5872C20.2933 11.1221 19.6732 11.1221 19.208 11.5872C18.7429 12.0524 18.7429 12.6725 19.208 13.1376L25.4096 19.3392L19.208 25.5408C18.7429 26.0059 18.7429 26.6261 19.208 27.0912C19.6732 27.5563 20.2933 27.5563 20.7584 27.0912L27.7352 20.1144C28.2004 19.6493 28.2004 19.0292 27.7352 18.564Z" fill="#004EFF"/>
</svg>
