<svg width="28" height="28" viewBox="0 0 28 28" fill="none" xmlns="http://www.w3.org/2000/svg">
<rect width="27.9999" height="27.9999" rx="13.8563" fill="white" fill-opacity="0.15"/>
<path d="M21.8289 8.41081C21.7206 8.30109 21.5915 8.21398 21.4492 8.15452C21.307 8.09507 21.1543 8.06445 21.0001 8.06445C20.8459 8.06445 20.6932 8.09507 20.551 8.15452C20.4087 8.21398 20.2796 8.30109 20.1713 8.41081L11.4801 17.1154L7.82894 13.4519C7.68807 13.3154 7.51566 13.2158 7.32704 13.1619C7.13842 13.1081 6.93941 13.1017 6.7477 13.1432C6.55599 13.1848 6.37752 13.273 6.22812 13.4002C6.07873 13.5273 5.96304 13.6893 5.89134 13.8719C5.80483 14.0912 5.78526 14.3313 5.83509 14.5617C5.88493 14.7922 6.00194 15.0027 6.17134 15.1666L10.6513 19.6466C10.7598 19.7561 10.8889 19.8431 11.0311 19.9024C11.1734 19.9617 11.326 19.9923 11.4801 19.9923C11.6343 19.9923 11.7869 19.9617 11.9291 19.9024C12.0714 19.8431 12.2005 19.7561 12.3089 19.6466L21.8289 10.1266C21.9473 10.0174 22.0418 9.88484 22.1064 9.73728C22.1711 9.58972 22.2044 9.43038 22.2044 9.26929C22.2044 9.10819 22.1711 8.94885 22.1064 8.80129C22.0418 8.65373 21.9473 8.52116 21.8289 8.41193V8.41081Z" fill="white"/>
</svg>
