<svg width="390" height="360" viewBox="0 0 390 360" fill="none" xmlns="http://www.w3.org/2000/svg">
<mask id="path-1-inside-1_188_1316" fill="white">
<path d="M365.616 0C379.083 0 390 10.917 390 24.3838V335.616C390 349.083 379.083 360 365.616 360H24.3838C10.917 360 0 349.083 0 335.616V24.3838C0 10.917 10.917 0 24.3838 0H119.584C132.583 0 143.297 10.1977 143.938 23.1811L144.135 27.1704C144.776 40.1539 155.489 50.3516 168.489 50.3516H220.858C233.857 50.3516 244.571 40.1539 245.212 27.1704L245.409 23.1811C246.05 10.1976 256.764 0 269.763 0H365.616Z"/>
</mask>
<path d="M365.616 0C379.083 0 390 10.917 390 24.3838V335.616C390 349.083 379.083 360 365.616 360H24.3838C10.917 360 0 349.083 0 335.616V24.3838C0 10.917 10.917 0 24.3838 0H119.584C132.583 0 143.297 10.1977 143.938 23.1811L144.135 27.1704C144.776 40.1539 155.489 50.3516 168.489 50.3516H220.858C233.857 50.3516 244.571 40.1539 245.212 27.1704L245.409 23.1811C246.05 10.1976 256.764 0 269.763 0H365.616Z" fill="white"/>
<path d="M245.409 23.1811L247.844 23.3014L245.409 23.1811ZM245.212 27.1704L242.777 27.0502L245.212 27.1704ZM144.135 27.1704L141.699 27.2907L144.135 27.1704ZM143.938 23.1811L141.502 23.3014L143.938 23.1811ZM365.616 0V2.43837C377.736 2.43837 387.562 12.2637 387.562 24.3838H390H392.438C392.438 9.57035 380.43 -2.43837 365.616 -2.43837V0ZM390 24.3838H387.562V335.616H390H392.438V24.3838H390ZM390 335.616H387.562C387.562 347.736 377.736 357.562 365.616 357.562V360V362.438C380.43 362.438 392.438 350.43 392.438 335.616H390ZM365.616 360V357.562H24.3838V360V362.438H365.616V360ZM24.3838 360V357.562C12.2637 357.562 2.43837 347.736 2.43837 335.616H0H-2.43837C-2.43837 350.43 9.57035 362.438 24.3838 362.438V360ZM0 335.616H2.43837V24.3838H0H-2.43837V335.616H0ZM0 24.3838H2.43837C2.43837 12.2637 12.2637 2.43837 24.3838 2.43837V0V-2.43837C9.57035 -2.43837 -2.43837 9.57035 -2.43837 24.3838H0ZM24.3838 0V2.43837H119.584V0V-2.43837H24.3838V0ZM143.938 23.1811L141.502 23.3014L141.699 27.2907L144.135 27.1704L146.57 27.0502L146.373 23.0609L143.938 23.1811ZM168.489 50.3516V52.7899H220.858V50.3516V47.9132H168.489V50.3516ZM245.212 27.1704L247.647 27.2907L247.844 23.3014L245.409 23.1811L242.974 23.0609L242.777 27.0502L245.212 27.1704ZM269.763 0V2.43837H365.616V0V-2.43837H269.763V0ZM245.409 23.1811L247.844 23.3014C248.421 11.6163 258.064 2.43837 269.763 2.43837V0V-2.43837C255.464 -2.43837 243.679 8.77904 242.974 23.0609L245.409 23.1811ZM220.858 50.3516V52.7899C235.157 52.7899 246.942 41.5725 247.647 27.2907L245.212 27.1704L242.777 27.0502C242.2 38.7353 232.557 47.9132 220.858 47.9132V50.3516ZM144.135 27.1704L141.699 27.2907C142.404 41.5725 154.189 52.7899 168.489 52.7899V50.3516V47.9132C156.789 47.9132 147.147 38.7353 146.57 27.0502L144.135 27.1704ZM119.584 0V2.43837C131.283 2.43837 140.925 11.6163 141.502 23.3014L143.938 23.1811L146.373 23.0609C145.668 8.77906 133.883 -2.43837 119.584 -2.43837V0Z" fill="#D7E3FF" mask="url(#path-1-inside-1_188_1316)"/>
</svg>
