<svg width="390" height="390" viewBox="0 0 390 390" fill="none" xmlns="http://www.w3.org/2000/svg">
<mask id="path-1-inside-1_192_827" fill="white">
<path d="M365.616 0C379.083 0 390 10.917 390 24.3838V365.616C390 379.083 379.083 390 365.616 390H24.3838C10.917 390 0 379.083 0 365.616V24.3838C0 10.917 10.917 0 24.3838 0H119.595C132.595 0 143.308 10.1977 143.949 23.1811L144.135 26.9322C144.776 39.9156 155.489 50.1133 168.489 50.1133H220.858C233.857 50.1133 244.571 39.9156 245.212 26.9322L245.397 23.1811C246.038 10.1977 256.752 0 269.751 0H365.616Z"/>
</mask>
<path d="M365.616 0C379.083 0 390 10.917 390 24.3838V365.616C390 379.083 379.083 390 365.616 390H24.3838C10.917 390 0 379.083 0 365.616V24.3838C0 10.917 10.917 0 24.3838 0H119.595C132.595 0 143.308 10.1977 143.949 23.1811L144.135 26.9322C144.776 39.9156 155.489 50.1133 168.489 50.1133H220.858C233.857 50.1133 244.571 39.9156 245.212 26.9322L245.397 23.1811C246.038 10.1977 256.752 0 269.751 0H365.616Z" fill="white"/>
<path d="M245.212 26.9322L242.777 26.8119L245.212 26.9322ZM143.949 23.1811L141.514 23.3014L143.949 23.1811ZM365.616 0V2.43837C377.736 2.43837 387.562 12.2637 387.562 24.3838H390H392.438C392.438 9.57035 380.43 -2.43837 365.616 -2.43837V0ZM390 24.3838H387.562V365.616H390H392.438V24.3838H390ZM390 365.616H387.562C387.562 377.736 377.736 387.562 365.616 387.562V390V392.438C380.43 392.438 392.438 380.43 392.438 365.616H390ZM365.616 390V387.562H24.3838V390V392.438H365.616V390ZM24.3838 390V387.562C12.2637 387.562 2.43837 377.736 2.43837 365.616H0H-2.43837C-2.43837 380.43 9.57035 392.438 24.3838 392.438V390ZM0 365.616H2.43837V24.3838H0H-2.43837V365.616H0ZM0 24.3838H2.43837C2.43837 12.2637 12.2637 2.43837 24.3838 2.43837V0V-2.43837C9.57035 -2.43837 -2.43837 9.57035 -2.43837 24.3838H0ZM24.3838 0V2.43837H119.595V0V-2.43837H24.3838V0ZM143.949 23.1811L141.514 23.3014L141.699 27.0524L144.135 26.9322L146.57 26.8119L146.385 23.0609L143.949 23.1811ZM168.489 50.1133V52.5517H220.858V50.1133V47.6749H168.489V50.1133ZM245.212 26.9322L247.647 27.0524L247.833 23.3014L245.397 23.1811L242.962 23.0609L242.777 26.8119L245.212 26.9322ZM269.751 0V2.43837H365.616V0V-2.43837H269.751V0ZM245.397 23.1811L247.833 23.3014C248.41 11.6163 258.052 2.43837 269.751 2.43837V0V-2.43837C255.452 -2.43837 243.667 8.77906 242.962 23.0609L245.397 23.1811ZM220.858 50.1133V52.5517C235.157 52.5517 246.942 41.3342 247.647 27.0524L245.212 26.9322L242.777 26.8119C242.2 38.497 232.557 47.6749 220.858 47.6749V50.1133ZM144.135 26.9322L141.699 27.0524C142.404 41.3342 154.189 52.5517 168.489 52.5517V50.1133V47.6749C156.789 47.6749 147.147 38.497 146.57 26.8119L144.135 26.9322ZM119.595 0V2.43837C131.295 2.43837 140.937 11.6163 141.514 23.3014L143.949 23.1811L146.385 23.0609C145.68 8.77905 133.895 -2.43837 119.595 -2.43837V0Z" fill="#D7E3FF" mask="url(#path-1-inside-1_192_827)"/>
</svg>
