<svg width="390" height="390" viewBox="0 0 390 390" fill="none" xmlns="http://www.w3.org/2000/svg">
<mask id="path-1-inside-1_192_859" fill="white">
<path d="M365.616 0C379.083 0 390 10.917 390 24.3838V365.616C390 379.083 379.083 390 365.616 390H24.3838C10.917 390 0 379.083 0 365.616V24.3838C0 10.917 10.917 0 24.3838 0H119.591C132.591 0 143.304 10.1976 143.946 23.1811L144.135 27.0094C144.776 39.9928 155.489 50.1904 168.489 50.1904H220.858C233.857 50.1904 244.571 39.9928 245.212 27.0094L245.401 23.1811C246.042 10.1976 256.756 0 269.755 0H365.616Z"/>
</mask>
<path d="M365.616 0C379.083 0 390 10.917 390 24.3838V365.616C390 379.083 379.083 390 365.616 390H24.3838C10.917 390 0 379.083 0 365.616V24.3838C0 10.917 10.917 0 24.3838 0H119.591C132.591 0 143.304 10.1976 143.946 23.1811L144.135 27.0094C144.776 39.9928 155.489 50.1904 168.489 50.1904H220.858C233.857 50.1904 244.571 39.9928 245.212 27.0094L245.401 23.1811C246.042 10.1976 256.756 0 269.755 0H365.616Z" fill="white"/>
<path d="M245.212 27.0094L242.777 26.8891L245.212 27.0094ZM143.946 23.1811L141.51 23.3013L143.946 23.1811ZM365.616 0V2.43837C377.736 2.43837 387.562 12.2637 387.562 24.3838H390H392.438C392.438 9.57035 380.43 -2.43837 365.616 -2.43837V0ZM390 24.3838H387.562V365.616H390H392.438V24.3838H390ZM390 365.616H387.562C387.562 377.736 377.736 387.562 365.616 387.562V390V392.438C380.43 392.438 392.438 380.43 392.438 365.616H390ZM365.616 390V387.562H24.3838V390V392.438H365.616V390ZM24.3838 390V387.562C12.2637 387.562 2.43837 377.736 2.43837 365.616H0H-2.43837C-2.43837 380.43 9.57035 392.438 24.3838 392.438V390ZM0 365.616H2.43837V24.3838H0H-2.43837V365.616H0ZM0 24.3838H2.43837C2.43837 12.2637 12.2637 2.43837 24.3838 2.43837V0V-2.43837C9.57035 -2.43837 -2.43837 9.57035 -2.43837 24.3838H0ZM24.3838 0V2.43837H119.591V0V-2.43837H24.3838V0ZM143.946 23.1811L141.51 23.3013L141.699 27.1296L144.135 27.0094L146.57 26.8891L146.381 23.0608L143.946 23.1811ZM168.489 50.1904V52.6288H220.858V50.1904V47.7521H168.489V50.1904ZM245.212 27.0094L247.648 27.1296L247.837 23.3013L245.401 23.1811L242.966 23.0608L242.777 26.8891L245.212 27.0094ZM269.755 0V2.43837H365.616V0V-2.43837H269.755V0ZM245.401 23.1811L247.837 23.3013C248.414 11.6162 258.056 2.43837 269.755 2.43837V0V-2.43837C255.456 -2.43837 243.671 8.77901 242.966 23.0608L245.401 23.1811ZM220.858 50.1904V52.6288C235.157 52.6288 246.942 41.4114 247.648 27.1296L245.212 27.0094L242.777 26.8891C242.2 38.5742 232.557 47.7521 220.858 47.7521V50.1904ZM144.135 27.0094L141.699 27.1296C142.404 41.4114 154.189 52.6288 168.489 52.6288V50.1904V47.7521C156.789 47.7521 147.147 38.5742 146.57 26.8891L144.135 27.0094ZM119.591 0V2.43837C131.291 2.43837 140.933 11.6162 141.51 23.3013L143.946 23.1811L146.381 23.0608C145.676 8.77901 133.891 -2.43837 119.591 -2.43837V0Z" fill="#D7E3FF" mask="url(#path-1-inside-1_192_859)"/>
</svg>
