<svg width="390" height="360" viewBox="0 0 390 360" fill="none" xmlns="http://www.w3.org/2000/svg">
<mask id="path-1-inside-1_188_1194" fill="white">
<path d="M365.616 0C379.083 0 390 10.917 390 24.3838V335.616C390 349.083 379.083 360 365.616 360H24.3838C10.917 360 0 349.083 0 335.616V24.3838C0 10.917 10.917 0 24.3838 0H119.532C132.531 0 143.245 10.1976 143.886 23.1811L144.135 28.2173C144.776 41.2008 155.489 51.3984 168.489 51.3984H220.858C233.857 51.3984 244.571 41.2008 245.212 28.2173L245.461 23.1811C246.102 10.1976 256.816 0 269.815 0H365.616Z"/>
</mask>
<path d="M365.616 0C379.083 0 390 10.917 390 24.3838V335.616C390 349.083 379.083 360 365.616 360H24.3838C10.917 360 0 349.083 0 335.616V24.3838C0 10.917 10.917 0 24.3838 0H119.532C132.531 0 143.245 10.1976 143.886 23.1811L144.135 28.2173C144.776 41.2008 155.489 51.3984 168.489 51.3984H220.858C233.857 51.3984 244.571 41.2008 245.212 28.2173L245.461 23.1811C246.102 10.1976 256.816 0 269.815 0H365.616Z" fill="white"/>
<path d="M245.212 28.2173L242.777 28.0971L245.212 28.2173ZM143.886 23.1811L141.451 23.3014L143.886 23.1811ZM365.616 0V2.43837C377.736 2.43837 387.562 12.2637 387.562 24.3838H390H392.438C392.438 9.57035 380.43 -2.43837 365.616 -2.43837V0ZM390 24.3838H387.562V335.616H390H392.438V24.3838H390ZM390 335.616H387.562C387.562 347.736 377.736 357.562 365.616 357.562V360V362.438C380.43 362.438 392.438 350.43 392.438 335.616H390ZM365.616 360V357.562H24.3838V360V362.438H365.616V360ZM24.3838 360V357.562C12.2637 357.562 2.43837 347.736 2.43837 335.616H0H-2.43837C-2.43837 350.43 9.57035 362.438 24.3838 362.438V360ZM0 335.616H2.43837V24.3838H0H-2.43837V335.616H0ZM0 24.3838H2.43837C2.43837 12.2637 12.2637 2.43837 24.3838 2.43837V0V-2.43837C9.57035 -2.43837 -2.43837 9.57035 -2.43837 24.3838H0ZM24.3838 0V2.43837H119.532V0V-2.43837H24.3838V0ZM143.886 23.1811L141.451 23.3014L141.699 28.3376L144.135 28.2173L146.57 28.0971L146.321 23.0608L143.886 23.1811ZM168.489 51.3984V53.8368H220.858V51.3984V48.9601H168.489V51.3984ZM245.212 28.2173L247.647 28.3376L247.896 23.3014L245.461 23.1811L243.025 23.0608L242.777 28.0971L245.212 28.2173ZM269.815 0V2.43837H365.616V0V-2.43837H269.815V0ZM245.461 23.1811L247.896 23.3014C248.473 11.6163 258.115 2.43837 269.815 2.43837V0V-2.43837C255.516 -2.43837 243.731 8.77904 243.025 23.0608L245.461 23.1811ZM220.858 51.3984V53.8368C235.157 53.8368 246.942 42.6194 247.647 28.3376L245.212 28.2173L242.777 28.0971C242.2 39.7822 232.557 48.9601 220.858 48.9601V51.3984ZM144.135 28.2173L141.699 28.3376C142.404 42.6194 154.189 53.8368 168.489 53.8368V51.3984V48.9601C156.789 48.9601 147.147 39.7822 146.57 28.0971L144.135 28.2173ZM119.532 0V2.43837C131.231 2.43837 140.873 11.6163 141.451 23.3014L143.886 23.1811L146.321 23.0608C145.616 8.77904 133.831 -2.43837 119.532 -2.43837V0Z" fill="#D7E3FF" mask="url(#path-1-inside-1_188_1194)"/>
</svg>
