<svg width="1226" height="378" viewBox="0 0 1226 378" fill="none" xmlns="http://www.w3.org/2000/svg">
<mask id="path-1-inside-1_0_121" fill="white">
<path d="M1206 0C1217.05 0 1226 8.95431 1226 20V358C1226 369.046 1217.05 378 1206 378H20C8.95431 378 0 369.046 0 358V20C0 8.95431 8.95431 1.00665e-07 20 0H142.023C157.416 0 168.329 18.9212 173.561 33.3971C174.525 36.062 175.797 38.6912 177.399 41.2471L178.653 43.2471C185.969 54.9151 198.771 61.9999 212.543 62H1013.46C1027.23 61.9999 1040.03 54.9151 1047.35 43.2471L1048.6 41.2471C1050.2 38.6912 1051.48 36.062 1052.44 33.3971C1057.67 18.9212 1068.58 0 1083.98 0H1206Z"/>
</mask>
<path d="M1206 0C1217.05 0 1226 8.95431 1226 20V358C1226 369.046 1217.05 378 1206 378H20C8.95431 378 0 369.046 0 358V20C0 8.95431 8.95431 1.00665e-07 20 0H142.023C157.416 0 168.329 18.9212 173.561 33.3971C174.525 36.062 175.797 38.6912 177.399 41.2471L178.653 43.2471C185.969 54.9151 198.771 61.9999 212.543 62H1013.46C1027.23 61.9999 1040.03 54.9151 1047.35 43.2471L1048.6 41.2471C1050.2 38.6912 1051.48 36.062 1052.44 33.3971C1057.67 18.9212 1068.58 0 1083.98 0H1206Z" fill="white"/>
<path d="M1206 378V380V378ZM20 0V-2V0ZM177.399 41.2471L175.705 42.3094L175.705 42.3094L177.399 41.2471ZM178.653 43.2471L180.348 42.1847V42.1847L178.653 43.2471ZM212.543 62L212.543 64H212.543V62ZM1013.46 62V64V62ZM1047.35 43.2471L1045.65 42.1847V42.1847L1047.35 43.2471ZM1048.6 41.2471L1050.3 42.3094V42.3094L1048.6 41.2471ZM1052.44 33.3971L1050.56 32.7173L1052.44 33.3971ZM173.561 33.3971L171.681 34.0769L173.561 33.3971ZM1206 0V2C1215.94 2 1224 10.0589 1224 20H1226H1228C1228 7.84974 1218.15 -2 1206 -2V0ZM1226 20H1224V358H1226H1228V20H1226ZM1226 358H1224C1224 367.941 1215.94 376 1206 376V378V380C1218.15 380 1228 370.15 1228 358H1226ZM1206 378V376H20V378V380H1206V378ZM20 378V376C10.0589 376 2 367.941 2 358H0H-2C-2 370.15 7.84974 380 20 380V378ZM0 358H2V20H0H-2V358H0ZM0 20H2C2 10.0589 10.0589 2 20 2V0V-2C7.84974 -2 -2 7.84974 -2 20H0ZM20 0V2H142.023V0V-2H20V0ZM173.561 33.3971L171.681 34.0769C172.692 36.8765 174.027 39.6338 175.705 42.3094L177.399 41.2471L179.094 40.1847C177.567 37.7486 176.357 35.2476 175.442 32.7173L173.561 33.3971ZM177.399 41.2471L175.705 42.3094L176.959 44.3094L178.653 43.2471L180.348 42.1847L179.094 40.1847L177.399 41.2471ZM178.653 43.2471L176.959 44.3094C184.64 56.5608 198.083 63.9999 212.543 64L212.543 62L212.543 60C199.46 59.9999 187.297 53.2694 180.348 42.1847L178.653 43.2471ZM212.543 62V64H1013.46V62V60H212.543V62ZM1013.46 62V64C1027.92 63.9999 1041.36 56.5608 1049.04 44.3094L1047.35 43.2471L1045.65 42.1847C1038.7 53.2694 1026.54 59.9999 1013.46 60V62ZM1047.35 43.2471L1049.04 44.3094L1050.3 42.3094L1048.6 41.2471L1046.91 40.1847L1045.65 42.1847L1047.35 43.2471ZM1048.6 41.2471L1050.3 42.3094C1051.97 39.6338 1053.31 36.8765 1054.32 34.0769L1052.44 33.3971L1050.56 32.7173C1049.64 35.2476 1048.43 37.7486 1046.91 40.1847L1048.6 41.2471ZM1083.98 0V2H1206V0V-2H1083.98V0ZM1052.44 33.3971L1054.32 34.0769C1056.89 26.9636 1060.83 18.8373 1065.95 12.5302C1071.09 6.19314 1077.16 2 1083.98 2V0V-2C1075.4 -2 1068.32 3.26744 1062.84 10.0099C1057.35 16.7824 1053.22 25.3547 1050.56 32.7173L1052.44 33.3971ZM142.023 0V2C148.843 2 154.907 6.19314 160.049 12.5302C165.167 18.8373 169.11 26.9636 171.681 34.0769L173.561 33.3971L175.442 32.7173C172.781 25.3547 168.651 16.7824 163.156 10.0099C157.685 3.26744 150.596 -2 142.023 -2V0Z" fill="#D9E5FF" mask="url(#path-1-inside-1_0_121)"/>
</svg>
