<svg width="390" height="390" viewBox="0 0 390 390" fill="none" xmlns="http://www.w3.org/2000/svg">
<mask id="path-1-inside-1_192_890" fill="white">
<path d="M365.615 0C379.082 0 389.999 10.9172 389.999 24.3837V365.616C389.999 379.083 379.082 390 365.615 390H24.3837C10.9171 390 0.000231331 379.083 0 365.616V24.3837C0.000225049 10.9172 10.9171 0 24.3837 0H119.614C132.613 0 143.326 10.1976 143.968 23.181L144.134 26.5542C144.775 39.5376 155.489 49.7352 168.488 49.7352H220.858C233.857 49.7352 244.57 39.5376 245.212 26.5542L245.378 23.181C246.019 10.1976 256.733 0 269.732 0H365.615Z"/>
</mask>
<path d="M365.615 0C379.082 0 389.999 10.9172 389.999 24.3837V365.616C389.999 379.083 379.082 390 365.615 390H24.3837C10.9171 390 0.000231331 379.083 0 365.616V24.3837C0.000225049 10.9172 10.9171 0 24.3837 0H119.614C132.613 0 143.326 10.1976 143.968 23.181L144.134 26.5542C144.775 39.5376 155.489 49.7352 168.488 49.7352H220.858C233.857 49.7352 244.57 39.5376 245.212 26.5542L245.378 23.181C246.019 10.1976 256.733 0 269.732 0H365.615Z" fill="white"/>
<path d="M389.999 24.3837H392.437V24.3837L389.999 24.3837ZM389.999 365.616L392.437 365.616V365.616H389.999ZM0 365.616H-2.43837V365.616L0 365.616ZM0 24.3837L-2.43837 24.3837V24.3837H0ZM245.378 23.181L242.943 23.0608L245.378 23.181ZM144.134 26.5542L141.699 26.6745L144.134 26.5542ZM365.615 0V2.43837C377.735 2.43837 387.56 12.2638 387.561 24.3838L389.999 24.3837L392.437 24.3837C392.437 9.57056 380.429 -2.43837 365.615 -2.43837V0ZM389.999 24.3837H387.561V365.616H389.999H392.437V24.3837H389.999ZM389.999 365.616L387.561 365.616C387.56 377.736 377.735 387.562 365.615 387.562V390V392.438C380.429 392.438 392.437 380.429 392.437 365.616L389.999 365.616ZM365.615 390V387.562H24.3837V390V392.438H365.615V390ZM24.3837 390V387.562C12.2639 387.562 2.43857 377.736 2.43837 365.616L0 365.616L-2.43837 365.616C-2.43811 380.429 9.57043 392.438 24.3837 392.438V390ZM0 365.616H2.43837V24.3837H0H-2.43837V365.616H0ZM0 24.3837L2.43837 24.3838C2.43857 12.2638 12.2639 2.43837 24.3837 2.43837V0V-2.43837C9.57043 -2.43837 -2.43812 9.57055 -2.43837 24.3837L0 24.3837ZM24.3837 0V2.43837H119.614V0V-2.43837H24.3837V0ZM143.968 23.181L141.532 23.3013L141.699 26.6745L144.134 26.5542L146.57 26.4339L146.403 23.0607L143.968 23.181ZM168.488 49.7352V52.1736H220.858V49.7352V47.2969H168.488V49.7352ZM245.212 26.5542L247.647 26.6745L247.813 23.3013L245.378 23.181L242.943 23.0608L242.776 26.434L245.212 26.5542ZM269.732 0V2.43837H365.615V0V-2.43837H269.732V0ZM245.378 23.181L247.813 23.3013C248.391 11.6162 258.033 2.43837 269.732 2.43837V0V-2.43837C255.433 -2.43837 243.648 8.77901 242.943 23.0608L245.378 23.181ZM220.858 49.7352V52.1736C235.157 52.1736 246.942 40.9562 247.647 26.6745L245.212 26.5542L242.776 26.434C242.199 38.119 232.557 47.2969 220.858 47.2969V49.7352ZM144.134 26.5542L141.699 26.6745C142.404 40.9562 154.189 52.1736 168.488 52.1736V49.7352V47.2969C156.789 47.2969 147.147 38.119 146.57 26.4339L144.134 26.5542ZM119.614 0V2.43837C131.313 2.43837 140.955 11.6162 141.532 23.3013L143.968 23.181L146.403 23.0607C145.698 8.77899 133.913 -2.43837 119.614 -2.43837V0Z" fill="#D7E3FF" mask="url(#path-1-inside-1_192_890)"/>
</svg>
