<svg width="580" height="385" viewBox="0 0 580 385" fill="none" xmlns="http://www.w3.org/2000/svg">
<mask id="path-1-inside-1_185_5954" fill="white">
<path d="M555.616 0C569.083 0 580 10.917 580 24.3838V360.616C580 374.083 569.083 385 555.616 385H24.3838C10.9171 385 0 374.083 0 360.616V76.1308C0 62.664 10.917 51.7471 24.3837 51.7471H67.3229C80.3269 51.7471 91.0427 41.5423 91.6776 28.5537L91.9396 23.1933C92.5744 10.2048 103.29 0 116.294 0H555.616Z"/>
</mask>
<path d="M555.616 0C569.083 0 580 10.917 580 24.3838V360.616C580 374.083 569.083 385 555.616 385H24.3838C10.9171 385 0 374.083 0 360.616V76.1308C0 62.664 10.917 51.7471 24.3837 51.7471H67.3229C80.3269 51.7471 91.0427 41.5423 91.6776 28.5537L91.9396 23.1933C92.5744 10.2048 103.29 0 116.294 0H555.616Z" fill="white"/>
<path d="M24.3838 385L24.3838 387.438H24.3838V385ZM91.6776 28.5537L89.2421 28.4347L91.6776 28.5537ZM555.616 0V2.43837C567.736 2.43837 577.562 12.2637 577.562 24.3838H580H582.438C582.438 9.57035 570.43 -2.43837 555.616 -2.43837V0ZM580 24.3838H577.562V360.616H580H582.438V24.3838H580ZM580 360.616H577.562C577.562 372.736 567.736 382.562 555.616 382.562V385V387.438C570.43 387.438 582.438 375.43 582.438 360.616H580ZM555.616 385V382.562H24.3838V385V387.438H555.616V385ZM24.3838 385L24.3838 382.562C12.2638 382.562 2.43837 372.736 2.43837 360.616H0H-2.43837C-2.43837 375.43 9.57044 387.438 24.3838 387.438L24.3838 385ZM0 360.616H2.43837V76.1308H0H-2.43837V360.616H0ZM24.3837 51.7471V54.1854H67.3229V51.7471V49.3087H24.3837V51.7471ZM91.6776 28.5537L94.1131 28.6728L94.3751 23.3124L91.9396 23.1933L89.5041 23.0743L89.2421 28.4347L91.6776 28.5537ZM116.294 0V2.43837H555.616V0V-2.43837H116.294V0ZM91.9396 23.1933L94.3751 23.3124C94.9464 11.6227 104.591 2.43837 116.294 2.43837V0V-2.43837C101.99 -2.43837 90.2025 8.78693 89.5041 23.0743L91.9396 23.1933ZM67.3229 51.7471V54.1854C81.6273 54.1854 93.4147 42.9601 94.1131 28.6728L91.6776 28.5537L89.2421 28.4347C88.6708 40.1244 79.0265 49.3087 67.3229 49.3087V51.7471ZM0 76.1308H2.43837C2.43837 64.0107 12.2636 54.1854 24.3837 54.1854V51.7471V49.3087C9.57029 49.3087 -2.43837 61.3174 -2.43837 76.1308H0Z" fill="#D7E3FF" mask="url(#path-1-inside-1_185_5954)"/>
</svg>
