<svg width="163" height="163" viewBox="0 0 163 163" fill="none" xmlns="http://www.w3.org/2000/svg">
<g filter="url(#filter0_d_188_1601)">
<rect x="14.2958" y="13.2737" width="83.3569" height="83.3569" rx="23.3718" fill="url(#paint0_linear_188_1601)" shape-rendering="crispEdges"/>
<path d="M40.1382 54.9519C40.1382 50.752 41.8066 46.7241 44.7764 43.7542C47.7462 40.7844 51.7741 39.116 55.9741 39.116C60.4012 39.1327 64.6504 40.8601 67.8334 43.9372L71.81 47.9137" stroke="white" stroke-width="3" stroke-linecap="round" stroke-linejoin="round"/>
<path d="M71.81 39.116V47.9137H63.0123" stroke="white" stroke-width="3" stroke-linecap="round" stroke-linejoin="round"/>
<path d="M71.81 54.9519C71.81 59.1519 70.1416 63.1798 67.1717 66.1496C64.2019 69.1194 60.174 70.7878 55.9741 70.7878C51.547 70.7712 47.2977 69.0437 44.1147 65.9667L40.1382 61.9901" stroke="white" stroke-width="3" stroke-linecap="round" stroke-linejoin="round"/>
<path d="M48.9359 61.9901H40.1382V70.7878" stroke="white" stroke-width="3" stroke-linecap="round" stroke-linejoin="round"/>
</g>
<defs>
<filter id="filter0_d_188_1601" x="-0.000126572" y="-0.000178351" width="163" height="163" filterUnits="userSpaceOnUse" color-interpolation-filters="sRGB">
<feFlood flood-opacity="0" result="BackgroundImageFix"/>
<feColorMatrix in="SourceAlpha" type="matrix" values="0 0 0 0 0 0 0 0 0 0 0 0 0 0 0 0 0 0 127 0" result="hardAlpha"/>
<feOffset dx="25.3871" dy="26.4037"/>
<feGaussianBlur stdDeviation="19.8028"/>
<feComposite in2="hardAlpha" operator="out"/>
<feColorMatrix type="matrix" values="0 0 0 0 0 0 0 0 0 0.721569 0 0 0 0 0.858824 0 0 0 0.28 0"/>
<feBlend mode="normal" in2="BackgroundImageFix" result="effect1_dropShadow_188_1601"/>
<feBlend mode="normal" in="SourceGraphic" in2="effect1_dropShadow_188_1601" result="shape"/>
</filter>
<linearGradient id="paint0_linear_188_1601" x1="24.3504" y1="34.3882" x2="82.6667" y2="96.7264" gradientUnits="userSpaceOnUse">
<stop stop-color="#96E5F4"/>
<stop offset="1" stop-color="#00B8DB"/>
</linearGradient>
</defs>
</svg>
