<svg width="163" height="163" viewBox="0 0 163 163" fill="none" xmlns="http://www.w3.org/2000/svg">
<g filter="url(#filter0_d_192_885)">
<rect x="14.2958" y="13.2737" width="83.3569" height="83.3569" rx="23.3718" fill="#00A63E" shape-rendering="crispEdges"/>
<path d="M62.0921 55.5126L64.7578 70.5145C64.7876 70.6911 64.7628 70.8727 64.6867 71.0349C64.6106 71.197 64.4868 71.3321 64.3318 71.422C64.1769 71.5119 63.9982 71.5524 63.8196 71.538C63.641 71.5236 63.4711 71.455 63.3325 71.3415L57.0334 66.6136C56.7293 66.3864 56.3599 66.2636 55.9803 66.2636C55.6007 66.2636 55.2313 66.3864 54.9272 66.6136L48.6175 71.3397C48.479 71.4531 48.3093 71.5215 48.1309 71.536C47.9526 71.5504 47.7741 71.5101 47.6192 71.4204C47.4644 71.3307 47.3405 71.196 47.2642 71.0341C47.1879 70.8723 47.1628 70.691 47.1922 70.5145L49.8562 55.5126" stroke="white" stroke-width="3" stroke-linecap="round" stroke-linejoin="round"/>
<path d="M55.9741 57.4656C61.8047 57.4656 66.5313 52.7389 66.5313 46.9083C66.5313 41.0777 61.8047 36.351 55.9741 36.351C50.1434 36.351 45.4168 41.0777 45.4168 46.9083C45.4168 52.7389 50.1434 57.4656 55.9741 57.4656Z" stroke="white" stroke-width="3" stroke-linecap="round" stroke-linejoin="round"/>
</g>
<defs>
<filter id="filter0_d_192_885" x="-0.000126572" y="-0.000178351" width="163" height="163" filterUnits="userSpaceOnUse" color-interpolation-filters="sRGB">
<feFlood flood-opacity="0" result="BackgroundImageFix"/>
<feColorMatrix in="SourceAlpha" type="matrix" values="0 0 0 0 0 0 0 0 0 0 0 0 0 0 0 0 0 0 127 0" result="hardAlpha"/>
<feOffset dx="25.3871" dy="26.4037"/>
<feGaussianBlur stdDeviation="19.8028"/>
<feComposite in2="hardAlpha" operator="out"/>
<feColorMatrix type="matrix" values="0 0 0 0 0 0 0 0 0 0.65098 0 0 0 0 0.243137 0 0 0 0.28 0"/>
<feBlend mode="normal" in2="BackgroundImageFix" result="effect1_dropShadow_192_885"/>
<feBlend mode="normal" in="SourceGraphic" in2="effect1_dropShadow_192_885" result="shape"/>
</filter>
</defs>
</svg>
