<svg width="163" height="163" viewBox="0 0 163 163" fill="none" xmlns="http://www.w3.org/2000/svg">
<g filter="url(#filter0_d_188_1308)">
<rect x="14.2958" y="13.2737" width="83.3569" height="83.3569" rx="23.3718" fill="#004EFF" shape-rendering="crispEdges"/>
<rect x="14.2958" y="13.2737" width="83.3569" height="83.3569" rx="23.3718" fill="url(#paint0_linear_188_1308)" shape-rendering="crispEdges"/>
<g clip-path="url(#clip0_188_1308)">
<path d="M48.9359 67.5201C50.7406 67.5201 52.2036 68.9831 52.2036 70.7878C52.2036 72.5925 50.7406 74.0556 48.9359 74.0556C47.1312 74.0556 45.6682 72.5925 45.6682 70.7878C45.6682 68.9831 47.1312 67.5201 48.9359 67.5201Z" stroke="white" stroke-width="3" stroke-linecap="round" stroke-linejoin="round"/>
<path d="M68.2909 67.5201C70.0956 67.5201 71.5586 68.9831 71.5586 70.7878C71.5586 72.5925 70.0956 74.0556 68.2909 74.0556C66.4862 74.0556 65.0232 72.5925 65.0232 70.7878C65.0232 68.9831 66.4862 67.5201 68.2909 67.5201Z" stroke="white" stroke-width="3" stroke-linecap="round" stroke-linejoin="round"/>
<path d="M38.4665 37.4443H41.9856L46.666 59.2979C46.8377 60.0983 47.283 60.8137 47.9253 61.3211C48.5676 61.8286 49.3667 62.0962 50.1851 62.078H67.3934C68.1943 62.0767 68.9708 61.8022 69.5947 61.3C70.2185 60.7977 70.6523 60.0977 70.8245 59.3155L73.7278 46.2421H43.8683" stroke="white" stroke-width="3" stroke-linecap="round" stroke-linejoin="round"/>
</g>
</g>
<defs>
<filter id="filter0_d_188_1308" x="-0.000126572" y="-0.000178351" width="163" height="163" filterUnits="userSpaceOnUse" color-interpolation-filters="sRGB">
<feFlood flood-opacity="0" result="BackgroundImageFix"/>
<feColorMatrix in="SourceAlpha" type="matrix" values="0 0 0 0 0 0 0 0 0 0 0 0 0 0 0 0 0 0 127 0" result="hardAlpha"/>
<feOffset dx="25.3871" dy="26.4037"/>
<feGaussianBlur stdDeviation="19.8028"/>
<feComposite in2="hardAlpha" operator="out"/>
<feColorMatrix type="matrix" values="0 0 0 0 0 0 0 0 0 0.306122 0 0 0 0 1 0 0 0 0.28 0"/>
<feBlend mode="normal" in2="BackgroundImageFix" result="effect1_dropShadow_188_1308"/>
<feBlend mode="normal" in="SourceGraphic" in2="effect1_dropShadow_188_1308" result="shape"/>
</filter>
<linearGradient id="paint0_linear_188_1308" x1="-2.37556" y1="1.05757" x2="118.984" y2="81.8397" gradientUnits="userSpaceOnUse">
<stop stop-color="#6896FF"/>
<stop offset="1" stop-color="#004EFF"/>
</linearGradient>
<clipPath id="clip0_188_1308">
<rect width="42" height="42" fill="white" transform="translate(34.8595 33.8374) scale(1.00545)"/>
</clipPath>
</defs>
</svg>
