<svg width="163" height="163" viewBox="0 0 163 163" fill="none" xmlns="http://www.w3.org/2000/svg">
<g filter="url(#filter0_d_192_916)">
<rect x="14.2958" y="13.2737" width="83.3569" height="83.3569" rx="23.3718" fill="#AD46FF" shape-rendering="crispEdges"/>
<path d="M41.8978 58.4712C41.5648 58.4723 41.2384 58.379 40.9564 58.2019C40.6744 58.0249 40.4484 57.7715 40.3046 57.4712C40.1609 57.1708 40.1054 56.8358 40.1444 56.5052C40.1835 56.1745 40.3156 55.8617 40.5254 55.6031L57.9449 37.6558C58.0755 37.5049 58.2536 37.403 58.4498 37.3667C58.6461 37.3304 58.8488 37.3619 59.0248 37.4561C59.2007 37.5502 59.3395 37.7013 59.4182 37.8847C59.4969 38.068 59.511 38.2727 59.4581 38.4651L56.0798 49.0576C55.9801 49.3242 55.9467 49.611 55.9823 49.8934C56.0178 50.1758 56.1214 50.4453 56.284 50.6789C56.4467 50.9125 56.6635 51.1031 56.916 51.2345C57.1685 51.3658 57.4491 51.4339 57.7337 51.433H70.0505C70.3835 51.4319 70.71 51.5252 70.992 51.7022C71.274 51.8793 71.5 52.1327 71.6437 52.433C71.7875 52.7334 71.843 53.0683 71.8039 53.399C71.7649 53.7297 71.6328 54.0425 71.423 54.3011L54.0035 72.2484C53.8728 72.3992 53.6948 72.5012 53.4985 72.5375C53.3023 72.5737 53.0996 72.5422 52.9236 72.4481C52.7476 72.354 52.6089 72.2029 52.5302 72.0195C52.4514 71.8361 52.4374 71.6314 52.4903 71.439L55.8686 60.8466C55.9682 60.58 56.0017 60.2932 55.9661 60.0108C55.9305 59.7284 55.827 59.4588 55.6643 59.2253C55.5017 58.9917 55.2848 58.8011 55.0323 58.6697C54.7798 58.5384 54.4992 58.4703 54.2146 58.4712H41.8978Z" stroke="white" stroke-width="3" stroke-linecap="round" stroke-linejoin="round"/>
</g>
<defs>
<filter id="filter0_d_192_916" x="-0.000126572" y="-0.000178351" width="163" height="163" filterUnits="userSpaceOnUse" color-interpolation-filters="sRGB">
<feFlood flood-opacity="0" result="BackgroundImageFix"/>
<feColorMatrix in="SourceAlpha" type="matrix" values="0 0 0 0 0 0 0 0 0 0 0 0 0 0 0 0 0 0 127 0" result="hardAlpha"/>
<feOffset dx="25.3871" dy="26.4037"/>
<feGaussianBlur stdDeviation="19.8028"/>
<feComposite in2="hardAlpha" operator="out"/>
<feColorMatrix type="matrix" values="0 0 0 0 0.678431 0 0 0 0 0.27451 0 0 0 0 1 0 0 0 0.28 0"/>
<feBlend mode="normal" in2="BackgroundImageFix" result="effect1_dropShadow_192_916"/>
<feBlend mode="normal" in="SourceGraphic" in2="effect1_dropShadow_192_916" result="shape"/>
</filter>
</defs>
</svg>
